<svg xmlns="http://www.w3.org/2000/svg" width="980" height="460" viewBox="0 0 980 460">
    <rect width="980" height="460" fill="white"/>
    <text x="72" y="30" font-size="22" font-weight="700" fill="#0F172A">P1 Entry Cohort Quality</text>
    <text x="72" y="50" font-size="12" fill="#334155">Forward return to the next rebalance date for each batch of newly disclosed entries.</text>
    <line x1="72" y1="368.0" x2="960" y2="368.0" stroke="#E2E8F0" stroke-width="1"/><text x="62" y="372.0" text-anchor="end" font-size="11" fill="#334155">-91.9%</text><line x1="72" y1="292.0" x2="960" y2="292.0" stroke="#E2E8F0" stroke-width="1"/><text x="62" y="296.0" text-anchor="end" font-size="11" fill="#334155">-43.9%</text><line x1="72" y1="216.0" x2="960" y2="216.0" stroke="#E2E8F0" stroke-width="1"/><text x="62" y="220.0" text-anchor="end" font-size="11" fill="#334155">4.1%</text><line x1="72" y1="140.0" x2="960" y2="140.0" stroke="#E2E8F0" stroke-width="1"/><text x="62" y="144.0" text-anchor="end" font-size="11" fill="#334155">52.0%</text><line x1="72" y1="64.0" x2="960" y2="64.0" stroke="#E2E8F0" stroke-width="1"/><text x="62" y="68.0" text-anchor="end" font-size="11" fill="#334155">100.0%</text><line x1="72" y1="222.5" x2="960" y2="222.5" stroke="#334155" stroke-width="1.2"/>
    <rect x="82.0" y="222.5" width="16.4" height="28.9" fill="#C2410C" rx="3"/><rect x="101.4" y="222.5" width="16.4" height="0.0" fill="#0B5FFF" rx="3"/><text x="96.7" y="422" text-anchor="middle" font-size="10.5" fill="#334155">19-08</text><rect x="131.3" y="204.2" width="16.4" height="18.3" fill="#C2410C" rx="3"/><rect x="150.8" y="84.7" width="16.4" height="137.8" fill="#0B5FFF" rx="3"/><rect x="180.7" y="205.5" width="16.4" height="17.0" fill="#C2410C" rx="3"/><rect x="200.1" y="64.0" width="16.4" height="158.5" fill="#0B5FFF" rx="3"/><text x="195.3" y="422" text-anchor="middle" font-size="10.5" fill="#334155">20-08</text><rect x="230.0" y="222.5" width="16.4" height="9.6" fill="#C2410C" rx="3"/><rect x="249.4" y="222.5" width="16.4" height="0.0" fill="#0B5FFF" rx="3"/><rect x="279.3" y="222.5" width="16.4" height="56.7" fill="#C2410C" rx="3"/><rect x="298.8" y="193.6" width="16.4" height="28.8" fill="#0B5FFF" rx="3"/><text x="294.0" y="422" text-anchor="middle" font-size="10.5" fill="#334155">21-05</text><rect x="328.7" y="187.2" width="16.4" height="35.3" fill="#C2410C" rx="3"/><rect x="348.1" y="64.0" width="16.4" height="158.5" fill="#0B5FFF" rx="3"/><rect x="378.0" y="222.5" width="16.4" height="30.7" fill="#C2410C" rx="3"/><rect x="397.4" y="222.5" width="16.4" height="0.0" fill="#0B5FFF" rx="3"/><text x="392.7" y="422" text-anchor="middle" font-size="10.5" fill="#334155">22-11</text><rect x="427.3" y="196.3" width="16.4" height="26.1" fill="#C2410C" rx="3"/><rect x="446.8" y="89.9" width="16.4" height="132.6" fill="#0B5FFF" rx="3"/><rect x="476.7" y="222.5" width="16.4" height="145.5" fill="#C2410C" rx="3"/><rect x="496.1" y="222.5" width="16.4" height="0.0" fill="#0B5FFF" rx="3"/><text x="491.3" y="422" text-anchor="middle" font-size="10.5" fill="#334155">23-02</text><rect x="526.0" y="183.7" width="16.4" height="38.8" fill="#C2410C" rx="3"/><rect x="545.4" y="116.8" width="16.4" height="105.6" fill="#0B5FFF" rx="3"/><rect x="575.3" y="215.7" width="16.4" height="6.7" fill="#C2410C" rx="3"/><rect x="594.8" y="64.0" width="16.4" height="158.5" fill="#0B5FFF" rx="3"/><text x="590.0" y="422" text-anchor="middle" font-size="10.5" fill="#334155">23-11</text><rect x="624.7" y="222.5" width="16.4" height="3.7" fill="#C2410C" rx="3"/><rect x="644.1" y="222.5" width="16.4" height="0.0" fill="#0B5FFF" rx="3"/><rect x="674.0" y="196.2" width="16.4" height="26.3" fill="#C2410C" rx="3"/><rect x="693.4" y="64.0" width="16.4" height="158.5" fill="#0B5FFF" rx="3"/><text x="688.7" y="422" text-anchor="middle" font-size="10.5" fill="#334155">24-05</text><rect x="723.3" y="199.9" width="16.4" height="22.6" fill="#C2410C" rx="3"/><rect x="742.8" y="64.0" width="16.4" height="158.5" fill="#0B5FFF" rx="3"/><rect x="772.7" y="180.3" width="16.4" height="42.1" fill="#C2410C" rx="3"/><rect x="792.1" y="102.0" width="16.4" height="120.4" fill="#0B5FFF" rx="3"/><text x="787.3" y="422" text-anchor="middle" font-size="10.5" fill="#334155">24-11</text><rect x="822.0" y="222.5" width="16.4" height="11.1" fill="#C2410C" rx="3"/><rect x="841.4" y="222.5" width="16.4" height="0.0" fill="#0B5FFF" rx="3"/><rect x="871.3" y="105.5" width="16.4" height="117.0" fill="#C2410C" rx="3"/><rect x="890.8" y="143.2" width="16.4" height="79.2" fill="#0B5FFF" rx="3"/><text x="886.0" y="422" text-anchor="middle" font-size="10.5" fill="#334155">25-05</text><rect x="920.7" y="200.5" width="16.4" height="21.9" fill="#C2410C" rx="3"/><rect x="940.1" y="64.0" width="16.4" height="158.5" fill="#0B5FFF" rx="3"/><text x="935.3" y="422" text-anchor="middle" font-size="10.5" fill="#334155">25-08</text>
    <rect x="72" y="434" width="12" height="12" fill="#C2410C" rx="2"/><text x="90" y="444" font-size="11" fill="#334155">Mean forward return</text><rect x="232" y="434" width="12" height="12" fill="#0B5FFF" rx="2"/><text x="250" y="444" font-size="11" fill="#334155">Hit rate</text>
    </svg>