<svg xmlns="http://www.w3.org/2000/svg" width="880" height="460" viewBox="0 0 880 460">
    <rect width="880" height="460" fill="white"/>
    <text x="72" y="30" font-size="22" font-weight="700" fill="#0F172A">P3 Bucket Forward Returns</text>
    <text x="72" y="50" font-size="12" fill="#334155">Did the names P3 overweight actually outperform the neutral sleeve names through the next filing window?</text>
    <line x1="72" y1="368.0" x2="860" y2="368.0" stroke="#E2E8F0" stroke-width="1"/><text x="62" y="372.0" text-anchor="end" font-size="11" fill="#334155">0.0%</text><line x1="72" y1="292.0" x2="860" y2="292.0" stroke="#E2E8F0" stroke-width="1"/><text x="62" y="296.0" text-anchor="end" font-size="11" fill="#334155">3.0%</text><line x1="72" y1="216.0" x2="860" y2="216.0" stroke="#E2E8F0" stroke-width="1"/><text x="62" y="220.0" text-anchor="end" font-size="11" fill="#334155">6.0%</text><line x1="72" y1="140.0" x2="860" y2="140.0" stroke="#E2E8F0" stroke-width="1"/><text x="62" y="144.0" text-anchor="end" font-size="11" fill="#334155">9.1%</text><line x1="72" y1="64.0" x2="860" y2="64.0" stroke="#E2E8F0" stroke-width="1"/><text x="62" y="68.0" text-anchor="end" font-size="11" fill="#334155">12.1%</text><line x1="72" y1="368.0" x2="860" y2="368.0" stroke="#334155" stroke-width="1.2"/>
    <rect x="82.0" y="64.0" width="22.0" height="304.0" fill="#15803D" rx="3"/><rect x="107.0" y="143.9" width="22.0" height="224.1" fill="#D97706" rx="3"/><text x="269.0" y="422" text-anchor="middle" font-size="10.5" fill="#334155">accumulation_like</text><rect x="476.0" y="330.1" width="22.0" height="37.9" fill="#15803D" rx="3"/><rect x="501.0" y="345.1" width="22.0" height="22.9" fill="#D97706" rx="3"/><text x="663.0" y="422" text-anchor="middle" font-size="10.5" fill="#334155">neutral</text>
    <rect x="72" y="434" width="12" height="12" fill="#15803D" rx="2"/><text x="90" y="444" font-size="11" fill="#334155">Mean forward return</text><rect x="232" y="434" width="12" height="12" fill="#D97706" rx="2"/><text x="250" y="444" font-size="11" fill="#334155">Median forward return</text>
    </svg>