<svg xmlns="http://www.w3.org/2000/svg" width="980" height="460" viewBox="0 0 980 460">
    <rect width="980" height="460" fill="white"/>
    <text x="72" y="30" font-size="22" font-weight="700" fill="#0F172A">P4 Reduction-Avoidance Effect</text>
    <text x="72" y="50" font-size="12" fill="#334155">Forward return comparison for quarters where P4 explicitly excluded likely reductions.</text>
    <line x1="72" y1="368.0" x2="960" y2="368.0" stroke="#E2E8F0" stroke-width="1"/><text x="62" y="372.0" text-anchor="end" font-size="11" fill="#334155">-29.5%</text><line x1="72" y1="292.0" x2="960" y2="292.0" stroke="#E2E8F0" stroke-width="1"/><text x="62" y="296.0" text-anchor="end" font-size="11" fill="#334155">-17.1%</text><line x1="72" y1="216.0" x2="960" y2="216.0" stroke="#E2E8F0" stroke-width="1"/><text x="62" y="220.0" text-anchor="end" font-size="11" fill="#334155">-4.7%</text><line x1="72" y1="140.0" x2="960" y2="140.0" stroke="#E2E8F0" stroke-width="1"/><text x="62" y="144.0" text-anchor="end" font-size="11" fill="#334155">7.8%</text><line x1="72" y1="64.0" x2="960" y2="64.0" stroke="#E2E8F0" stroke-width="1"/><text x="62" y="68.0" text-anchor="end" font-size="11" fill="#334155">20.2%</text><line x1="72" y1="187.5" x2="960" y2="187.5" stroke="#334155" stroke-width="1.2"/>
    <rect x="82.0" y="133.7" width="22.0" height="53.8" fill="#C2410C" rx="3"/><rect x="107.0" y="187.5" width="22.0" height="72.2" fill="#0B5FFF" rx="3"/><text x="109.0" y="422" text-anchor="middle" font-size="10.5" fill="#334155">20-02</text><rect x="156.0" y="143.4" width="22.0" height="44.1" fill="#C2410C" rx="3"/><rect x="181.0" y="64.0" width="22.0" height="123.5" fill="#0B5FFF" rx="3"/><rect x="230.0" y="116.0" width="22.0" height="71.5" fill="#C2410C" rx="3"/><rect x="255.0" y="82.8" width="22.0" height="104.7" fill="#0B5FFF" rx="3"/><text x="257.0" y="422" text-anchor="middle" font-size="10.5" fill="#334155">22-12</text><rect x="304.0" y="187.5" width="22.0" height="180.5" fill="#C2410C" rx="3"/><rect x="329.0" y="187.5" width="22.0" height="30.0" fill="#0B5FFF" rx="3"/><rect x="378.0" y="145.6" width="22.0" height="41.9" fill="#C2410C" rx="3"/><rect x="403.0" y="116.9" width="22.0" height="70.6" fill="#0B5FFF" rx="3"/><text x="405.0" y="422" text-anchor="middle" font-size="10.5" fill="#334155">23-05</text><rect x="452.0" y="158.8" width="22.0" height="28.7" fill="#C2410C" rx="3"/><rect x="477.0" y="187.5" width="22.0" height="15.5" fill="#0B5FFF" rx="3"/><rect x="526.0" y="187.5" width="22.0" height="46.4" fill="#C2410C" rx="3"/><rect x="551.0" y="153.7" width="22.0" height="33.8" fill="#0B5FFF" rx="3"/><text x="553.0" y="422" text-anchor="middle" font-size="10.5" fill="#334155">23-11</text><rect x="600.0" y="125.0" width="22.0" height="62.4" fill="#C2410C" rx="3"/><rect x="625.0" y="181.4" width="22.0" height="6.1" fill="#0B5FFF" rx="3"/><rect x="674.0" y="98.6" width="22.0" height="88.9" fill="#C2410C" rx="3"/><rect x="699.0" y="162.9" width="22.0" height="24.6" fill="#0B5FFF" rx="3"/><text x="701.0" y="422" text-anchor="middle" font-size="10.5" fill="#334155">24-05</text><rect x="748.0" y="176.9" width="22.0" height="10.6" fill="#C2410C" rx="3"/><rect x="773.0" y="187.5" width="22.0" height="33.4" fill="#0B5FFF" rx="3"/><rect x="822.0" y="83.8" width="22.0" height="103.7" fill="#C2410C" rx="3"/><rect x="847.0" y="94.6" width="22.0" height="92.9" fill="#0B5FFF" rx="3"/><text x="849.0" y="422" text-anchor="middle" font-size="10.5" fill="#334155">25-05</text><rect x="896.0" y="78.7" width="22.0" height="108.8" fill="#C2410C" rx="3"/><rect x="921.0" y="187.5" width="22.0" height="46.2" fill="#0B5FFF" rx="3"/><text x="923.0" y="422" text-anchor="middle" font-size="10.5" fill="#334155">25-08</text>
    <rect x="72" y="434" width="12" height="12" fill="#C2410C" rx="2"/><text x="90" y="444" font-size="11" fill="#334155">Avoided reductions</text><rect x="232" y="434" width="12" height="12" fill="#0B5FFF" rx="2"/><text x="250" y="444" font-size="11" fill="#334155">Kept names</text>
    </svg>