<svg xmlns="http://www.w3.org/2000/svg" width="900" height="500" viewBox="0 0 900 500">
    <rect width="900" height="500" fill="white"/>
    <text x="86" y="30" font-size="22" font-weight="700" fill="#0F172A">Return vs Drawdown</text>
    <text x="86" y="50" font-size="12" fill="#334155">Simple sanity frame: strong returns are only interesting if they did not require absurdly different drawdown profiles.</text>
    <line x1="86.0" y1="64" x2="86.0" y2="414" stroke="#E2E8F0" stroke-width="1"/><text x="86.0" y="434" text-anchor="middle" font-size="11" fill="#334155">59.5%</text><line x1="86" y1="414.0" x2="870" y2="414.0" stroke="#E2E8F0" stroke-width="1"/><text x="76" y="418.0" text-anchor="end" font-size="11" fill="#334155">-79.6%</text><line x1="282.0" y1="64" x2="282.0" y2="414" stroke="#E2E8F0" stroke-width="1"/><text x="282.0" y="434" text-anchor="middle" font-size="11" fill="#334155">69.5%</text><line x1="86" y1="326.5" x2="870" y2="326.5" stroke="#E2E8F0" stroke-width="1"/><text x="76" y="330.5" text-anchor="end" font-size="11" fill="#334155">-45.6%</text><line x1="478.0" y1="64" x2="478.0" y2="414" stroke="#E2E8F0" stroke-width="1"/><text x="478.0" y="434" text-anchor="middle" font-size="11" fill="#334155">79.5%</text><line x1="86" y1="239.0" x2="870" y2="239.0" stroke="#E2E8F0" stroke-width="1"/><text x="76" y="243.0" text-anchor="end" font-size="11" fill="#334155">-11.6%</text><line x1="674.0" y1="64" x2="674.0" y2="414" stroke="#E2E8F0" stroke-width="1"/><text x="674.0" y="434" text-anchor="middle" font-size="11" fill="#334155">89.5%</text><line x1="86" y1="151.5" x2="870" y2="151.5" stroke="#E2E8F0" stroke-width="1"/><text x="76" y="155.5" text-anchor="end" font-size="11" fill="#334155">22.3%</text><line x1="870.0" y1="64" x2="870.0" y2="414" stroke="#E2E8F0" stroke-width="1"/><text x="870.0" y="434" text-anchor="middle" font-size="11" fill="#334155">99.5%</text><line x1="86" y1="64.0" x2="870" y2="64.0" stroke="#E2E8F0" stroke-width="1"/><text x="76" y="68.0" text-anchor="end" font-size="11" fill="#334155">56.3%</text>
    <circle cx="777.2" cy="404.2" r="8" fill="#C2410C" opacity="0.9"/><text x="789.2" y="408.2" font-size="12" fill="#0F172A">P1</text><circle cx="509.4" cy="292.2" r="8" fill="#0B5FFF" opacity="0.9"/><text x="521.4" y="296.2" font-size="12" fill="#0F172A">P2</text><circle cx="657.3" cy="387.5" r="8" fill="#15803D" opacity="0.9"/><text x="669.3" y="391.5" font-size="12" fill="#0F172A">P3</text><circle cx="504.8" cy="325.3" r="8" fill="#7C3AED" opacity="0.9"/><text x="516.8" y="329.3" font-size="12" fill="#0F172A">P4</text><circle cx="147.3" cy="82.9" r="8" fill="#BE185D" opacity="0.9"/><text x="159.3" y="86.9" font-size="12" fill="#0F172A">P5</text>
    <text x="478.0" y="482" text-anchor="middle" font-size="12" fill="#334155">Absolute Max Drawdown</text>
    <text x="24" y="239.0" transform="rotate(-90 24,239.0)" text-anchor="middle" font-size="12" fill="#334155">Total Return</text>
    </svg>