<svg xmlns="http://www.w3.org/2000/svg" width="980" height="500" viewBox="0 0 980 500">
    <rect width="980" height="500" fill="white"/>
    <text x="72" y="30" font-size="22" font-weight="700" fill="#0F172A">Strategy Returns vs SPY</text>
    <text x="72" y="50" font-size="12" fill="#334155">Absolute total return versus a matched-window SPY buy-and-hold benchmark.</text>
    <line x1="72" y1="408.0" x2="960" y2="408.0" stroke="#E2E8F0" stroke-width="1"/><text x="62" y="412.0" text-anchor="end" font-size="11" fill="#334155">-90.5%</text><line x1="72" y1="322.0" x2="960" y2="322.0" stroke="#E2E8F0" stroke-width="1"/><text x="62" y="326.0" text-anchor="end" font-size="11" fill="#334155">-17.8%</text><line x1="72" y1="236.0" x2="960" y2="236.0" stroke="#E2E8F0" stroke-width="1"/><text x="62" y="240.0" text-anchor="end" font-size="11" fill="#334155">54.8%</text><line x1="72" y1="150.0" x2="960" y2="150.0" stroke="#E2E8F0" stroke-width="1"/><text x="62" y="154.0" text-anchor="end" font-size="11" fill="#334155">127.4%</text><line x1="72" y1="64.0" x2="960" y2="64.0" stroke="#E2E8F0" stroke-width="1"/><text x="62" y="68.0" text-anchor="end" font-size="11" fill="#334155">200.0%</text><line x1="72" y1="300.9" x2="960" y2="300.9" stroke="#334155" stroke-width="1.2"/>
    <rect x="82.0" y="300.9" width="22.0" height="89.7" fill="#0B5FFF" rx="3"/><rect x="107.0" y="118.7" width="22.0" height="182.2" fill="#94A3B8" rx="3"/><rect x="132.0" y="300.9" width="22.0" height="107.1" fill="#BE185D" rx="3"/><text x="160.8" y="462" text-anchor="middle" font-size="10.5" fill="#334155">P1</text><rect x="259.6" y="156.1" width="22.0" height="144.8" fill="#0B5FFF" rx="3"/><rect x="284.6" y="64.0" width="22.0" height="236.9" fill="#94A3B8" rx="3"/><rect x="309.6" y="300.9" width="22.0" height="30.7" fill="#BE185D" rx="3"/><text x="338.4" y="462" text-anchor="middle" font-size="10.5" fill="#334155">P2</text><rect x="437.2" y="219.6" width="22.0" height="81.3" fill="#0B5FFF" rx="3"/><rect x="462.2" y="64.0" width="22.0" height="236.9" fill="#94A3B8" rx="3"/><rect x="487.2" y="300.9" width="22.0" height="51.9" fill="#BE185D" rx="3"/><text x="516.0" y="462" text-anchor="middle" font-size="10.5" fill="#334155">P3</text><rect x="614.8" y="208.4" width="22.0" height="92.5" fill="#0B5FFF" rx="3"/><rect x="639.8" y="64.0" width="22.0" height="236.9" fill="#94A3B8" rx="3"/><rect x="664.8" y="300.9" width="22.0" height="48.1" fill="#BE185D" rx="3"/><text x="693.6" y="462" text-anchor="middle" font-size="10.5" fill="#334155">P4</text><rect x="792.4" y="242.9" width="22.0" height="58.0" fill="#0B5FFF" rx="3"/><rect x="817.4" y="64.0" width="22.0" height="236.9" fill="#94A3B8" rx="3"/><rect x="842.4" y="300.9" width="22.0" height="59.6" fill="#BE185D" rx="3"/><text x="871.2" y="462" text-anchor="middle" font-size="10.5" fill="#334155">P5</text>
    <rect x="72" y="474" width="12" height="12" fill="#0B5FFF" rx="2"/><text x="90" y="484" font-size="11" fill="#334155">Strategy total return</text><rect x="232" y="474" width="12" height="12" fill="#94A3B8" rx="2"/><text x="250" y="484" font-size="11" fill="#334155">SPY total return</text><rect x="392" y="474" width="12" height="12" fill="#BE185D" rx="2"/><text x="410" y="484" font-size="11" fill="#334155">Excess return</text>
    </svg>