<svg xmlns="http://www.w3.org/2000/svg" width="860" height="460" viewBox="0 0 860 460">
    <rect width="860" height="460" fill="white"/>
    <text x="72" y="30" font-size="22" font-weight="700" fill="#0F172A">Concentration by Strategy</text>
    <text x="72" y="50" font-size="12" fill="#334155">Average single-name concentration and average top-3 concentration across daily holdings snapshots.</text>
    <line x1="72" y1="368.0" x2="840" y2="368.0" stroke="#E2E8F0" stroke-width="1"/><text x="62" y="372.0" text-anchor="end" font-size="11" fill="#334155">0.0%</text><line x1="72" y1="292.0" x2="840" y2="292.0" stroke="#E2E8F0" stroke-width="1"/><text x="62" y="296.0" text-anchor="end" font-size="11" fill="#334155">19.9%</text><line x1="72" y1="216.0" x2="840" y2="216.0" stroke="#E2E8F0" stroke-width="1"/><text x="62" y="220.0" text-anchor="end" font-size="11" fill="#334155">39.8%</text><line x1="72" y1="140.0" x2="840" y2="140.0" stroke="#E2E8F0" stroke-width="1"/><text x="62" y="144.0" text-anchor="end" font-size="11" fill="#334155">59.7%</text><line x1="72" y1="64.0" x2="840" y2="64.0" stroke="#E2E8F0" stroke-width="1"/><text x="62" y="68.0" text-anchor="end" font-size="11" fill="#334155">79.7%</text><line x1="72" y1="368.0" x2="840" y2="368.0" stroke="#334155" stroke-width="1.2"/>
    <rect x="82.0" y="140.1" width="22.0" height="227.9" fill="#D97706" rx="3"/><rect x="107.0" y="76.8" width="22.0" height="291.2" fill="#7C3AED" rx="3"/><text x="148.8" y="422" text-anchor="middle" font-size="10.5" fill="#334155">P1</text><rect x="235.6" y="277.9" width="22.0" height="90.1" fill="#D97706" rx="3"/><rect x="260.6" y="208.6" width="22.0" height="159.4" fill="#7C3AED" rx="3"/><text x="302.4" y="422" text-anchor="middle" font-size="10.5" fill="#334155">P2</text><rect x="389.2" y="263.0" width="22.0" height="105.0" fill="#D97706" rx="3"/><rect x="414.2" y="194.7" width="22.0" height="173.3" fill="#7C3AED" rx="3"/><text x="456.0" y="422" text-anchor="middle" font-size="10.5" fill="#334155">P3</text><rect x="542.8" y="269.3" width="22.0" height="98.7" fill="#D97706" rx="3"/><rect x="567.8" y="202.6" width="22.0" height="165.4" fill="#7C3AED" rx="3"/><text x="609.6" y="422" text-anchor="middle" font-size="10.5" fill="#334155">P4</text><rect x="696.4" y="133.0" width="22.0" height="235.0" fill="#D97706" rx="3"/><rect x="721.4" y="64.0" width="22.0" height="304.0" fill="#7C3AED" rx="3"/><text x="763.2" y="422" text-anchor="middle" font-size="10.5" fill="#334155">P5</text>
    <rect x="72" y="434" width="12" height="12" fill="#D97706" rx="2"/><text x="90" y="444" font-size="11" fill="#334155">Avg max weight</text><rect x="232" y="434" width="12" height="12" fill="#7C3AED" rx="2"/><text x="250" y="444" font-size="11" fill="#334155">Avg top-3 weight</text>
    </svg>