<svg xmlns="http://www.w3.org/2000/svg" width="920" height="460" viewBox="0 0 920 460">
    <rect width="920" height="460" fill="white"/>
    <text x="72" y="30" font-size="22" font-weight="700" fill="#0F172A">Excess Return Quality vs SPY</text>
    <text x="72" y="50" font-size="12" fill="#334155">Annualized daily excess return and information ratio over SPY on matched dates.</text>
    <line x1="72" y1="368.0" x2="900" y2="368.0" stroke="#E2E8F0" stroke-width="1"/><text x="62" y="372.0" text-anchor="end" font-size="11" fill="#334155">-41.5%</text><line x1="72" y1="292.0" x2="900" y2="292.0" stroke="#E2E8F0" stroke-width="1"/><text x="62" y="296.0" text-anchor="end" font-size="11" fill="#334155">-32.2%</text><line x1="72" y1="216.0" x2="900" y2="216.0" stroke="#E2E8F0" stroke-width="1"/><text x="62" y="220.0" text-anchor="end" font-size="11" fill="#334155">-22.9%</text><line x1="72" y1="140.0" x2="900" y2="140.0" stroke="#E2E8F0" stroke-width="1"/><text x="62" y="144.0" text-anchor="end" font-size="11" fill="#334155">-13.6%</text><line x1="72" y1="64.0" x2="900" y2="64.0" stroke="#E2E8F0" stroke-width="1"/><text x="62" y="68.0" text-anchor="end" font-size="11" fill="#334155">-4.3%</text><line x1="72" y1="28.7" x2="900" y2="28.7" stroke="#334155" stroke-width="1.2"/>
    <rect x="82.0" y="28.7" width="22.0" height="135.6" fill="#0A7C86" rx="3"/><rect x="107.0" y="28.7" width="22.0" height="244.4" fill="#D97706" rx="3"/><text x="154.8" y="422" text-anchor="middle" font-size="10.5" fill="#334155">P1</text><rect x="247.6" y="28.7" width="22.0" height="96.7" fill="#0A7C86" rx="3"/><rect x="272.6" y="28.7" width="22.0" height="260.8" fill="#D97706" rx="3"/><text x="320.4" y="422" text-anchor="middle" font-size="10.5" fill="#334155">P2</text><rect x="413.2" y="28.7" width="22.0" height="147.6" fill="#0A7C86" rx="3"/><rect x="438.2" y="28.7" width="22.0" height="339.3" fill="#D97706" rx="3"/><text x="486.0" y="422" text-anchor="middle" font-size="10.5" fill="#334155">P3</text><rect x="578.8" y="28.7" width="22.0" height="115.8" fill="#0A7C86" rx="3"/><rect x="603.8" y="28.7" width="22.0" height="296.1" fill="#D97706" rx="3"/><text x="651.6" y="422" text-anchor="middle" font-size="10.5" fill="#334155">P4</text><rect x="744.4" y="28.7" width="22.0" height="35.3" fill="#0A7C86" rx="3"/><rect x="769.4" y="28.7" width="22.0" height="98.0" fill="#D97706" rx="3"/><text x="817.2" y="422" text-anchor="middle" font-size="10.5" fill="#334155">P5</text>
    <rect x="72" y="434" width="12" height="12" fill="#0A7C86" rx="2"/><text x="90" y="444" font-size="11" fill="#334155">Annualized excess return</text><rect x="232" y="434" width="12" height="12" fill="#D97706" rx="2"/><text x="250" y="444" font-size="11" fill="#334155">Information ratio</text>
    </svg>