<svg xmlns="http://www.w3.org/2000/svg" width="980" height="460" viewBox="0 0 980 460">
    <rect width="980" height="460" fill="white"/>
    <text x="74" y="30" font-size="22" font-weight="700" fill="#0F172A">P1 Entry Cohort Quality</text>
    <text x="74" y="50" font-size="12" fill="#334155">Why the lagged new-entry mirror fails: some cohorts are late, tiny, and badly concentrated.</text>
    <line x1="74" y1="368.0" x2="956" y2="368.0" stroke="#E2E8F0" stroke-width="1"/><text x="64" y="372.0" text-anchor="end" font-size="11" fill="#334155">-91.9%</text><line x1="74" y1="292.0" x2="956" y2="292.0" stroke="#E2E8F0" stroke-width="1"/><text x="64" y="296.0" text-anchor="end" font-size="11" fill="#334155">-43.9%</text><line x1="74" y1="216.0" x2="956" y2="216.0" stroke="#E2E8F0" stroke-width="1"/><text x="64" y="220.0" text-anchor="end" font-size="11" fill="#334155">4.1%</text><line x1="74" y1="140.0" x2="956" y2="140.0" stroke="#E2E8F0" stroke-width="1"/><text x="64" y="144.0" text-anchor="end" font-size="11" fill="#334155">52.0%</text><line x1="74" y1="64.0" x2="956" y2="64.0" stroke="#E2E8F0" stroke-width="1"/><text x="64" y="68.0" text-anchor="end" font-size="11" fill="#334155">100.0%</text><line x1="74" y1="222.5" x2="956" y2="222.5" stroke="#334155" stroke-width="1.2"/>
    <rect x="84.0" y="222.5" width="16.3" height="28.9" fill="#C2410C" rx="3"/><rect x="104.3" y="222.5" width="16.3" height="0.0" fill="#0B5FFF" rx="3"/><text x="98.5" y="422" text-anchor="middle" font-size="10.5" fill="#334155">19-08</text><rect x="133.0" y="204.2" width="16.3" height="18.3" fill="#C2410C" rx="3"/><rect x="153.3" y="84.7" width="16.3" height="137.8" fill="#0B5FFF" rx="3"/><rect x="182.0" y="205.5" width="16.3" height="17.0" fill="#C2410C" rx="3"/><rect x="202.3" y="64.0" width="16.3" height="158.5" fill="#0B5FFF" rx="3"/><text x="196.5" y="422" text-anchor="middle" font-size="10.5" fill="#334155">20-08</text><rect x="231.0" y="222.5" width="16.3" height="9.6" fill="#C2410C" rx="3"/><rect x="251.3" y="222.5" width="16.3" height="0.0" fill="#0B5FFF" rx="3"/><rect x="280.0" y="222.5" width="16.3" height="56.7" fill="#C2410C" rx="3"/><rect x="300.3" y="193.6" width="16.3" height="28.8" fill="#0B5FFF" rx="3"/><text x="294.5" y="422" text-anchor="middle" font-size="10.5" fill="#334155">21-05</text><rect x="329.0" y="187.2" width="16.3" height="35.3" fill="#C2410C" rx="3"/><rect x="349.3" y="64.0" width="16.3" height="158.5" fill="#0B5FFF" rx="3"/><rect x="378.0" y="222.5" width="16.3" height="30.7" fill="#C2410C" rx="3"/><rect x="398.3" y="222.5" width="16.3" height="0.0" fill="#0B5FFF" rx="3"/><text x="392.5" y="422" text-anchor="middle" font-size="10.5" fill="#334155">22-11</text><rect x="427.0" y="196.3" width="16.3" height="26.1" fill="#C2410C" rx="3"/><rect x="447.3" y="89.9" width="16.3" height="132.6" fill="#0B5FFF" rx="3"/><rect x="476.0" y="222.5" width="16.3" height="145.5" fill="#C2410C" rx="3"/><rect x="496.3" y="222.5" width="16.3" height="0.0" fill="#0B5FFF" rx="3"/><text x="490.5" y="422" text-anchor="middle" font-size="10.5" fill="#334155">23-02</text><rect x="525.0" y="183.7" width="16.3" height="38.8" fill="#C2410C" rx="3"/><rect x="545.3" y="116.8" width="16.3" height="105.6" fill="#0B5FFF" rx="3"/><rect x="574.0" y="215.7" width="16.3" height="6.7" fill="#C2410C" rx="3"/><rect x="594.3" y="64.0" width="16.3" height="158.5" fill="#0B5FFF" rx="3"/><text x="588.5" y="422" text-anchor="middle" font-size="10.5" fill="#334155">23-11</text><rect x="623.0" y="222.5" width="16.3" height="3.7" fill="#C2410C" rx="3"/><rect x="643.3" y="222.5" width="16.3" height="0.0" fill="#0B5FFF" rx="3"/><rect x="672.0" y="196.2" width="16.3" height="26.3" fill="#C2410C" rx="3"/><rect x="692.3" y="64.0" width="16.3" height="158.5" fill="#0B5FFF" rx="3"/><text x="686.5" y="422" text-anchor="middle" font-size="10.5" fill="#334155">24-05</text><rect x="721.0" y="199.9" width="16.3" height="22.6" fill="#C2410C" rx="3"/><rect x="741.3" y="64.0" width="16.3" height="158.5" fill="#0B5FFF" rx="3"/><rect x="770.0" y="180.3" width="16.3" height="42.1" fill="#C2410C" rx="3"/><rect x="790.3" y="102.0" width="16.3" height="120.4" fill="#0B5FFF" rx="3"/><text x="784.5" y="422" text-anchor="middle" font-size="10.5" fill="#334155">24-11</text><rect x="819.0" y="222.5" width="16.3" height="11.1" fill="#C2410C" rx="3"/><rect x="839.3" y="222.5" width="16.3" height="0.0" fill="#0B5FFF" rx="3"/><rect x="868.0" y="105.5" width="16.3" height="117.0" fill="#C2410C" rx="3"/><rect x="888.3" y="143.2" width="16.3" height="79.2" fill="#0B5FFF" rx="3"/><text x="882.5" y="422" text-anchor="middle" font-size="10.5" fill="#334155">25-05</text><rect x="917.0" y="200.5" width="16.3" height="21.9" fill="#C2410C" rx="3"/><rect x="937.3" y="64.0" width="16.3" height="158.5" fill="#0B5FFF" rx="3"/><text x="931.5" y="422" text-anchor="middle" font-size="10.5" fill="#334155">25-08</text>
    <rect x="74" y="444" width="12" height="12" fill="#C2410C" rx="2"/><text x="92" y="454" font-size="11" fill="#334155">Mean forward return</text><rect x="244" y="444" width="12" height="12" fill="#0B5FFF" rx="2"/><text x="262" y="454" font-size="11" fill="#334155">Hit rate</text>
    </svg>