<svg xmlns="http://www.w3.org/2000/svg" width="860" height="460" viewBox="0 0 860 460">
    <rect width="860" height="460" fill="white"/>
    <text x="74" y="30" font-size="22" font-weight="700" fill="#0F172A">P3 Forward Return by Bucket</text>
    <text x="74" y="50" font-size="12" fill="#334155">Accumulation-like names do better on simple average, but not enough to overcome concentration and tail risk.</text>
    <line x1="74" y1="368.0" x2="836" y2="368.0" stroke="#E2E8F0" stroke-width="1"/><text x="64" y="372.0" text-anchor="end" font-size="11" fill="#334155">0.0%</text><line x1="74" y1="292.0" x2="836" y2="292.0" stroke="#E2E8F0" stroke-width="1"/><text x="64" y="296.0" text-anchor="end" font-size="11" fill="#334155">2.6%</text><line x1="74" y1="216.0" x2="836" y2="216.0" stroke="#E2E8F0" stroke-width="1"/><text x="64" y="220.0" text-anchor="end" font-size="11" fill="#334155">5.2%</text><line x1="74" y1="140.0" x2="836" y2="140.0" stroke="#E2E8F0" stroke-width="1"/><text x="64" y="144.0" text-anchor="end" font-size="11" fill="#334155">7.8%</text><line x1="74" y1="64.0" x2="836" y2="64.0" stroke="#E2E8F0" stroke-width="1"/><text x="64" y="68.0" text-anchor="end" font-size="11" fill="#334155">10.5%</text><line x1="74" y1="368.0" x2="836" y2="368.0" stroke="#334155" stroke-width="1.2"/>
    <rect x="84.0" y="64.0" width="24.0" height="304.0" fill="#15803D" rx="3"/><rect x="112.0" y="190.3" width="24.0" height="177.7" fill="#D97706" rx="3"/><text x="264.5" y="422" text-anchor="middle" font-size="10.5" fill="#334155">accumulation_like</text><rect x="465.0" y="324.2" width="24.0" height="43.8" fill="#15803D" rx="3"/><rect x="493.0" y="344.9" width="24.0" height="23.1" fill="#D97706" rx="3"/><text x="645.5" y="422" text-anchor="middle" font-size="10.5" fill="#334155">neutral</text>
    <rect x="74" y="444" width="12" height="12" fill="#15803D" rx="2"/><text x="92" y="454" font-size="11" fill="#334155">Mean forward return</text><rect x="244" y="444" width="12" height="12" fill="#D97706" rx="2"/><text x="262" y="454" font-size="11" fill="#334155">Median forward return</text>
    </svg>