<svg xmlns="http://www.w3.org/2000/svg" width="1180" height="330" viewBox="0 0 1180 330">
    <rect width="1180" height="330" fill="white"/>
    <text x="90" y="30" font-size="22" font-weight="700" fill="#0F172A">Rebalance Window Return Heatmap</text>
    <text x="90" y="50" font-size="12" fill="#334155">Each cell is the return from one rebalance date to the eve of the next rebalance.</text>
    <text x="80" y="97.0" text-anchor="end" font-size="11" fill="#0F172A">P1</text><rect x="90.0" y="72.0" width="39.2" height="40.0" fill="rgba(21,128,61,0.120)" rx="2"/><text x="110.6" y="97.0" text-anchor="middle" font-size="10" fill="#0F172A">0.0%</text><rect x="131.2" y="72.0" width="39.2" height="40.0" fill="rgba(21,128,61,0.120)" rx="2"/><text x="151.7" y="97.0" text-anchor="middle" font-size="10" fill="#0F172A">0.0%</text><rect x="172.3" y="72.0" width="39.2" height="40.0" fill="rgba(194,65,12,0.162)" rx="2"/><text x="192.9" y="97.0" text-anchor="middle" font-size="10" fill="#0F172A">-18.2%</text><rect x="213.5" y="72.0" width="39.2" height="40.0" fill="rgba(21,128,61,0.120)" rx="2"/><text x="234.0" y="97.0" text-anchor="middle" font-size="10" fill="#0F172A">0.0%</text><rect x="254.6" y="72.0" width="39.2" height="40.0" fill="rgba(21,128,61,0.120)" rx="2"/><text x="275.2" y="97.0" text-anchor="middle" font-size="10" fill="#0F172A">0.0%</text><rect x="295.8" y="72.0" width="39.2" height="40.0" fill="rgba(21,128,61,0.147)" rx="2"/><text x="316.3" y="97.0" text-anchor="middle" font-size="10" fill="#0F172A">11.5%</text><rect x="336.9" y="72.0" width="39.2" height="40.0" fill="rgba(21,128,61,0.145)" rx="2"/><text x="357.5" y="97.0" text-anchor="middle" font-size="10" fill="#0F172A">10.7%</text><rect x="378.1" y="72.0" width="39.2" height="40.0" fill="rgba(194,65,12,0.134)" rx="2"/><text x="398.7" y="97.0" text-anchor="middle" font-size="10" fill="#0F172A">-6.0%</text><rect x="419.2" y="72.0" width="39.2" height="40.0" fill="rgba(194,65,12,0.203)" rx="2"/><text x="439.8" y="97.0" text-anchor="middle" font-size="10" fill="#0F172A">-35.8%</text><rect x="460.4" y="72.0" width="39.2" height="40.0" fill="rgba(21,128,61,0.120)" rx="2"/><text x="481.0" y="97.0" text-anchor="middle" font-size="10" fill="#0F172A">0.0%</text><rect x="501.5" y="72.0" width="39.2" height="40.0" fill="rgba(21,128,61,0.172)" rx="2"/><text x="522.1" y="97.0" text-anchor="middle" font-size="10" fill="#0F172A">22.3%</text><rect x="542.7" y="72.0" width="39.2" height="40.0" fill="rgba(194,65,12,0.165)" rx="2"/><text x="563.3" y="97.0" text-anchor="middle" font-size="10" fill="#0F172A">-19.4%</text><rect x="583.8" y="72.0" width="39.2" height="40.0" fill="rgba(21,128,61,0.158)" rx="2"/><text x="604.4" y="97.0" text-anchor="middle" font-size="10" fill="#0F172A">16.5%</text><rect x="625.0" y="72.0" width="39.2" height="40.0" fill="rgba(194,65,12,0.333)" rx="2"/><text x="645.6" y="97.0" text-anchor="middle" font-size="10" fill="#0F172A">-91.9%</text><rect x="666.2" y="72.0" width="39.2" height="40.0" fill="rgba(21,128,61,0.177)" rx="2"/><text x="686.7" y="97.0" text-anchor="middle" font-size="10" fill="#0F172A">24.5%</text><rect x="707.3" y="72.0" width="39.2" height="40.0" fill="rgba(21,128,61,0.120)" rx="2"/><text x="727.9" y="97.0" text-anchor="middle" font-size="10" fill="#0F172A">0.0%</text><rect x="748.5" y="72.0" width="39.2" height="40.0" fill="rgba(21,128,61,0.130)" rx="2"/><text x="769.0" y="97.0" text-anchor="middle" font-size="10" fill="#0F172A">4.2%</text><rect x="789.6" y="72.0" width="39.2" height="40.0" fill="rgba(194,65,12,0.125)" rx="2"/><text x="810.2" y="97.0" text-anchor="middle" font-size="10" fill="#0F172A">-2.4%</text><rect x="830.8" y="72.0" width="39.2" height="40.0" fill="rgba(21,128,61,0.158)" rx="2"/><text x="851.3" y="97.0" text-anchor="middle" font-size="10" fill="#0F172A">16.6%</text><rect x="871.9" y="72.0" width="39.2" height="40.0" fill="rgba(21,128,61,0.153)" rx="2"/><text x="892.5" y="97.0" text-anchor="middle" font-size="10" fill="#0F172A">14.2%</text><rect x="913.1" y="72.0" width="39.2" height="40.0" fill="rgba(21,128,61,0.182)" rx="2"/><text x="933.7" y="97.0" text-anchor="middle" font-size="10" fill="#0F172A">26.6%</text><rect x="954.2" y="72.0" width="39.2" height="40.0" fill="rgba(194,65,12,0.136)" rx="2"/><text x="974.8" y="97.0" text-anchor="middle" font-size="10" fill="#0F172A">-7.0%</text><rect x="995.4" y="72.0" width="39.2" height="40.0" fill="rgba(21,128,61,0.291)" rx="2"/><text x="1016.0" y="97.0" text-anchor="middle" font-size="10" fill="#0F172A">73.8%</text><rect x="1036.5" y="72.0" width="39.2" height="40.0" fill="rgba(21,128,61,0.152)" rx="2"/><text x="1057.1" y="97.0" text-anchor="middle" font-size="10" fill="#0F172A">13.8%</text><rect x="1077.7" y="72.0" width="39.2" height="40.0" fill="rgba(21,128,61,0.120)" rx="2"/><text x="1098.3" y="97.0" text-anchor="middle" font-size="10" fill="#0F172A">0.0%</text><rect x="1118.8" y="72.0" width="39.2" height="40.0" fill="rgba(21,128,61,0.120)" rx="2"/><text x="1139.4" y="97.0" text-anchor="middle" font-size="10" fill="#0F172A">0.0%</text><text x="80" y="139.0" text-anchor="end" font-size="11" fill="#0F172A">P2</text><rect x="90.0" y="114.0" width="39.2" height="40.0" fill="rgba(194,65,12,0.179)" rx="2"/><text x="110.6" y="139.0" text-anchor="middle" font-size="10" fill="#0F172A">-25.3%</text><rect x="131.2" y="114.0" width="39.2" height="40.0" fill="rgba(194,65,12,0.122)" rx="2"/><text x="151.7" y="139.0" text-anchor="middle" font-size="10" fill="#0F172A">-0.7%</text><rect x="172.3" y="114.0" width="39.2" height="40.0" fill="rgba(194,65,12,0.134)" rx="2"/><text x="192.9" y="139.0" text-anchor="middle" font-size="10" fill="#0F172A">-6.1%</text><rect x="213.5" y="114.0" width="39.2" height="40.0" fill="rgba(21,128,61,0.428)" rx="2"/><text x="234.0" y="139.0" text-anchor="middle" font-size="10" fill="#0F172A">132.8%</text><rect x="254.6" y="114.0" width="39.2" height="40.0" fill="rgba(194,65,12,0.123)" rx="2"/><text x="275.2" y="139.0" text-anchor="middle" font-size="10" fill="#0F172A">-1.5%</text><rect x="295.8" y="114.0" width="39.2" height="40.0" fill="rgba(21,128,61,0.145)" rx="2"/><text x="316.3" y="139.0" text-anchor="middle" font-size="10" fill="#0F172A">10.6%</text><rect x="336.9" y="114.0" width="39.2" height="40.0" fill="rgba(21,128,61,0.158)" rx="2"/><text x="357.5" y="139.0" text-anchor="middle" font-size="10" fill="#0F172A">16.2%</text><rect x="378.1" y="114.0" width="39.2" height="40.0" fill="rgba(21,128,61,0.167)" rx="2"/><text x="398.7" y="139.0" text-anchor="middle" font-size="10" fill="#0F172A">20.3%</text><rect x="419.2" y="114.0" width="39.2" height="40.0" fill="rgba(194,65,12,0.137)" rx="2"/><text x="439.8" y="139.0" text-anchor="middle" font-size="10" fill="#0F172A">-7.5%</text><rect x="460.4" y="114.0" width="39.2" height="40.0" fill="rgba(194,65,12,0.195)" rx="2"/><text x="481.0" y="139.0" text-anchor="middle" font-size="10" fill="#0F172A">-32.3%</text><rect x="501.5" y="114.0" width="39.2" height="40.0" fill="rgba(21,128,61,0.172)" rx="2"/><text x="522.1" y="139.0" text-anchor="middle" font-size="10" fill="#0F172A">22.3%</text><rect x="542.7" y="114.0" width="39.2" height="40.0" fill="rgba(194,65,12,0.141)" rx="2"/><text x="563.3" y="139.0" text-anchor="middle" font-size="10" fill="#0F172A">-9.0%</text><rect x="583.8" y="114.0" width="39.2" height="40.0" fill="rgba(21,128,61,0.158)" rx="2"/><text x="604.4" y="139.0" text-anchor="middle" font-size="10" fill="#0F172A">16.3%</text><rect x="625.0" y="114.0" width="39.2" height="40.0" fill="rgba(194,65,12,0.133)" rx="2"/><text x="645.6" y="139.0" text-anchor="middle" font-size="10" fill="#0F172A">-5.4%</text><rect x="666.2" y="114.0" width="39.2" height="40.0" fill="rgba(21,128,61,0.141)" rx="2"/><text x="686.7" y="139.0" text-anchor="middle" font-size="10" fill="#0F172A">9.0%</text><rect x="707.3" y="114.0" width="39.2" height="40.0" fill="rgba(194,65,12,0.126)" rx="2"/><text x="727.9" y="139.0" text-anchor="middle" font-size="10" fill="#0F172A">-2.4%</text><rect x="748.5" y="114.0" width="39.2" height="40.0" fill="rgba(21,128,61,0.132)" rx="2"/><text x="769.0" y="139.0" text-anchor="middle" font-size="10" fill="#0F172A">5.2%</text><rect x="789.6" y="114.0" width="39.2" height="40.0" fill="rgba(21,128,61,0.123)" rx="2"/><text x="810.2" y="139.0" text-anchor="middle" font-size="10" fill="#0F172A">1.2%</text><rect x="830.8" y="114.0" width="39.2" height="40.0" fill="rgba(21,128,61,0.133)" rx="2"/><text x="851.3" y="139.0" text-anchor="middle" font-size="10" fill="#0F172A">5.7%</text><rect x="871.9" y="114.0" width="39.2" height="40.0" fill="rgba(21,128,61,0.153)" rx="2"/><text x="892.5" y="139.0" text-anchor="middle" font-size="10" fill="#0F172A">14.2%</text><rect x="913.1" y="114.0" width="39.2" height="40.0" fill="rgba(21,128,61,0.180)" rx="2"/><text x="933.7" y="139.0" text-anchor="middle" font-size="10" fill="#0F172A">26.0%</text><rect x="954.2" y="114.0" width="39.2" height="40.0" fill="rgba(194,65,12,0.132)" rx="2"/><text x="974.8" y="139.0" text-anchor="middle" font-size="10" fill="#0F172A">-5.2%</text><rect x="995.4" y="114.0" width="39.2" height="40.0" fill="rgba(21,128,61,0.156)" rx="2"/><text x="1016.0" y="139.0" text-anchor="middle" font-size="10" fill="#0F172A">15.3%</text><rect x="1036.5" y="114.0" width="39.2" height="40.0" fill="rgba(21,128,61,0.136)" rx="2"/><text x="1057.1" y="139.0" text-anchor="middle" font-size="10" fill="#0F172A">6.9%</text><rect x="1077.7" y="114.0" width="39.2" height="40.0" fill="rgba(194,65,12,0.168)" rx="2"/><text x="1098.3" y="139.0" text-anchor="middle" font-size="10" fill="#0F172A">-20.7%</text><rect x="1118.8" y="114.0" width="39.2" height="40.0" fill="rgba(194,65,12,0.164)" rx="2"/><text x="1139.4" y="139.0" text-anchor="middle" font-size="10" fill="#0F172A">-19.0%</text><text x="80" y="181.0" text-anchor="end" font-size="11" fill="#0F172A">P3</text><rect x="90.0" y="156.0" width="39.2" height="40.0" fill="rgba(194,65,12,0.179)" rx="2"/><text x="110.6" y="181.0" text-anchor="middle" font-size="10" fill="#0F172A">-25.3%</text><rect x="131.2" y="156.0" width="39.2" height="40.0" fill="rgba(194,65,12,0.122)" rx="2"/><text x="151.7" y="181.0" text-anchor="middle" font-size="10" fill="#0F172A">-0.7%</text><rect x="172.3" y="156.0" width="39.2" height="40.0" fill="rgba(194,65,12,0.146)" rx="2"/><text x="192.9" y="181.0" text-anchor="middle" font-size="10" fill="#0F172A">-11.1%</text><rect x="213.5" y="156.0" width="39.2" height="40.0" fill="rgba(21,128,61,0.428)" rx="2"/><text x="234.0" y="181.0" text-anchor="middle" font-size="10" fill="#0F172A">132.8%</text><rect x="254.6" y="156.0" width="39.2" height="40.0" fill="rgba(194,65,12,0.147)" rx="2"/><text x="275.2" y="181.0" text-anchor="middle" font-size="10" fill="#0F172A">-11.8%</text><rect x="295.8" y="156.0" width="39.2" height="40.0" fill="rgba(21,128,61,0.146)" rx="2"/><text x="316.3" y="181.0" text-anchor="middle" font-size="10" fill="#0F172A">11.1%</text><rect x="336.9" y="156.0" width="39.2" height="40.0" fill="rgba(21,128,61,0.160)" rx="2"/><text x="357.5" y="181.0" text-anchor="middle" font-size="10" fill="#0F172A">17.4%</text><rect x="378.1" y="156.0" width="39.2" height="40.0" fill="rgba(21,128,61,0.159)" rx="2"/><text x="398.7" y="181.0" text-anchor="middle" font-size="10" fill="#0F172A">17.0%</text><rect x="419.2" y="156.0" width="39.2" height="40.0" fill="rgba(194,65,12,0.137)" rx="2"/><text x="439.8" y="181.0" text-anchor="middle" font-size="10" fill="#0F172A">-7.5%</text><rect x="460.4" y="156.0" width="39.2" height="40.0" fill="rgba(194,65,12,0.195)" rx="2"/><text x="481.0" y="181.0" text-anchor="middle" font-size="10" fill="#0F172A">-32.3%</text><rect x="501.5" y="156.0" width="39.2" height="40.0" fill="rgba(21,128,61,0.172)" rx="2"/><text x="522.1" y="181.0" text-anchor="middle" font-size="10" fill="#0F172A">22.3%</text><rect x="542.7" y="156.0" width="39.2" height="40.0" fill="rgba(194,65,12,0.141)" rx="2"/><text x="563.3" y="181.0" text-anchor="middle" font-size="10" fill="#0F172A">-9.1%</text><rect x="583.8" y="156.0" width="39.2" height="40.0" fill="rgba(21,128,61,0.156)" rx="2"/><text x="604.4" y="181.0" text-anchor="middle" font-size="10" fill="#0F172A">15.7%</text><rect x="625.0" y="156.0" width="39.2" height="40.0" fill="rgba(194,65,12,0.137)" rx="2"/><text x="645.6" y="181.0" text-anchor="middle" font-size="10" fill="#0F172A">-7.3%</text><rect x="666.2" y="156.0" width="39.2" height="40.0" fill="rgba(21,128,61,0.140)" rx="2"/><text x="686.7" y="181.0" text-anchor="middle" font-size="10" fill="#0F172A">8.6%</text><rect x="707.3" y="156.0" width="39.2" height="40.0" fill="rgba(194,65,12,0.128)" rx="2"/><text x="727.9" y="181.0" text-anchor="middle" font-size="10" fill="#0F172A">-3.4%</text><rect x="748.5" y="156.0" width="39.2" height="40.0" fill="rgba(21,128,61,0.134)" rx="2"/><text x="769.0" y="181.0" text-anchor="middle" font-size="10" fill="#0F172A">5.9%</text><rect x="789.6" y="156.0" width="39.2" height="40.0" fill="rgba(21,128,61,0.122)" rx="2"/><text x="810.2" y="181.0" text-anchor="middle" font-size="10" fill="#0F172A">0.9%</text><rect x="830.8" y="156.0" width="39.2" height="40.0" fill="rgba(21,128,61,0.128)" rx="2"/><text x="851.3" y="181.0" text-anchor="middle" font-size="10" fill="#0F172A">3.4%</text><rect x="871.9" y="156.0" width="39.2" height="40.0" fill="rgba(21,128,61,0.153)" rx="2"/><text x="892.5" y="181.0" text-anchor="middle" font-size="10" fill="#0F172A">14.2%</text><rect x="913.1" y="156.0" width="39.2" height="40.0" fill="rgba(21,128,61,0.181)" rx="2"/><text x="933.7" y="181.0" text-anchor="middle" font-size="10" fill="#0F172A">26.3%</text><rect x="954.2" y="156.0" width="39.2" height="40.0" fill="rgba(194,65,12,0.134)" rx="2"/><text x="974.8" y="181.0" text-anchor="middle" font-size="10" fill="#0F172A">-6.0%</text><rect x="995.4" y="156.0" width="39.2" height="40.0" fill="rgba(21,128,61,0.173)" rx="2"/><text x="1016.0" y="181.0" text-anchor="middle" font-size="10" fill="#0F172A">22.8%</text><rect x="1036.5" y="156.0" width="39.2" height="40.0" fill="rgba(194,65,12,0.130)" rx="2"/><text x="1057.1" y="181.0" text-anchor="middle" font-size="10" fill="#0F172A">-4.5%</text><rect x="1077.7" y="156.0" width="39.2" height="40.0" fill="rgba(194,65,12,0.169)" rx="2"/><text x="1098.3" y="181.0" text-anchor="middle" font-size="10" fill="#0F172A">-21.1%</text><rect x="1118.8" y="156.0" width="39.2" height="40.0" fill="rgba(194,65,12,0.164)" rx="2"/><text x="1139.4" y="181.0" text-anchor="middle" font-size="10" fill="#0F172A">-19.0%</text><text x="80" y="223.0" text-anchor="end" font-size="11" fill="#0F172A">P4</text><rect x="90.0" y="198.0" width="39.2" height="40.0" fill="rgba(194,65,12,0.179)" rx="2"/><text x="110.6" y="223.0" text-anchor="middle" font-size="10" fill="#0F172A">-25.3%</text><rect x="131.2" y="198.0" width="39.2" height="40.0" fill="rgba(194,65,12,0.122)" rx="2"/><text x="151.7" y="223.0" text-anchor="middle" font-size="10" fill="#0F172A">-0.7%</text><rect x="172.3" y="198.0" width="39.2" height="40.0" fill="rgba(194,65,12,0.134)" rx="2"/><text x="192.9" y="223.0" text-anchor="middle" font-size="10" fill="#0F172A">-6.1%</text><rect x="213.5" y="198.0" width="39.2" height="40.0" fill="rgba(21,128,61,0.428)" rx="2"/><text x="234.0" y="223.0" text-anchor="middle" font-size="10" fill="#0F172A">132.8%</text><rect x="254.6" y="198.0" width="39.2" height="40.0" fill="rgba(194,65,12,0.147)" rx="2"/><text x="275.2" y="223.0" text-anchor="middle" font-size="10" fill="#0F172A">-11.8%</text><rect x="295.8" y="198.0" width="39.2" height="40.0" fill="rgba(21,128,61,0.145)" rx="2"/><text x="316.3" y="223.0" text-anchor="middle" font-size="10" fill="#0F172A">10.6%</text><rect x="336.9" y="198.0" width="39.2" height="40.0" fill="rgba(21,128,61,0.167)" rx="2"/><text x="357.5" y="223.0" text-anchor="middle" font-size="10" fill="#0F172A">20.2%</text><rect x="378.1" y="198.0" width="39.2" height="40.0" fill="rgba(21,128,61,0.167)" rx="2"/><text x="398.7" y="223.0" text-anchor="middle" font-size="10" fill="#0F172A">20.3%</text><rect x="419.2" y="198.0" width="39.2" height="40.0" fill="rgba(194,65,12,0.137)" rx="2"/><text x="439.8" y="223.0" text-anchor="middle" font-size="10" fill="#0F172A">-7.5%</text><rect x="460.4" y="198.0" width="39.2" height="40.0" fill="rgba(194,65,12,0.195)" rx="2"/><text x="481.0" y="223.0" text-anchor="middle" font-size="10" fill="#0F172A">-32.3%</text><rect x="501.5" y="198.0" width="39.2" height="40.0" fill="rgba(21,128,61,0.172)" rx="2"/><text x="522.1" y="223.0" text-anchor="middle" font-size="10" fill="#0F172A">22.3%</text><rect x="542.7" y="198.0" width="39.2" height="40.0" fill="rgba(194,65,12,0.141)" rx="2"/><text x="563.3" y="223.0" text-anchor="middle" font-size="10" fill="#0F172A">-9.0%</text><rect x="583.8" y="198.0" width="39.2" height="40.0" fill="rgba(21,128,61,0.158)" rx="2"/><text x="604.4" y="223.0" text-anchor="middle" font-size="10" fill="#0F172A">16.4%</text><rect x="625.0" y="198.0" width="39.2" height="40.0" fill="rgba(194,65,12,0.131)" rx="2"/><text x="645.6" y="223.0" text-anchor="middle" font-size="10" fill="#0F172A">-4.9%</text><rect x="666.2" y="198.0" width="39.2" height="40.0" fill="rgba(21,128,61,0.141)" rx="2"/><text x="686.7" y="223.0" text-anchor="middle" font-size="10" fill="#0F172A">9.1%</text><rect x="707.3" y="198.0" width="39.2" height="40.0" fill="rgba(194,65,12,0.126)" rx="2"/><text x="727.9" y="223.0" text-anchor="middle" font-size="10" fill="#0F172A">-2.5%</text><rect x="748.5" y="198.0" width="39.2" height="40.0" fill="rgba(21,128,61,0.133)" rx="2"/><text x="769.0" y="223.0" text-anchor="middle" font-size="10" fill="#0F172A">5.5%</text><rect x="789.6" y="198.0" width="39.2" height="40.0" fill="rgba(21,128,61,0.122)" rx="2"/><text x="810.2" y="223.0" text-anchor="middle" font-size="10" fill="#0F172A">1.0%</text><rect x="830.8" y="198.0" width="39.2" height="40.0" fill="rgba(21,128,61,0.129)" rx="2"/><text x="851.3" y="223.0" text-anchor="middle" font-size="10" fill="#0F172A">4.0%</text><rect x="871.9" y="198.0" width="39.2" height="40.0" fill="rgba(21,128,61,0.153)" rx="2"/><text x="892.5" y="223.0" text-anchor="middle" font-size="10" fill="#0F172A">14.2%</text><rect x="913.1" y="198.0" width="39.2" height="40.0" fill="rgba(21,128,61,0.180)" rx="2"/><text x="933.7" y="223.0" text-anchor="middle" font-size="10" fill="#0F172A">26.0%</text><rect x="954.2" y="198.0" width="39.2" height="40.0" fill="rgba(194,65,12,0.133)" rx="2"/><text x="974.8" y="223.0" text-anchor="middle" font-size="10" fill="#0F172A">-5.5%</text><rect x="995.4" y="198.0" width="39.2" height="40.0" fill="rgba(21,128,61,0.155)" rx="2"/><text x="1016.0" y="223.0" text-anchor="middle" font-size="10" fill="#0F172A">15.2%</text><rect x="1036.5" y="198.0" width="39.2" height="40.0" fill="rgba(194,65,12,0.137)" rx="2"/><text x="1057.1" y="223.0" text-anchor="middle" font-size="10" fill="#0F172A">-7.5%</text><rect x="1077.7" y="198.0" width="39.2" height="40.0" fill="rgba(194,65,12,0.168)" rx="2"/><text x="1098.3" y="223.0" text-anchor="middle" font-size="10" fill="#0F172A">-20.7%</text><rect x="1118.8" y="198.0" width="39.2" height="40.0" fill="rgba(194,65,12,0.164)" rx="2"/><text x="1139.4" y="223.0" text-anchor="middle" font-size="10" fill="#0F172A">-19.0%</text><text x="80" y="265.0" text-anchor="end" font-size="11" fill="#0F172A">P5</text><rect x="90.0" y="240.0" width="39.2" height="40.0" fill="rgba(194,65,12,0.176)" rx="2"/><text x="110.6" y="265.0" text-anchor="middle" font-size="10" fill="#0F172A">-24.0%</text><rect x="131.2" y="240.0" width="39.2" height="40.0" fill="rgba(21,128,61,0.120)" rx="2"/><text x="151.7" y="265.0" text-anchor="middle" font-size="10" fill="#0F172A">0.0%</text><rect x="172.3" y="240.0" width="39.2" height="40.0" fill="rgba(21,128,61,0.770)" rx="2"/><text x="192.9" y="265.0" text-anchor="middle" font-size="10" fill="#0F172A">280.0%</text><rect x="213.5" y="240.0" width="39.2" height="40.0" fill="rgba(21,128,61,0.120)" rx="2"/><text x="234.0" y="265.0" text-anchor="middle" font-size="10" fill="#0F172A">0.0%</text><rect x="254.6" y="240.0" width="39.2" height="40.0" fill="rgba(21,128,61,0.120)" rx="2"/><text x="275.2" y="265.0" text-anchor="middle" font-size="10" fill="#0F172A">0.0%</text><rect x="295.8" y="240.0" width="39.2" height="40.0" fill="rgba(21,128,61,0.144)" rx="2"/><text x="316.3" y="265.0" text-anchor="middle" font-size="10" fill="#0F172A">10.5%</text><rect x="336.9" y="240.0" width="39.2" height="40.0" fill="rgba(21,128,61,0.140)" rx="2"/><text x="357.5" y="265.0" text-anchor="middle" font-size="10" fill="#0F172A">8.7%</text><rect x="378.1" y="240.0" width="39.2" height="40.0" fill="rgba(21,128,61,0.138)" rx="2"/><text x="398.7" y="265.0" text-anchor="middle" font-size="10" fill="#0F172A">7.9%</text><rect x="419.2" y="240.0" width="39.2" height="40.0" fill="rgba(194,65,12,0.247)" rx="2"/><text x="439.8" y="265.0" text-anchor="middle" font-size="10" fill="#0F172A">-54.5%</text><rect x="460.4" y="240.0" width="39.2" height="40.0" fill="rgba(21,128,61,0.120)" rx="2"/><text x="481.0" y="265.0" text-anchor="middle" font-size="10" fill="#0F172A">0.0%</text><rect x="501.5" y="240.0" width="39.2" height="40.0" fill="rgba(21,128,61,0.172)" rx="2"/><text x="522.1" y="265.0" text-anchor="middle" font-size="10" fill="#0F172A">22.3%</text><rect x="542.7" y="240.0" width="39.2" height="40.0" fill="rgba(194,65,12,0.123)" rx="2"/><text x="563.3" y="265.0" text-anchor="middle" font-size="10" fill="#0F172A">-1.5%</text><rect x="583.8" y="240.0" width="39.2" height="40.0" fill="rgba(21,128,61,0.123)" rx="2"/><text x="604.4" y="265.0" text-anchor="middle" font-size="10" fill="#0F172A">1.4%</text><rect x="625.0" y="240.0" width="39.2" height="40.0" fill="rgba(21,128,61,0.146)" rx="2"/><text x="645.6" y="265.0" text-anchor="middle" font-size="10" fill="#0F172A">11.3%</text><rect x="666.2" y="240.0" width="39.2" height="40.0" fill="rgba(21,128,61,0.138)" rx="2"/><text x="686.7" y="265.0" text-anchor="middle" font-size="10" fill="#0F172A">8.0%</text><rect x="707.3" y="240.0" width="39.2" height="40.0" fill="rgba(21,128,61,0.147)" rx="2"/><text x="727.9" y="265.0" text-anchor="middle" font-size="10" fill="#0F172A">11.8%</text><rect x="748.5" y="240.0" width="39.2" height="40.0" fill="rgba(21,128,61,0.135)" rx="2"/><text x="769.0" y="265.0" text-anchor="middle" font-size="10" fill="#0F172A">6.4%</text><rect x="789.6" y="240.0" width="39.2" height="40.0" fill="rgba(21,128,61,0.124)" rx="2"/><text x="810.2" y="265.0" text-anchor="middle" font-size="10" fill="#0F172A">1.8%</text><rect x="830.8" y="240.0" width="39.2" height="40.0" fill="rgba(21,128,61,0.136)" rx="2"/><text x="851.3" y="265.0" text-anchor="middle" font-size="10" fill="#0F172A">6.9%</text><rect x="871.9" y="240.0" width="39.2" height="40.0" fill="rgba(21,128,61,0.125)" rx="2"/><text x="892.5" y="265.0" text-anchor="middle" font-size="10" fill="#0F172A">2.0%</text><rect x="913.1" y="240.0" width="39.2" height="40.0" fill="rgba(21,128,61,0.210)" rx="2"/><text x="933.7" y="265.0" text-anchor="middle" font-size="10" fill="#0F172A">38.6%</text><rect x="954.2" y="240.0" width="39.2" height="40.0" fill="rgba(194,65,12,0.154)" rx="2"/><text x="974.8" y="265.0" text-anchor="middle" font-size="10" fill="#0F172A">-14.8%</text><rect x="995.4" y="240.0" width="39.2" height="40.0" fill="rgba(194,65,12,0.142)" rx="2"/><text x="1016.0" y="265.0" text-anchor="middle" font-size="10" fill="#0F172A">-9.4%</text><rect x="1036.5" y="240.0" width="39.2" height="40.0" fill="rgba(194,65,12,0.156)" rx="2"/><text x="1057.1" y="265.0" text-anchor="middle" font-size="10" fill="#0F172A">-15.4%</text><rect x="1077.7" y="240.0" width="39.2" height="40.0" fill="rgba(194,65,12,0.167)" rx="2"/><text x="1098.3" y="265.0" text-anchor="middle" font-size="10" fill="#0F172A">-20.4%</text><rect x="1118.8" y="240.0" width="39.2" height="40.0" fill="rgba(21,128,61,0.120)" rx="2"/><text x="1139.4" y="265.0" text-anchor="middle" font-size="10" fill="#0F172A">0.0%</text>
    <text x="110.6" y="310" text-anchor="middle" font-size="10" fill="#334155">19-02</text><text x="151.7" y="310" text-anchor="middle" font-size="10" fill="#334155">19-05</text><text x="192.9" y="310" text-anchor="middle" font-size="10" fill="#334155">19-08</text><text x="234.0" y="310" text-anchor="middle" font-size="10" fill="#334155">19-10</text><text x="275.2" y="310" text-anchor="middle" font-size="10" fill="#334155">20-02</text><text x="316.3" y="310" text-anchor="middle" font-size="10" fill="#334155">20-05</text><text x="357.5" y="310" text-anchor="middle" font-size="10" fill="#334155">20-08</text><text x="398.7" y="310" text-anchor="middle" font-size="10" fill="#334155">20-11</text><text x="439.8" y="310" text-anchor="middle" font-size="10" fill="#334155">21-05</text><text x="481.0" y="310" text-anchor="middle" font-size="10" fill="#334155">21-08</text><text x="522.1" y="310" text-anchor="middle" font-size="10" fill="#334155">22-10</text><text x="563.3" y="310" text-anchor="middle" font-size="10" fill="#334155">22-11</text><text x="604.4" y="310" text-anchor="middle" font-size="10" fill="#334155">22-12</text><text x="645.6" y="310" text-anchor="middle" font-size="10" fill="#334155">23-02</text><text x="686.7" y="310" text-anchor="middle" font-size="10" fill="#334155">23-05</text><text x="727.9" y="310" text-anchor="middle" font-size="10" fill="#334155">23-08</text><text x="769.0" y="310" text-anchor="middle" font-size="10" fill="#334155">23-11</text><text x="810.2" y="310" text-anchor="middle" font-size="10" fill="#334155">24-02</text><text x="851.3" y="310" text-anchor="middle" font-size="10" fill="#334155">24-05</text><text x="892.5" y="310" text-anchor="middle" font-size="10" fill="#334155">24-10</text><text x="933.7" y="310" text-anchor="middle" font-size="10" fill="#334155">24-11</text><text x="974.8" y="310" text-anchor="middle" font-size="10" fill="#334155">25-02</text><text x="1016.0" y="310" text-anchor="middle" font-size="10" fill="#334155">25-05</text><text x="1057.1" y="310" text-anchor="middle" font-size="10" fill="#334155">25-08</text><text x="1098.3" y="310" text-anchor="middle" font-size="10" fill="#334155">25-11</text><text x="1139.4" y="310" text-anchor="middle" font-size="10" fill="#334155">26-02</text>
    </svg>