<svg xmlns="http://www.w3.org/2000/svg" width="860" height="460" viewBox="0 0 860 460">
    <rect width="860" height="460" fill="white"/>
    <text x="74" y="30" font-size="22" font-weight="700" fill="#0F172A">Risk Profile</text>
    <text x="74" y="50" font-size="12" fill="#334155">The strategies are not just losing; several are also carrying heavy drawdowns and volatility.</text>
    <line x1="74" y1="368.0" x2="836" y2="368.0" stroke="#E2E8F0" stroke-width="1"/><text x="64" y="372.0" text-anchor="end" font-size="11" fill="#334155">0.0%</text><line x1="74" y1="292.0" x2="836" y2="292.0" stroke="#E2E8F0" stroke-width="1"/><text x="64" y="296.0" text-anchor="end" font-size="11" fill="#334155">23.7%</text><line x1="74" y1="216.0" x2="836" y2="216.0" stroke="#E2E8F0" stroke-width="1"/><text x="64" y="220.0" text-anchor="end" font-size="11" fill="#334155">47.4%</text><line x1="74" y1="140.0" x2="836" y2="140.0" stroke="#E2E8F0" stroke-width="1"/><text x="64" y="144.0" text-anchor="end" font-size="11" fill="#334155">71.1%</text><line x1="74" y1="64.0" x2="836" y2="64.0" stroke="#E2E8F0" stroke-width="1"/><text x="64" y="68.0" text-anchor="end" font-size="11" fill="#334155">94.8%</text><line x1="74" y1="368.0" x2="836" y2="368.0" stroke="#334155" stroke-width="1.2"/>
    <rect x="84.0" y="174.4" width="24.0" height="193.6" fill="#0A7C86" rx="3"/><rect x="112.0" y="64.0" width="24.0" height="304.0" fill="#C2410C" rx="3"/><text x="150.2" y="422" text-anchor="middle" font-size="10.5" fill="#334155">P1</text><rect x="236.4" y="252.5" width="24.0" height="115.5" fill="#0A7C86" rx="3"/><rect x="264.4" y="168.6" width="24.0" height="199.4" fill="#C2410C" rx="3"/><text x="302.6" y="422" text-anchor="middle" font-size="10.5" fill="#334155">P2</text><rect x="388.8" y="244.8" width="24.0" height="123.2" fill="#0A7C86" rx="3"/><rect x="416.8" y="158.4" width="24.0" height="209.6" fill="#C2410C" rx="3"/><text x="455.0" y="422" text-anchor="middle" font-size="10.5" fill="#334155">P3</text><rect x="541.2" y="245.9" width="24.0" height="122.1" fill="#0A7C86" rx="3"/><rect x="569.2" y="158.4" width="24.0" height="209.6" fill="#C2410C" rx="3"/><text x="607.4" y="422" text-anchor="middle" font-size="10.5" fill="#334155">P4</text><rect x="693.6" y="245.3" width="24.0" height="122.7" fill="#0A7C86" rx="3"/><rect x="721.6" y="167.2" width="24.0" height="200.8" fill="#C2410C" rx="3"/><text x="759.8" y="422" text-anchor="middle" font-size="10.5" fill="#334155">P5</text>
    <rect x="74" y="444" width="12" height="12" fill="#0A7C86" rx="2"/><text x="92" y="454" font-size="11" fill="#334155">Annual volatility</text><rect x="244" y="444" width="12" height="12" fill="#C2410C" rx="2"/><text x="262" y="454" font-size="11" fill="#334155">Absolute max drawdown</text>
    </svg>