<svg xmlns="http://www.w3.org/2000/svg" width="860" height="460" viewBox="0 0 860 460">
    <rect width="860" height="460" fill="white"/>
    <text x="74" y="30" font-size="22" font-weight="700" fill="#0F172A">Total Return and CAGR</text>
    <text x="74" y="50" font-size="12" fill="#334155">After the split-adjusted rerun and same-day bundle fix, `P2` through `P5` are positive in absolute terms while `P1` remains negative.</text>
    <line x1="74" y1="368.0" x2="836" y2="368.0" stroke="#E2E8F0" stroke-width="1"/><text x="64" y="372.0" text-anchor="end" font-size="11" fill="#334155">-75.8%</text><line x1="74" y1="292.0" x2="836" y2="292.0" stroke="#E2E8F0" stroke-width="1"/><text x="64" y="296.0" text-anchor="end" font-size="11" fill="#334155">-26.3%</text><line x1="74" y1="216.0" x2="836" y2="216.0" stroke="#E2E8F0" stroke-width="1"/><text x="64" y="220.0" text-anchor="end" font-size="11" fill="#334155">23.2%</text><line x1="74" y1="140.0" x2="836" y2="140.0" stroke="#E2E8F0" stroke-width="1"/><text x="64" y="144.0" text-anchor="end" font-size="11" fill="#334155">72.7%</text><line x1="74" y1="64.0" x2="836" y2="64.0" stroke="#E2E8F0" stroke-width="1"/><text x="64" y="68.0" text-anchor="end" font-size="11" fill="#334155">122.3%</text><line x1="74" y1="251.7" x2="836" y2="251.7" stroke="#334155" stroke-width="1.2"/>
    <rect x="84.0" y="251.7" width="24.0" height="116.3" fill="#0B5FFF" rx="3"/><rect x="112.0" y="251.7" width="24.0" height="31.0" fill="#D97706" rx="3"/><text x="150.2" y="422" text-anchor="middle" font-size="10.5" fill="#334155">P1</text><rect x="236.4" y="64.0" width="24.0" height="187.7" fill="#0B5FFF" rx="3"/><rect x="264.4" y="233.8" width="24.0" height="17.9" fill="#D97706" rx="3"/><text x="302.6" y="422" text-anchor="middle" font-size="10.5" fill="#334155">P2</text><rect x="388.8" y="146.3" width="24.0" height="105.4" fill="#0B5FFF" rx="3"/><rect x="416.8" y="240.2" width="24.0" height="11.5" fill="#D97706" rx="3"/><text x="455.0" y="422" text-anchor="middle" font-size="10.5" fill="#334155">P3</text><rect x="541.2" y="131.8" width="24.0" height="119.9" fill="#0B5FFF" rx="3"/><rect x="569.2" y="239.0" width="24.0" height="12.7" fill="#D97706" rx="3"/><text x="607.4" y="422" text-anchor="middle" font-size="10.5" fill="#334155">P4</text><rect x="693.6" y="176.5" width="24.0" height="75.1" fill="#0B5FFF" rx="3"/><rect x="721.6" y="243.0" width="24.0" height="8.7" fill="#D97706" rx="3"/><text x="759.8" y="422" text-anchor="middle" font-size="10.5" fill="#334155">P5</text>
    <rect x="74" y="444" width="12" height="12" fill="#0B5FFF" rx="2"/><text x="92" y="454" font-size="11" fill="#334155">Total return</text><rect x="244" y="444" width="12" height="12" fill="#D97706" rx="2"/><text x="262" y="454" font-size="11" fill="#334155">CAGR</text>
    </svg>