<svg xmlns="http://www.w3.org/2000/svg" width="1180" height="470" viewBox="0 0 1180 470">
    <rect width="1180" height="470" fill="white"/>
    <text x="74" y="30" font-size="22" font-weight="700" fill="#0F172A">Turnover by Rebalance Window</text>
    <text x="74" y="50" font-size="12" fill="#334155">P1 rotates aggressively into a small set of names; P2-P4 trade a much broader disclosed sleeve.</text>
    <line x1="74" y1="378.0" x2="1156" y2="378.0" stroke="#E2E8F0" stroke-width="1"/><text x="64" y="382.0" text-anchor="end" font-size="11" fill="#334155">0</text><line x1="74" y1="299.5" x2="1156" y2="299.5" stroke="#E2E8F0" stroke-width="1"/><text x="64" y="303.5" text-anchor="end" font-size="11" fill="#334155">24</text><line x1="74" y1="221.0" x2="1156" y2="221.0" stroke="#E2E8F0" stroke-width="1"/><text x="64" y="225.0" text-anchor="end" font-size="11" fill="#334155">49</text><line x1="74" y1="142.5" x2="1156" y2="142.5" stroke="#E2E8F0" stroke-width="1"/><text x="64" y="146.5" text-anchor="end" font-size="11" fill="#334155">73</text><line x1="74" y1="64.0" x2="1156" y2="64.0" stroke="#E2E8F0" stroke-width="1"/><text x="64" y="68.0" text-anchor="end" font-size="11" fill="#334155">98</text><line x1="74" y1="378.0" x2="1156" y2="378.0" stroke="#334155" stroke-width="1.2"/>
    <rect x="84.0" y="378.0" width="6.9" height="0.0" fill="#C2410C" rx="3"/><rect x="94.9" y="374.8" width="6.9" height="3.2" fill="#0B5FFF" rx="3"/><rect x="105.9" y="374.8" width="6.9" height="3.2" fill="#15803D" rx="3"/><rect x="116.8" y="374.8" width="6.9" height="3.2" fill="#7C3AED" rx="3"/><rect x="127.7" y="374.8" width="6.9" height="3.2" fill="#BE185D" rx="3"/><text x="94.8" y="432" text-anchor="middle" font-size="10.5" fill="#334155">19-02</text><rect x="125.6" y="378.0" width="6.9" height="0.0" fill="#C2410C" rx="3"/><rect x="136.6" y="371.6" width="6.9" height="6.4" fill="#0B5FFF" rx="3"/><rect x="147.5" y="371.6" width="6.9" height="6.4" fill="#15803D" rx="3"/><rect x="158.4" y="371.6" width="6.9" height="6.4" fill="#7C3AED" rx="3"/><rect x="169.4" y="378.0" width="6.9" height="0.0" fill="#BE185D" rx="3"/><rect x="167.2" y="374.8" width="6.9" height="3.2" fill="#C2410C" rx="3"/><rect x="178.2" y="368.4" width="6.9" height="9.6" fill="#0B5FFF" rx="3"/><rect x="189.1" y="368.4" width="6.9" height="9.6" fill="#15803D" rx="3"/><rect x="200.0" y="368.4" width="6.9" height="9.6" fill="#7C3AED" rx="3"/><rect x="211.0" y="378.0" width="6.9" height="0.0" fill="#BE185D" rx="3"/><rect x="208.8" y="378.0" width="6.9" height="0.0" fill="#C2410C" rx="3"/><rect x="219.8" y="365.2" width="6.9" height="12.8" fill="#0B5FFF" rx="3"/><rect x="230.7" y="365.2" width="6.9" height="12.8" fill="#15803D" rx="3"/><rect x="241.7" y="365.2" width="6.9" height="12.8" fill="#7C3AED" rx="3"/><rect x="252.6" y="378.0" width="6.9" height="0.0" fill="#BE185D" rx="3"/><text x="219.7" y="432" text-anchor="middle" font-size="10.5" fill="#334155">19-10</text><rect x="250.5" y="378.0" width="6.9" height="0.0" fill="#C2410C" rx="3"/><rect x="261.4" y="365.2" width="6.9" height="12.8" fill="#0B5FFF" rx="3"/><rect x="272.3" y="368.4" width="6.9" height="9.6" fill="#15803D" rx="3"/><rect x="283.3" y="368.4" width="6.9" height="9.6" fill="#7C3AED" rx="3"/><rect x="294.2" y="374.8" width="6.9" height="3.2" fill="#BE185D" rx="3"/><rect x="292.1" y="301.1" width="6.9" height="76.9" fill="#C2410C" rx="3"/><rect x="303.0" y="294.7" width="6.9" height="83.3" fill="#0B5FFF" rx="3"/><rect x="313.9" y="297.9" width="6.9" height="80.1" fill="#15803D" rx="3"/><rect x="324.9" y="297.9" width="6.9" height="80.1" fill="#7C3AED" rx="3"/><rect x="335.8" y="301.1" width="6.9" height="76.9" fill="#BE185D" rx="3"/><rect x="333.7" y="291.5" width="6.9" height="86.5" fill="#C2410C" rx="3"/><rect x="344.6" y="259.4" width="6.9" height="118.6" fill="#0B5FFF" rx="3"/><rect x="355.6" y="272.3" width="6.9" height="105.7" fill="#15803D" rx="3"/><rect x="366.5" y="272.3" width="6.9" height="105.7" fill="#7C3AED" rx="3"/><rect x="377.4" y="291.5" width="6.9" height="86.5" fill="#BE185D" rx="3"/><text x="344.5" y="432" text-anchor="middle" font-size="10.5" fill="#334155">20-08</text><rect x="375.3" y="362.0" width="6.9" height="16.0" fill="#C2410C" rx="3"/><rect x="386.2" y="313.9" width="6.9" height="64.1" fill="#0B5FFF" rx="3"/><rect x="397.2" y="326.7" width="6.9" height="51.3" fill="#15803D" rx="3"/><rect x="408.1" y="326.7" width="6.9" height="51.3" fill="#7C3AED" rx="3"/><rect x="419.1" y="352.4" width="6.9" height="25.6" fill="#BE185D" rx="3"/><rect x="416.9" y="339.6" width="6.9" height="38.4" fill="#C2410C" rx="3"/><rect x="427.9" y="320.3" width="6.9" height="57.7" fill="#0B5FFF" rx="3"/><rect x="438.8" y="320.3" width="6.9" height="57.7" fill="#15803D" rx="3"/><rect x="449.7" y="320.3" width="6.9" height="57.7" fill="#7C3AED" rx="3"/><rect x="460.7" y="323.5" width="6.9" height="54.5" fill="#BE185D" rx="3"/><rect x="458.5" y="378.0" width="6.9" height="0.0" fill="#C2410C" rx="3"/><rect x="469.5" y="307.5" width="6.9" height="70.5" fill="#0B5FFF" rx="3"/><rect x="480.4" y="307.5" width="6.9" height="70.5" fill="#15803D" rx="3"/><rect x="491.3" y="307.5" width="6.9" height="70.5" fill="#7C3AED" rx="3"/><rect x="502.3" y="378.0" width="6.9" height="0.0" fill="#BE185D" rx="3"/><text x="469.3" y="432" text-anchor="middle" font-size="10.5" fill="#334155">21-08</text><rect x="500.2" y="339.6" width="6.9" height="38.4" fill="#C2410C" rx="3"/><rect x="511.1" y="339.6" width="6.9" height="38.4" fill="#0B5FFF" rx="3"/><rect x="522.0" y="339.6" width="6.9" height="38.4" fill="#15803D" rx="3"/><rect x="533.0" y="339.6" width="6.9" height="38.4" fill="#7C3AED" rx="3"/><rect x="543.9" y="339.6" width="6.9" height="38.4" fill="#BE185D" rx="3"/><rect x="541.8" y="371.6" width="6.9" height="6.4" fill="#C2410C" rx="3"/><rect x="552.7" y="217.8" width="6.9" height="160.2" fill="#0B5FFF" rx="3"/><rect x="563.6" y="217.8" width="6.9" height="160.2" fill="#15803D" rx="3"/><rect x="574.6" y="217.8" width="6.9" height="160.2" fill="#7C3AED" rx="3"/><rect x="585.5" y="378.0" width="6.9" height="0.0" fill="#BE185D" rx="3"/><rect x="583.4" y="217.8" width="6.9" height="160.2" fill="#C2410C" rx="3"/><rect x="594.3" y="64.0" width="6.9" height="314.0" fill="#0B5FFF" rx="3"/><rect x="605.3" y="67.2" width="6.9" height="310.8" fill="#15803D" rx="3"/><rect x="616.2" y="67.2" width="6.9" height="310.8" fill="#7C3AED" rx="3"/><rect x="627.1" y="378.0" width="6.9" height="0.0" fill="#BE185D" rx="3"/><text x="594.2" y="432" text-anchor="middle" font-size="10.5" fill="#334155">22-12</text><rect x="625.0" y="217.8" width="6.9" height="160.2" fill="#C2410C" rx="3"/><rect x="635.9" y="67.2" width="6.9" height="310.8" fill="#0B5FFF" rx="3"/><rect x="646.9" y="73.6" width="6.9" height="304.4" fill="#15803D" rx="3"/><rect x="657.8" y="73.6" width="6.9" height="304.4" fill="#7C3AED" rx="3"/><rect x="668.7" y="378.0" width="6.9" height="0.0" fill="#BE185D" rx="3"/><rect x="666.6" y="365.2" width="6.9" height="12.8" fill="#C2410C" rx="3"/><rect x="677.6" y="70.4" width="6.9" height="307.6" fill="#0B5FFF" rx="3"/><rect x="688.5" y="80.0" width="6.9" height="298.0" fill="#15803D" rx="3"/><rect x="699.4" y="80.0" width="6.9" height="298.0" fill="#7C3AED" rx="3"/><rect x="710.4" y="365.2" width="6.9" height="12.8" fill="#BE185D" rx="3"/><rect x="708.2" y="378.0" width="6.9" height="0.0" fill="#C2410C" rx="3"/><rect x="719.2" y="73.6" width="6.9" height="304.4" fill="#0B5FFF" rx="3"/><rect x="730.1" y="83.2" width="6.9" height="294.8" fill="#15803D" rx="3"/><rect x="741.0" y="83.2" width="6.9" height="294.8" fill="#7C3AED" rx="3"/><rect x="752.0" y="378.0" width="6.9" height="0.0" fill="#BE185D" rx="3"/><text x="719.0" y="432" text-anchor="middle" font-size="10.5" fill="#334155">23-08</text><rect x="749.8" y="362.0" width="6.9" height="16.0" fill="#C2410C" rx="3"/><rect x="760.8" y="70.4" width="6.9" height="307.6" fill="#0B5FFF" rx="3"/><rect x="771.7" y="76.8" width="6.9" height="301.2" fill="#15803D" rx="3"/><rect x="782.7" y="76.8" width="6.9" height="301.2" fill="#7C3AED" rx="3"/><rect x="793.6" y="378.0" width="6.9" height="0.0" fill="#BE185D" rx="3"/><rect x="791.5" y="368.4" width="6.9" height="9.6" fill="#C2410C" rx="3"/><rect x="802.4" y="67.2" width="6.9" height="310.8" fill="#0B5FFF" rx="3"/><rect x="813.3" y="73.6" width="6.9" height="304.4" fill="#15803D" rx="3"/><rect x="824.3" y="73.6" width="6.9" height="304.4" fill="#7C3AED" rx="3"/><rect x="835.2" y="378.0" width="6.9" height="0.0" fill="#BE185D" rx="3"/><rect x="833.1" y="371.6" width="6.9" height="6.4" fill="#C2410C" rx="3"/><rect x="844.0" y="144.1" width="6.9" height="233.9" fill="#0B5FFF" rx="3"/><rect x="854.9" y="160.1" width="6.9" height="217.9" fill="#15803D" rx="3"/><rect x="865.9" y="160.1" width="6.9" height="217.9" fill="#7C3AED" rx="3"/><rect x="876.8" y="378.0" width="6.9" height="0.0" fill="#BE185D" rx="3"/><text x="843.9" y="432" text-anchor="middle" font-size="10.5" fill="#334155">24-05</text><rect x="874.7" y="371.6" width="6.9" height="6.4" fill="#C2410C" rx="3"/><rect x="885.6" y="294.7" width="6.9" height="83.3" fill="#0B5FFF" rx="3"/><rect x="896.6" y="307.5" width="6.9" height="70.5" fill="#15803D" rx="3"/><rect x="907.5" y="307.5" width="6.9" height="70.5" fill="#7C3AED" rx="3"/><rect x="918.4" y="365.2" width="6.9" height="12.8" fill="#BE185D" rx="3"/><rect x="916.3" y="294.7" width="6.9" height="83.3" fill="#C2410C" rx="3"/><rect x="927.2" y="291.5" width="6.9" height="86.5" fill="#0B5FFF" rx="3"/><rect x="938.2" y="291.5" width="6.9" height="86.5" fill="#15803D" rx="3"/><rect x="949.1" y="291.5" width="6.9" height="86.5" fill="#7C3AED" rx="3"/><rect x="960.1" y="297.9" width="6.9" height="80.1" fill="#BE185D" rx="3"/><rect x="957.9" y="294.7" width="6.9" height="83.3" fill="#C2410C" rx="3"/><rect x="968.9" y="211.4" width="6.9" height="166.6" fill="#0B5FFF" rx="3"/><rect x="979.8" y="214.6" width="6.9" height="163.4" fill="#15803D" rx="3"/><rect x="990.7" y="214.6" width="6.9" height="163.4" fill="#7C3AED" rx="3"/><rect x="1001.7" y="355.6" width="6.9" height="22.4" fill="#BE185D" rx="3"/><text x="968.7" y="432" text-anchor="middle" font-size="10.5" fill="#334155">25-02</text><rect x="999.5" y="368.4" width="6.9" height="9.6" fill="#C2410C" rx="3"/><rect x="1010.5" y="214.6" width="6.9" height="163.4" fill="#0B5FFF" rx="3"/><rect x="1021.4" y="224.2" width="6.9" height="153.8" fill="#15803D" rx="3"/><rect x="1032.3" y="224.2" width="6.9" height="153.8" fill="#7C3AED" rx="3"/><rect x="1043.3" y="342.8" width="6.9" height="35.2" fill="#BE185D" rx="3"/><rect x="1041.2" y="368.4" width="6.9" height="9.6" fill="#C2410C" rx="3"/><rect x="1052.1" y="253.0" width="6.9" height="125.0" fill="#0B5FFF" rx="3"/><rect x="1063.0" y="285.1" width="6.9" height="92.9" fill="#15803D" rx="3"/><rect x="1074.0" y="285.1" width="6.9" height="92.9" fill="#7C3AED" rx="3"/><rect x="1084.9" y="310.7" width="6.9" height="67.3" fill="#BE185D" rx="3"/><rect x="1082.8" y="378.0" width="6.9" height="0.0" fill="#C2410C" rx="3"/><rect x="1093.7" y="317.1" width="6.9" height="60.9" fill="#0B5FFF" rx="3"/><rect x="1104.6" y="342.8" width="6.9" height="35.2" fill="#15803D" rx="3"/><rect x="1115.6" y="342.8" width="6.9" height="35.2" fill="#7C3AED" rx="3"/><rect x="1126.5" y="342.8" width="6.9" height="35.2" fill="#BE185D" rx="3"/><text x="1093.6" y="432" text-anchor="middle" font-size="10.5" fill="#334155">25-11</text><rect x="1124.4" y="378.0" width="6.9" height="0.0" fill="#C2410C" rx="3"/><rect x="1135.3" y="349.2" width="6.9" height="28.8" fill="#0B5FFF" rx="3"/><rect x="1146.3" y="349.2" width="6.9" height="28.8" fill="#15803D" rx="3"/><rect x="1157.2" y="349.2" width="6.9" height="28.8" fill="#7C3AED" rx="3"/><rect x="1168.1" y="378.0" width="6.9" height="0.0" fill="#BE185D" rx="3"/><text x="1135.2" y="432" text-anchor="middle" font-size="10.5" fill="#334155">26-02</text>
    <rect x="74" y="454" width="12" height="12" fill="#C2410C" rx="2"/><text x="92" y="464" font-size="11" fill="#334155">P1</text><rect x="244" y="454" width="12" height="12" fill="#0B5FFF" rx="2"/><text x="262" y="464" font-size="11" fill="#334155">P2</text><rect x="414" y="454" width="12" height="12" fill="#15803D" rx="2"/><text x="432" y="464" font-size="11" fill="#334155">P3</text><rect x="584" y="454" width="12" height="12" fill="#7C3AED" rx="2"/><text x="602" y="464" font-size="11" fill="#334155">P4</text><rect x="754" y="454" width="12" height="12" fill="#BE185D" rx="2"/><text x="772" y="464" font-size="11" fill="#334155">P5</text>
    </svg>