<svg xmlns="http://www.w3.org/2000/svg" width="920" height="420" viewBox="0 0 920 420">
    <rect width="920" height="420" fill="white"/>
    <text x="72" y="28" font-size="22" font-weight="700" fill="#0F172A">PIF 13F Holdings Count</text>
    <text x="72" y="46" font-size="12" fill="#334155">Reported 13F positions per reporting period</text>
    <line x1="72" y1="348.0" x2="900" y2="348.0" stroke="#E2E8F0" stroke-width="1"/><text x="62" y="352.0" text-anchor="end" font-size="11" fill="#334155">1</text><line x1="72" y1="275.0" x2="900" y2="275.0" stroke="#E2E8F0" stroke-width="1"/><text x="62" y="279.0" text-anchor="end" font-size="11" fill="#334155">16</text><line x1="72" y1="202.0" x2="900" y2="202.0" stroke="#E2E8F0" stroke-width="1"/><text x="62" y="206.0" text-anchor="end" font-size="11" fill="#334155">32</text><line x1="72" y1="129.0" x2="900" y2="129.0" stroke="#E2E8F0" stroke-width="1"/><text x="62" y="133.0" text-anchor="end" font-size="11" fill="#334155">48</text><line x1="72" y1="56.0" x2="900" y2="56.0" stroke="#E2E8F0" stroke-width="1"/><text x="62" y="60.0" text-anchor="end" font-size="11" fill="#334155">64</text>
    <polyline fill="none" stroke="#0B5FFF" stroke-width="3" points="72.0,348.0 100.6,348.0 129.1,343.4 157.7,343.4 186.2,343.4 214.8,241.4 243.3,292.4 271.9,320.2 300.4,348.0 329.0,292.4 357.5,292.4 386.1,348.0 414.6,348.0 443.2,176.5 471.7,102.3 500.3,107.0 528.8,107.0 557.4,111.6 585.9,116.3 614.5,111.6 643.0,120.9 671.6,176.5 700.1,348.0 728.7,102.3 757.2,65.3 785.8,56.0 814.3,88.4 842.9,324.8 871.4,329.5 900.0,334.1" />
    <circle cx="72.0" cy="348.0" r="3.8" fill="#0B5FFF" /><circle cx="100.6" cy="348.0" r="3.8" fill="#0B5FFF" /><circle cx="129.1" cy="343.4" r="3.8" fill="#0B5FFF" /><circle cx="157.7" cy="343.4" r="3.8" fill="#0B5FFF" /><circle cx="186.2" cy="343.4" r="3.8" fill="#0B5FFF" /><circle cx="214.8" cy="241.4" r="3.8" fill="#0B5FFF" /><circle cx="243.3" cy="292.4" r="3.8" fill="#0B5FFF" /><circle cx="271.9" cy="320.2" r="3.8" fill="#0B5FFF" /><circle cx="300.4" cy="348.0" r="3.8" fill="#0B5FFF" /><circle cx="329.0" cy="292.4" r="3.8" fill="#0B5FFF" /><circle cx="357.5" cy="292.4" r="3.8" fill="#0B5FFF" /><circle cx="386.1" cy="348.0" r="3.8" fill="#0B5FFF" /><circle cx="414.6" cy="348.0" r="3.8" fill="#0B5FFF" /><circle cx="443.2" cy="176.5" r="3.8" fill="#0B5FFF" /><circle cx="471.7" cy="102.3" r="3.8" fill="#0B5FFF" /><circle cx="500.3" cy="107.0" r="3.8" fill="#0B5FFF" /><circle cx="528.8" cy="107.0" r="3.8" fill="#0B5FFF" /><circle cx="557.4" cy="111.6" r="3.8" fill="#0B5FFF" /><circle cx="585.9" cy="116.3" r="3.8" fill="#0B5FFF" /><circle cx="614.5" cy="111.6" r="3.8" fill="#0B5FFF" /><circle cx="643.0" cy="120.9" r="3.8" fill="#0B5FFF" /><circle cx="671.6" cy="176.5" r="3.8" fill="#0B5FFF" /><circle cx="700.1" cy="348.0" r="3.8" fill="#0B5FFF" /><circle cx="728.7" cy="102.3" r="3.8" fill="#0B5FFF" /><circle cx="757.2" cy="65.3" r="3.8" fill="#0B5FFF" /><circle cx="785.8" cy="56.0" r="3.8" fill="#0B5FFF" /><circle cx="814.3" cy="88.4" r="3.8" fill="#0B5FFF" /><circle cx="842.9" cy="324.8" r="3.8" fill="#0B5FFF" /><circle cx="871.4" cy="329.5" r="3.8" fill="#0B5FFF" /><circle cx="900.0" cy="334.1" r="3.8" fill="#0B5FFF" />
    <text x="72.0" y="392" text-anchor="middle" font-size="10.5" fill="#334155">18-12</text><text x="157.7" y="392" text-anchor="middle" font-size="10.5" fill="#334155">19-09</text><text x="243.3" y="392" text-anchor="middle" font-size="10.5" fill="#334155">20-06</text><text x="329.0" y="392" text-anchor="middle" font-size="10.5" fill="#334155">21-03</text><text x="414.6" y="392" text-anchor="middle" font-size="10.5" fill="#334155">21-12</text><text x="500.3" y="392" text-anchor="middle" font-size="10.5" fill="#334155">22-09</text><text x="585.9" y="392" text-anchor="middle" font-size="10.5" fill="#334155">23-06</text><text x="671.6" y="392" text-anchor="middle" font-size="10.5" fill="#334155">24-03</text><text x="757.2" y="392" text-anchor="middle" font-size="10.5" fill="#334155">24-12</text><text x="842.9" y="392" text-anchor="middle" font-size="10.5" fill="#334155">25-09</text><text x="900.0" y="392" text-anchor="middle" font-size="10.5" fill="#334155">26-03</text>
    </svg>