<svg xmlns="http://www.w3.org/2000/svg" width="920" height="420" viewBox="0 0 920 420">
    <rect width="920" height="420" fill="white"/>
    <text x="72" y="28" font-size="22" font-weight="700" fill="#0F172A">PIF 13F Total Market Value</text>
    <text x="72" y="46" font-size="12" fill="#334155">Aggregate reported market value of the US-reportable 13F sleeve</text>
    <line x1="72" y1="348.0" x2="900" y2="348.0" stroke="#E2E8F0" stroke-width="1"/><text x="62" y="352.0" text-anchor="end" font-size="11" fill="#334155">$0.0B</text><line x1="72" y1="275.0" x2="900" y2="275.0" stroke="#E2E8F0" stroke-width="1"/><text x="62" y="279.0" text-anchor="end" font-size="11" fill="#334155">$11.0B</text><line x1="72" y1="202.0" x2="900" y2="202.0" stroke="#E2E8F0" stroke-width="1"/><text x="62" y="206.0" text-anchor="end" font-size="11" fill="#334155">$22.0B</text><line x1="72" y1="129.0" x2="900" y2="129.0" stroke="#E2E8F0" stroke-width="1"/><text x="62" y="133.0" text-anchor="end" font-size="11" fill="#334155">$33.0B</text><line x1="72" y1="56.0" x2="900" y2="56.0" stroke="#E2E8F0" stroke-width="1"/><text x="62" y="60.0" text-anchor="end" font-size="11" fill="#334155">$44.0B</text>
    <polyline fill="none" stroke="#0A7C86" stroke-width="3" points="72.0,329.7 100.6,332.6 129.1,313.3 157.7,320.0 186.2,333.5 214.8,283.1 243.3,280.8 271.9,301.2 300.4,348.0 329.0,245.4 357.5,242.1 386.1,345.7 414.6,345.2 443.2,56.0 471.7,74.6 500.3,103.5 528.8,142.5 557.4,112.1 585.9,89.4 614.5,105.7 643.0,113.9 671.6,211.5 700.1,347.6 728.7,170.3 757.2,170.2 785.8,178.3 814.3,189.8 842.9,219.3 871.4,262.0 900.0,268.3" />
    <circle cx="72.0" cy="329.7" r="3.8" fill="#0A7C86" /><circle cx="100.6" cy="332.6" r="3.8" fill="#0A7C86" /><circle cx="129.1" cy="313.3" r="3.8" fill="#0A7C86" /><circle cx="157.7" cy="320.0" r="3.8" fill="#0A7C86" /><circle cx="186.2" cy="333.5" r="3.8" fill="#0A7C86" /><circle cx="214.8" cy="283.1" r="3.8" fill="#0A7C86" /><circle cx="243.3" cy="280.8" r="3.8" fill="#0A7C86" /><circle cx="271.9" cy="301.2" r="3.8" fill="#0A7C86" /><circle cx="300.4" cy="348.0" r="3.8" fill="#0A7C86" /><circle cx="329.0" cy="245.4" r="3.8" fill="#0A7C86" /><circle cx="357.5" cy="242.1" r="3.8" fill="#0A7C86" /><circle cx="386.1" cy="345.7" r="3.8" fill="#0A7C86" /><circle cx="414.6" cy="345.2" r="3.8" fill="#0A7C86" /><circle cx="443.2" cy="56.0" r="3.8" fill="#0A7C86" /><circle cx="471.7" cy="74.6" r="3.8" fill="#0A7C86" /><circle cx="500.3" cy="103.5" r="3.8" fill="#0A7C86" /><circle cx="528.8" cy="142.5" r="3.8" fill="#0A7C86" /><circle cx="557.4" cy="112.1" r="3.8" fill="#0A7C86" /><circle cx="585.9" cy="89.4" r="3.8" fill="#0A7C86" /><circle cx="614.5" cy="105.7" r="3.8" fill="#0A7C86" /><circle cx="643.0" cy="113.9" r="3.8" fill="#0A7C86" /><circle cx="671.6" cy="211.5" r="3.8" fill="#0A7C86" /><circle cx="700.1" cy="347.6" r="3.8" fill="#0A7C86" /><circle cx="728.7" cy="170.3" r="3.8" fill="#0A7C86" /><circle cx="757.2" cy="170.2" r="3.8" fill="#0A7C86" /><circle cx="785.8" cy="178.3" r="3.8" fill="#0A7C86" /><circle cx="814.3" cy="189.8" r="3.8" fill="#0A7C86" /><circle cx="842.9" cy="219.3" r="3.8" fill="#0A7C86" /><circle cx="871.4" cy="262.0" r="3.8" fill="#0A7C86" /><circle cx="900.0" cy="268.3" r="3.8" fill="#0A7C86" />
    <text x="72.0" y="392" text-anchor="middle" font-size="10.5" fill="#334155">18-12</text><text x="157.7" y="392" text-anchor="middle" font-size="10.5" fill="#334155">19-09</text><text x="243.3" y="392" text-anchor="middle" font-size="10.5" fill="#334155">20-06</text><text x="329.0" y="392" text-anchor="middle" font-size="10.5" fill="#334155">21-03</text><text x="414.6" y="392" text-anchor="middle" font-size="10.5" fill="#334155">21-12</text><text x="500.3" y="392" text-anchor="middle" font-size="10.5" fill="#334155">22-09</text><text x="585.9" y="392" text-anchor="middle" font-size="10.5" fill="#334155">23-06</text><text x="671.6" y="392" text-anchor="middle" font-size="10.5" fill="#334155">24-03</text><text x="757.2" y="392" text-anchor="middle" font-size="10.5" fill="#334155">24-12</text><text x="842.9" y="392" text-anchor="middle" font-size="10.5" fill="#334155">25-09</text><text x="900.0" y="392" text-anchor="middle" font-size="10.5" fill="#334155">26-03</text>
    </svg>