<svg xmlns="http://www.w3.org/2000/svg" width="980" height="420" viewBox="0 0 980 420">
    <rect width="980" height="420" fill="white"/>
    <text x="72" y="28" font-size="22" font-weight="700" fill="#0F172A">Net Share Delta by Period</text>
    <text x="72" y="46" font-size="12" fill="#334155">Aggregate change in shares across all reported 13F positions</text>
    <line x1="72" y1="348.0" x2="960" y2="348.0" stroke="#E2E8F0" stroke-width="1"/><text x="62" y="352.0" text-anchor="end" font-size="11" fill="#334155">-16.9M</text><line x1="72" y1="275.0" x2="960" y2="275.0" stroke="#E2E8F0" stroke-width="1"/><text x="62" y="279.0" text-anchor="end" font-size="11" fill="#334155">87.7M</text><line x1="72" y1="202.0" x2="960" y2="202.0" stroke="#E2E8F0" stroke-width="1"/><text x="62" y="206.0" text-anchor="end" font-size="11" fill="#334155">192.2M</text><line x1="72" y1="129.0" x2="960" y2="129.0" stroke="#E2E8F0" stroke-width="1"/><text x="62" y="133.0" text-anchor="end" font-size="11" fill="#334155">296.8M</text><line x1="72" y1="56.0" x2="960" y2="56.0" stroke="#E2E8F0" stroke-width="1"/><text x="62" y="60.0" text-anchor="end" font-size="11" fill="#334155">401.4M</text>
    <polyline fill="none" stroke="#15803D" stroke-width="3" points="72.0,336.2 103.7,336.2 135.4,336.2 167.1,341.9 198.9,336.2 230.6,321.5 262.3,336.2 294.0,336.2 325.7,336.2 357.4,333.1 389.1,336.2 420.9,336.2 452.6,336.2 484.3,326.9 516.0,333.1 547.7,271.6 579.4,331.3 611.1,150.5 642.9,335.3 674.6,336.2 706.3,339.9 738.0,336.2 769.7,336.2 801.4,56.0 833.1,343.1 864.9,348.0 896.6,336.2 928.3,336.2 960.0,336.2" />
    <circle cx="72.0" cy="336.2" r="3.8" fill="#15803D" /><circle cx="103.7" cy="336.2" r="3.8" fill="#15803D" /><circle cx="135.4" cy="336.2" r="3.8" fill="#15803D" /><circle cx="167.1" cy="341.9" r="3.8" fill="#15803D" /><circle cx="198.9" cy="336.2" r="3.8" fill="#15803D" /><circle cx="230.6" cy="321.5" r="3.8" fill="#15803D" /><circle cx="262.3" cy="336.2" r="3.8" fill="#15803D" /><circle cx="294.0" cy="336.2" r="3.8" fill="#15803D" /><circle cx="325.7" cy="336.2" r="3.8" fill="#15803D" /><circle cx="357.4" cy="333.1" r="3.8" fill="#15803D" /><circle cx="389.1" cy="336.2" r="3.8" fill="#15803D" /><circle cx="420.9" cy="336.2" r="3.8" fill="#15803D" /><circle cx="452.6" cy="336.2" r="3.8" fill="#15803D" /><circle cx="484.3" cy="326.9" r="3.8" fill="#15803D" /><circle cx="516.0" cy="333.1" r="3.8" fill="#15803D" /><circle cx="547.7" cy="271.6" r="3.8" fill="#15803D" /><circle cx="579.4" cy="331.3" r="3.8" fill="#15803D" /><circle cx="611.1" cy="150.5" r="3.8" fill="#15803D" /><circle cx="642.9" cy="335.3" r="3.8" fill="#15803D" /><circle cx="674.6" cy="336.2" r="3.8" fill="#15803D" /><circle cx="706.3" cy="339.9" r="3.8" fill="#15803D" /><circle cx="738.0" cy="336.2" r="3.8" fill="#15803D" /><circle cx="769.7" cy="336.2" r="3.8" fill="#15803D" /><circle cx="801.4" cy="56.0" r="3.8" fill="#15803D" /><circle cx="833.1" cy="343.1" r="3.8" fill="#15803D" /><circle cx="864.9" cy="348.0" r="3.8" fill="#15803D" /><circle cx="896.6" cy="336.2" r="3.8" fill="#15803D" /><circle cx="928.3" cy="336.2" r="3.8" fill="#15803D" /><circle cx="960.0" cy="336.2" r="3.8" fill="#15803D" />
    <text x="72.0" y="392" text-anchor="middle" font-size="10.5" fill="#334155">18-12-&gt;19-03</text><text x="198.9" y="392" text-anchor="middle" font-size="10.5" fill="#334155">19-12-&gt;20-03</text><text x="325.7" y="392" text-anchor="middle" font-size="10.5" fill="#334155">20-12-&gt;21-03</text><text x="452.6" y="392" text-anchor="middle" font-size="10.5" fill="#334155">21-12-&gt;22-03</text><text x="579.4" y="392" text-anchor="middle" font-size="10.5" fill="#334155">22-12-&gt;23-03</text><text x="706.3" y="392" text-anchor="middle" font-size="10.5" fill="#334155">23-12-&gt;24-03</text><text x="833.1" y="392" text-anchor="middle" font-size="10.5" fill="#334155">24-12-&gt;25-03</text><text x="960.0" y="392" text-anchor="middle" font-size="10.5" fill="#334155">25-12-&gt;26-03</text>
    </svg>