<svg xmlns="http://www.w3.org/2000/svg" width="980" height="420" viewBox="0 0 980 420">
    <rect width="980" height="420" fill="white"/>
    <text x="72" y="28" font-size="22" font-weight="700" fill="#0F172A">Net Market Value Delta by Period</text>
    <text x="72" y="46" font-size="12" fill="#334155">Aggregate change in reported market value across the disclosed 13F sleeve</text>
    <line x1="72" y1="348.0" x2="960" y2="348.0" stroke="#E2E8F0" stroke-width="1"/><text x="62" y="352.0" text-anchor="end" font-size="11" fill="#334155">$-10.4B</text><line x1="72" y1="275.0" x2="960" y2="275.0" stroke="#E2E8F0" stroke-width="1"/><text x="62" y="279.0" text-anchor="end" font-size="11" fill="#334155">$-6.6B</text><line x1="72" y1="202.0" x2="960" y2="202.0" stroke="#E2E8F0" stroke-width="1"/><text x="62" y="206.0" text-anchor="end" font-size="11" fill="#334155">$-2.9B</text><line x1="72" y1="129.0" x2="960" y2="129.0" stroke="#E2E8F0" stroke-width="1"/><text x="62" y="133.0" text-anchor="end" font-size="11" fill="#334155">$0.9B</text><line x1="72" y1="56.0" x2="960" y2="56.0" stroke="#E2E8F0" stroke-width="1"/><text x="62" y="60.0" text-anchor="end" font-size="11" fill="#334155">$4.6B</text>
    <polyline fill="none" stroke="#C2410C" stroke-width="3" points="72.0,154.4 103.7,155.0 135.4,165.7 167.1,185.5 198.9,148.5 230.6,128.1 262.3,140.1 294.0,145.9 325.7,145.9 357.4,136.3 389.1,145.9 420.9,144.6 452.6,146.5 484.3,348.0 516.0,230.2 547.7,259.2 579.4,56.0 611.1,79.0 642.9,194.8 674.6,104.7 706.3,195.0 738.0,145.9 769.7,145.9 801.4,150.4 833.1,185.1 864.9,150.3 896.6,115.3 928.3,213.7 960.0,164.3" />
    <circle cx="72.0" cy="154.4" r="3.8" fill="#C2410C" /><circle cx="103.7" cy="155.0" r="3.8" fill="#C2410C" /><circle cx="135.4" cy="165.7" r="3.8" fill="#C2410C" /><circle cx="167.1" cy="185.5" r="3.8" fill="#C2410C" /><circle cx="198.9" cy="148.5" r="3.8" fill="#C2410C" /><circle cx="230.6" cy="128.1" r="3.8" fill="#C2410C" /><circle cx="262.3" cy="140.1" r="3.8" fill="#C2410C" /><circle cx="294.0" cy="145.9" r="3.8" fill="#C2410C" /><circle cx="325.7" cy="145.9" r="3.8" fill="#C2410C" /><circle cx="357.4" cy="136.3" r="3.8" fill="#C2410C" /><circle cx="389.1" cy="145.9" r="3.8" fill="#C2410C" /><circle cx="420.9" cy="144.6" r="3.8" fill="#C2410C" /><circle cx="452.6" cy="146.5" r="3.8" fill="#C2410C" /><circle cx="484.3" cy="348.0" r="3.8" fill="#C2410C" /><circle cx="516.0" cy="230.2" r="3.8" fill="#C2410C" /><circle cx="547.7" cy="259.2" r="3.8" fill="#C2410C" /><circle cx="579.4" cy="56.0" r="3.8" fill="#C2410C" /><circle cx="611.1" cy="79.0" r="3.8" fill="#C2410C" /><circle cx="642.9" cy="194.8" r="3.8" fill="#C2410C" /><circle cx="674.6" cy="104.7" r="3.8" fill="#C2410C" /><circle cx="706.3" cy="195.0" r="3.8" fill="#C2410C" /><circle cx="738.0" cy="145.9" r="3.8" fill="#C2410C" /><circle cx="769.7" cy="145.9" r="3.8" fill="#C2410C" /><circle cx="801.4" cy="150.4" r="3.8" fill="#C2410C" /><circle cx="833.1" cy="185.1" r="3.8" fill="#C2410C" /><circle cx="864.9" cy="150.3" r="3.8" fill="#C2410C" /><circle cx="896.6" cy="115.3" r="3.8" fill="#C2410C" /><circle cx="928.3" cy="213.7" r="3.8" fill="#C2410C" /><circle cx="960.0" cy="164.3" r="3.8" fill="#C2410C" />
    <text x="72.0" y="392" text-anchor="middle" font-size="10.5" fill="#334155">18-12-&gt;19-03</text><text x="198.9" y="392" text-anchor="middle" font-size="10.5" fill="#334155">19-12-&gt;20-03</text><text x="325.7" y="392" text-anchor="middle" font-size="10.5" fill="#334155">20-12-&gt;21-03</text><text x="452.6" y="392" text-anchor="middle" font-size="10.5" fill="#334155">21-12-&gt;22-03</text><text x="579.4" y="392" text-anchor="middle" font-size="10.5" fill="#334155">22-12-&gt;23-03</text><text x="706.3" y="392" text-anchor="middle" font-size="10.5" fill="#334155">23-12-&gt;24-03</text><text x="833.1" y="392" text-anchor="middle" font-size="10.5" fill="#334155">24-12-&gt;25-03</text><text x="960.0" y="392" text-anchor="middle" font-size="10.5" fill="#334155">25-12-&gt;26-03</text>
    </svg>