<svg xmlns="http://www.w3.org/2000/svg" width="980" height="430" viewBox="0 0 980 430">
    <rect width="980" height="430" fill="white"/>
    <text x="72" y="30" font-size="22" font-weight="700" fill="#0F172A">Common vs Option Mix</text>
    <text x="72" y="50" font-size="12" fill="#334155">Share of reported rows that are common-equity positions versus option rows</text>
    <line x1="72" y1="338.0" x2="960" y2="338.0" stroke="#E2E8F0" stroke-width="1"/><text x="62" y="342.0" text-anchor="end" font-size="11" fill="#334155">0%</text><line x1="72" y1="269.5" x2="960" y2="269.5" stroke="#E2E8F0" stroke-width="1"/><text x="62" y="273.5" text-anchor="end" font-size="11" fill="#334155">25%</text><line x1="72" y1="201.0" x2="960" y2="201.0" stroke="#E2E8F0" stroke-width="1"/><text x="62" y="205.0" text-anchor="end" font-size="11" fill="#334155">50%</text><line x1="72" y1="132.5" x2="960" y2="132.5" stroke="#E2E8F0" stroke-width="1"/><text x="62" y="136.5" text-anchor="end" font-size="11" fill="#334155">75%</text><line x1="72" y1="64.0" x2="960" y2="64.0" stroke="#E2E8F0" stroke-width="1"/><text x="62" y="68.0" text-anchor="end" font-size="11" fill="#334155">100%</text>
    <rect x="78.7" y="64.0" width="16.3" height="274.0" fill="#0B5FFF" /><rect x="78.7" y="64.0" width="16.3" height="0.0" fill="#0A7C86" /><text x="86.8" y="392" text-anchor="middle" font-size="10.5" fill="#334155">18-12</text><rect x="108.3" y="64.0" width="16.3" height="274.0" fill="#0B5FFF" /><rect x="108.3" y="64.0" width="16.3" height="0.0" fill="#0A7C86" /><rect x="137.9" y="64.0" width="16.3" height="274.0" fill="#0B5FFF" /><rect x="137.9" y="64.0" width="16.3" height="0.0" fill="#0A7C86" /><rect x="167.5" y="64.0" width="16.3" height="274.0" fill="#0B5FFF" /><rect x="167.5" y="64.0" width="16.3" height="0.0" fill="#0A7C86" /><text x="175.6" y="392" text-anchor="middle" font-size="10.5" fill="#334155">19-09</text><rect x="197.1" y="64.0" width="16.3" height="274.0" fill="#0B5FFF" /><rect x="197.1" y="64.0" width="16.3" height="0.0" fill="#0A7C86" /><rect x="226.7" y="64.0" width="16.3" height="274.0" fill="#0B5FFF" /><rect x="226.7" y="64.0" width="16.3" height="0.0" fill="#0A7C86" /><rect x="256.3" y="64.0" width="16.3" height="274.0" fill="#0B5FFF" /><rect x="256.3" y="64.0" width="16.3" height="0.0" fill="#0A7C86" /><text x="264.4" y="392" text-anchor="middle" font-size="10.5" fill="#334155">20-06</text><rect x="285.9" y="64.0" width="16.3" height="274.0" fill="#0B5FFF" /><rect x="285.9" y="64.0" width="16.3" height="0.0" fill="#0A7C86" /><rect x="315.5" y="64.0" width="16.3" height="274.0" fill="#0B5FFF" /><rect x="315.5" y="64.0" width="16.3" height="0.0" fill="#0A7C86" /><rect x="345.1" y="64.0" width="16.3" height="274.0" fill="#0B5FFF" /><rect x="345.1" y="64.0" width="16.3" height="0.0" fill="#0A7C86" /><text x="353.2" y="392" text-anchor="middle" font-size="10.5" fill="#334155">21-03</text><rect x="374.7" y="64.0" width="16.3" height="274.0" fill="#0B5FFF" /><rect x="374.7" y="64.0" width="16.3" height="0.0" fill="#0A7C86" /><rect x="404.3" y="64.0" width="16.3" height="274.0" fill="#0B5FFF" /><rect x="404.3" y="64.0" width="16.3" height="0.0" fill="#0A7C86" /><rect x="433.9" y="64.0" width="16.3" height="274.0" fill="#0B5FFF" /><rect x="433.9" y="64.0" width="16.3" height="0.0" fill="#0A7C86" /><text x="442.0" y="392" text-anchor="middle" font-size="10.5" fill="#334155">21-12</text><rect x="463.5" y="64.0" width="16.3" height="274.0" fill="#0B5FFF" /><rect x="463.5" y="64.0" width="16.3" height="0.0" fill="#0A7C86" /><rect x="493.1" y="64.0" width="16.3" height="274.0" fill="#0B5FFF" /><rect x="493.1" y="64.0" width="16.3" height="0.0" fill="#0A7C86" /><rect x="522.7" y="64.0" width="16.3" height="274.0" fill="#0B5FFF" /><rect x="522.7" y="64.0" width="16.3" height="0.0" fill="#0A7C86" /><text x="530.8" y="392" text-anchor="middle" font-size="10.5" fill="#334155">22-09</text><rect x="552.3" y="64.0" width="16.3" height="274.0" fill="#0B5FFF" /><rect x="552.3" y="64.0" width="16.3" height="0.0" fill="#0A7C86" /><rect x="581.9" y="64.0" width="16.3" height="274.0" fill="#0B5FFF" /><rect x="581.9" y="64.0" width="16.3" height="0.0" fill="#0A7C86" /><rect x="611.5" y="64.0" width="16.3" height="274.0" fill="#0B5FFF" /><rect x="611.5" y="64.0" width="16.3" height="0.0" fill="#0A7C86" /><text x="619.6" y="392" text-anchor="middle" font-size="10.5" fill="#334155">23-06</text><rect x="641.1" y="64.0" width="16.3" height="274.0" fill="#0B5FFF" /><rect x="641.1" y="64.0" width="16.3" height="0.0" fill="#0A7C86" /><rect x="670.7" y="64.0" width="16.3" height="274.0" fill="#0B5FFF" /><rect x="670.7" y="64.0" width="16.3" height="0.0" fill="#0A7C86" /><rect x="700.3" y="150.5" width="16.3" height="187.5" fill="#0B5FFF" /><rect x="700.3" y="64.0" width="16.3" height="86.5" fill="#0A7C86" /><text x="708.4" y="392" text-anchor="middle" font-size="10.5" fill="#334155">24-03</text><rect x="729.9" y="64.0" width="16.3" height="274.0" fill="#0B5FFF" /><rect x="729.9" y="64.0" width="16.3" height="0.0" fill="#0A7C86" /><rect x="759.5" y="201.0" width="16.3" height="137.0" fill="#0B5FFF" /><rect x="759.5" y="64.0" width="16.3" height="137.0" fill="#0A7C86" /><rect x="789.1" y="218.7" width="16.3" height="119.3" fill="#0B5FFF" /><rect x="789.1" y="64.0" width="16.3" height="154.7" fill="#0A7C86" /><text x="797.2" y="392" text-anchor="middle" font-size="10.5" fill="#334155">24-12</text><rect x="818.7" y="226.7" width="16.3" height="111.3" fill="#0B5FFF" /><rect x="818.7" y="64.0" width="16.3" height="162.7" fill="#0A7C86" /><rect x="848.3" y="265.9" width="16.3" height="72.1" fill="#0B5FFF" /><rect x="848.3" y="64.0" width="16.3" height="201.9" fill="#0A7C86" /><rect x="877.9" y="64.0" width="16.3" height="274.0" fill="#0B5FFF" /><rect x="877.9" y="64.0" width="16.3" height="0.0" fill="#0A7C86" /><text x="886.0" y="392" text-anchor="middle" font-size="10.5" fill="#334155">25-09</text><rect x="907.5" y="64.0" width="16.3" height="274.0" fill="#0B5FFF" /><rect x="907.5" y="64.0" width="16.3" height="0.0" fill="#0A7C86" /><rect x="937.1" y="64.0" width="16.3" height="274.0" fill="#0B5FFF" /><rect x="937.1" y="64.0" width="16.3" height="0.0" fill="#0A7C86" /><text x="945.2" y="392" text-anchor="middle" font-size="10.5" fill="#334155">26-03</text>
    <rect x="72" y="406" width="12" height="12" fill="#0B5FFF" rx="2"/><text x="90" y="416" font-size="11" fill="#334155">Common</text><rect x="192" y="406" width="12" height="12" fill="#0A7C86" rx="2"/><text x="210" y="416" font-size="11" fill="#334155">Options</text>
    </svg>