<svg xmlns="http://www.w3.org/2000/svg" width="920" height="420" viewBox="0 0 920 420">
    <rect width="920" height="420" fill="white"/>
    <text x="72" y="28" font-size="22" font-weight="700" fill="#0F172A">PIF 13F Total Shares</text>
    <text x="72" y="46" font-size="12" fill="#334155">Aggregate share count across reported 13F positions</text>
    <line x1="72" y1="348.0" x2="900" y2="348.0" stroke="#E2E8F0" stroke-width="1"/><text x="62" y="352.0" text-anchor="end" font-size="11" fill="#334155">0.3M</text><line x1="72" y1="275.0" x2="900" y2="275.0" stroke="#E2E8F0" stroke-width="1"/><text x="62" y="279.0" text-anchor="end" font-size="11" fill="#334155">494.0M</text><line x1="72" y1="202.0" x2="900" y2="202.0" stroke="#E2E8F0" stroke-width="1"/><text x="62" y="206.0" text-anchor="end" font-size="11" fill="#334155">987.6M</text><line x1="72" y1="129.0" x2="900" y2="129.0" stroke="#E2E8F0" stroke-width="1"/><text x="62" y="133.0" text-anchor="end" font-size="11" fill="#334155">1481.2M</text><line x1="72" y1="56.0" x2="900" y2="56.0" stroke="#E2E8F0" stroke-width="1"/><text x="62" y="60.0" text-anchor="end" font-size="11" fill="#334155">1974.9M</text>
    <polyline fill="none" stroke="#D97706" stroke-width="3" points="72.0,346.8 100.6,346.8 129.1,336.1 157.7,336.1 186.2,337.3 214.8,302.8 243.3,301.8 271.9,313.3 300.4,347.7 329.0,303.1 357.5,302.4 386.1,347.9 414.6,347.9 443.2,133.0 471.7,122.3 500.3,122.9 528.8,114.8 557.4,119.9 585.9,81.0 614.5,80.6 643.0,87.1 671.6,113.3 700.1,348.0 728.7,115.6 757.2,56.0 785.8,57.7 814.3,64.4 842.9,305.4 871.4,307.1 900.0,307.2" />
    <circle cx="72.0" cy="346.8" r="3.8" fill="#D97706" /><circle cx="100.6" cy="346.8" r="3.8" fill="#D97706" /><circle cx="129.1" cy="336.1" r="3.8" fill="#D97706" /><circle cx="157.7" cy="336.1" r="3.8" fill="#D97706" /><circle cx="186.2" cy="337.3" r="3.8" fill="#D97706" /><circle cx="214.8" cy="302.8" r="3.8" fill="#D97706" /><circle cx="243.3" cy="301.8" r="3.8" fill="#D97706" /><circle cx="271.9" cy="313.3" r="3.8" fill="#D97706" /><circle cx="300.4" cy="347.7" r="3.8" fill="#D97706" /><circle cx="329.0" cy="303.1" r="3.8" fill="#D97706" /><circle cx="357.5" cy="302.4" r="3.8" fill="#D97706" /><circle cx="386.1" cy="347.9" r="3.8" fill="#D97706" /><circle cx="414.6" cy="347.9" r="3.8" fill="#D97706" /><circle cx="443.2" cy="133.0" r="3.8" fill="#D97706" /><circle cx="471.7" cy="122.3" r="3.8" fill="#D97706" /><circle cx="500.3" cy="122.9" r="3.8" fill="#D97706" /><circle cx="528.8" cy="114.8" r="3.8" fill="#D97706" /><circle cx="557.4" cy="119.9" r="3.8" fill="#D97706" /><circle cx="585.9" cy="81.0" r="3.8" fill="#D97706" /><circle cx="614.5" cy="80.6" r="3.8" fill="#D97706" /><circle cx="643.0" cy="87.1" r="3.8" fill="#D97706" /><circle cx="671.6" cy="113.3" r="3.8" fill="#D97706" /><circle cx="700.1" cy="348.0" r="3.8" fill="#D97706" /><circle cx="728.7" cy="115.6" r="3.8" fill="#D97706" /><circle cx="757.2" cy="56.0" r="3.8" fill="#D97706" /><circle cx="785.8" cy="57.7" r="3.8" fill="#D97706" /><circle cx="814.3" cy="64.4" r="3.8" fill="#D97706" /><circle cx="842.9" cy="305.4" r="3.8" fill="#D97706" /><circle cx="871.4" cy="307.1" r="3.8" fill="#D97706" /><circle cx="900.0" cy="307.2" r="3.8" fill="#D97706" />
    <text x="72.0" y="392" text-anchor="middle" font-size="10.5" fill="#334155">18-12</text><text x="157.7" y="392" text-anchor="middle" font-size="10.5" fill="#334155">19-09</text><text x="243.3" y="392" text-anchor="middle" font-size="10.5" fill="#334155">20-06</text><text x="329.0" y="392" text-anchor="middle" font-size="10.5" fill="#334155">21-03</text><text x="414.6" y="392" text-anchor="middle" font-size="10.5" fill="#334155">21-12</text><text x="500.3" y="392" text-anchor="middle" font-size="10.5" fill="#334155">22-09</text><text x="585.9" y="392" text-anchor="middle" font-size="10.5" fill="#334155">23-06</text><text x="671.6" y="392" text-anchor="middle" font-size="10.5" fill="#334155">24-03</text><text x="757.2" y="392" text-anchor="middle" font-size="10.5" fill="#334155">24-12</text><text x="842.9" y="392" text-anchor="middle" font-size="10.5" fill="#334155">25-09</text><text x="900.0" y="392" text-anchor="middle" font-size="10.5" fill="#334155">26-03</text>
    </svg>