<svg xmlns="http://www.w3.org/2000/svg" width="980" height="460" viewBox="0 0 980 460">
    <rect width="980" height="460" fill="white"/>
    <text x="72" y="30" font-size="22" font-weight="700" fill="#0F172A">Transition Event Counts</text>
    <text x="72" y="50" font-size="12" fill="#334155">Counts derived from security-level share changes across consecutive 13F periods</text>
    <line x1="72" y1="368.0" x2="960" y2="368.0" stroke="#E2E8F0" stroke-width="1"/><text x="62" y="372.0" text-anchor="end" font-size="11" fill="#334155">0</text><line x1="72" y1="292.0" x2="960" y2="292.0" stroke="#E2E8F0" stroke-width="1"/><text x="62" y="296.0" text-anchor="end" font-size="11" fill="#334155">13</text><line x1="72" y1="216.0" x2="960" y2="216.0" stroke="#E2E8F0" stroke-width="1"/><text x="62" y="220.0" text-anchor="end" font-size="11" fill="#334155">26</text><line x1="72" y1="140.0" x2="960" y2="140.0" stroke="#E2E8F0" stroke-width="1"/><text x="62" y="144.0" text-anchor="end" font-size="11" fill="#334155">39</text><line x1="72" y1="64.0" x2="960" y2="64.0" stroke="#E2E8F0" stroke-width="1"/><text x="62" y="68.0" text-anchor="end" font-size="11" fill="#334155">53</text>
    <rect x="82.0" y="368.0" width="6.1" height="0.0" fill="#0B5FFF" rx="3"/><rect x="91.1" y="368.0" width="6.1" height="0.0" fill="#C2410C" rx="3"/><rect x="100.2" y="368.0" width="6.1" height="0.0" fill="#15803D" rx="3"/><rect x="109.4" y="368.0" width="6.1" height="0.0" fill="#D97706" rx="3"/><text x="87.3" y="422" text-anchor="middle" font-size="10.5" fill="#334155">18-12-&gt;19-03</text><rect x="112.6" y="362.3" width="6.1" height="5.7" fill="#0B5FFF" rx="3"/><rect x="121.7" y="368.0" width="6.1" height="0.0" fill="#C2410C" rx="3"/><rect x="130.9" y="368.0" width="6.1" height="0.0" fill="#15803D" rx="3"/><rect x="140.0" y="368.0" width="6.1" height="0.0" fill="#D97706" rx="3"/><rect x="143.2" y="368.0" width="6.1" height="0.0" fill="#0B5FFF" rx="3"/><rect x="152.4" y="368.0" width="6.1" height="0.0" fill="#C2410C" rx="3"/><rect x="161.5" y="368.0" width="6.1" height="0.0" fill="#15803D" rx="3"/><rect x="170.6" y="368.0" width="6.1" height="0.0" fill="#D97706" rx="3"/><rect x="173.9" y="368.0" width="6.1" height="0.0" fill="#0B5FFF" rx="3"/><rect x="183.0" y="368.0" width="6.1" height="0.0" fill="#C2410C" rx="3"/><rect x="192.1" y="368.0" width="6.1" height="0.0" fill="#15803D" rx="3"/><rect x="201.2" y="362.3" width="6.1" height="5.7" fill="#D97706" rx="3"/><rect x="204.5" y="236.1" width="6.1" height="131.9" fill="#0B5FFF" rx="3"/><rect x="213.6" y="362.3" width="6.1" height="5.7" fill="#C2410C" rx="3"/><rect x="222.7" y="368.0" width="6.1" height="0.0" fill="#15803D" rx="3"/><rect x="231.9" y="368.0" width="6.1" height="0.0" fill="#D97706" rx="3"/><text x="209.8" y="422" text-anchor="middle" font-size="10.5" fill="#334155">19-12-&gt;20-03</text><rect x="235.1" y="345.1" width="6.1" height="22.9" fill="#0B5FFF" rx="3"/><rect x="244.2" y="282.0" width="6.1" height="86.0" fill="#C2410C" rx="3"/><rect x="253.4" y="345.1" width="6.1" height="22.9" fill="#15803D" rx="3"/><rect x="262.5" y="345.1" width="6.1" height="22.9" fill="#D97706" rx="3"/><rect x="265.7" y="362.3" width="6.1" height="5.7" fill="#0B5FFF" rx="3"/><rect x="274.8" y="327.8" width="6.1" height="40.2" fill="#C2410C" rx="3"/><rect x="284.0" y="368.0" width="6.1" height="0.0" fill="#15803D" rx="3"/><rect x="293.1" y="368.0" width="6.1" height="0.0" fill="#D97706" rx="3"/><rect x="296.3" y="362.3" width="6.1" height="5.7" fill="#0B5FFF" rx="3"/><rect x="305.5" y="327.8" width="6.1" height="40.2" fill="#C2410C" rx="3"/><rect x="314.6" y="368.0" width="6.1" height="0.0" fill="#15803D" rx="3"/><rect x="323.7" y="368.0" width="6.1" height="0.0" fill="#D97706" rx="3"/><rect x="327.0" y="299.2" width="6.1" height="68.8" fill="#0B5FFF" rx="3"/><rect x="336.1" y="368.0" width="6.1" height="0.0" fill="#C2410C" rx="3"/><rect x="345.2" y="368.0" width="6.1" height="0.0" fill="#15803D" rx="3"/><rect x="354.3" y="368.0" width="6.1" height="0.0" fill="#D97706" rx="3"/><text x="332.3" y="422" text-anchor="middle" font-size="10.5" fill="#334155">20-12-&gt;21-03</text><rect x="357.6" y="368.0" width="6.1" height="0.0" fill="#0B5FFF" rx="3"/><rect x="366.7" y="368.0" width="6.1" height="0.0" fill="#C2410C" rx="3"/><rect x="375.8" y="362.3" width="6.1" height="5.7" fill="#15803D" rx="3"/><rect x="385.0" y="368.0" width="6.1" height="0.0" fill="#D97706" rx="3"/><rect x="388.2" y="362.3" width="6.1" height="5.7" fill="#0B5FFF" rx="3"/><rect x="397.3" y="293.4" width="6.1" height="74.6" fill="#C2410C" rx="3"/><rect x="406.5" y="368.0" width="6.1" height="0.0" fill="#15803D" rx="3"/><rect x="415.6" y="368.0" width="6.1" height="0.0" fill="#D97706" rx="3"/><rect x="418.8" y="368.0" width="6.1" height="0.0" fill="#0B5FFF" rx="3"/><rect x="428.0" y="368.0" width="6.1" height="0.0" fill="#C2410C" rx="3"/><rect x="437.1" y="368.0" width="6.1" height="0.0" fill="#15803D" rx="3"/><rect x="446.2" y="368.0" width="6.1" height="0.0" fill="#D97706" rx="3"/><rect x="449.4" y="155.8" width="6.1" height="212.2" fill="#0B5FFF" rx="3"/><rect x="458.6" y="368.0" width="6.1" height="0.0" fill="#C2410C" rx="3"/><rect x="467.7" y="368.0" width="6.1" height="0.0" fill="#15803D" rx="3"/><rect x="476.8" y="368.0" width="6.1" height="0.0" fill="#D97706" rx="3"/><text x="454.8" y="422" text-anchor="middle" font-size="10.5" fill="#334155">21-12-&gt;22-03</text><rect x="480.1" y="270.5" width="6.1" height="97.5" fill="#0B5FFF" rx="3"/><rect x="489.2" y="362.3" width="6.1" height="5.7" fill="#C2410C" rx="3"/><rect x="498.3" y="339.3" width="6.1" height="28.7" fill="#15803D" rx="3"/><rect x="507.4" y="362.3" width="6.1" height="5.7" fill="#D97706" rx="3"/><rect x="510.7" y="362.3" width="6.1" height="5.7" fill="#0B5FFF" rx="3"/><rect x="519.8" y="356.5" width="6.1" height="11.5" fill="#C2410C" rx="3"/><rect x="528.9" y="356.5" width="6.1" height="11.5" fill="#15803D" rx="3"/><rect x="538.1" y="368.0" width="6.1" height="0.0" fill="#D97706" rx="3"/><rect x="541.3" y="356.5" width="6.1" height="11.5" fill="#0B5FFF" rx="3"/><rect x="550.4" y="356.5" width="6.1" height="11.5" fill="#C2410C" rx="3"/><rect x="559.6" y="356.5" width="6.1" height="11.5" fill="#15803D" rx="3"/><rect x="568.7" y="362.3" width="6.1" height="5.7" fill="#D97706" rx="3"/><rect x="571.9" y="350.8" width="6.1" height="17.2" fill="#0B5FFF" rx="3"/><rect x="581.1" y="345.1" width="6.1" height="22.9" fill="#C2410C" rx="3"/><rect x="590.2" y="345.1" width="6.1" height="22.9" fill="#15803D" rx="3"/><rect x="599.3" y="356.5" width="6.1" height="11.5" fill="#D97706" rx="3"/><text x="577.2" y="422" text-anchor="middle" font-size="10.5" fill="#334155">22-12-&gt;23-03</text><rect x="602.6" y="368.0" width="6.1" height="0.0" fill="#0B5FFF" rx="3"/><rect x="611.7" y="362.3" width="6.1" height="5.7" fill="#C2410C" rx="3"/><rect x="620.8" y="350.8" width="6.1" height="17.2" fill="#15803D" rx="3"/><rect x="629.9" y="362.3" width="6.1" height="5.7" fill="#D97706" rx="3"/><rect x="633.2" y="350.8" width="6.1" height="17.2" fill="#0B5FFF" rx="3"/><rect x="642.3" y="356.5" width="6.1" height="11.5" fill="#C2410C" rx="3"/><rect x="651.4" y="345.1" width="6.1" height="22.9" fill="#15803D" rx="3"/><rect x="660.5" y="362.3" width="6.1" height="5.7" fill="#D97706" rx="3"/><rect x="663.8" y="356.5" width="6.1" height="11.5" fill="#0B5FFF" rx="3"/><rect x="672.9" y="345.1" width="6.1" height="22.9" fill="#C2410C" rx="3"/><rect x="682.0" y="362.3" width="6.1" height="5.7" fill="#15803D" rx="3"/><rect x="691.2" y="362.3" width="6.1" height="5.7" fill="#D97706" rx="3"/><rect x="694.4" y="293.4" width="6.1" height="74.6" fill="#0B5FFF" rx="3"/><rect x="703.5" y="224.6" width="6.1" height="143.4" fill="#C2410C" rx="3"/><rect x="712.7" y="339.3" width="6.1" height="28.7" fill="#15803D" rx="3"/><rect x="721.8" y="345.1" width="6.1" height="22.9" fill="#D97706" rx="3"/><text x="699.7" y="422" text-anchor="middle" font-size="10.5" fill="#334155">23-12-&gt;24-03</text><rect x="725.0" y="362.3" width="6.1" height="5.7" fill="#0B5FFF" rx="3"/><rect x="734.2" y="150.0" width="6.1" height="218.0" fill="#C2410C" rx="3"/><rect x="743.3" y="368.0" width="6.1" height="0.0" fill="#15803D" rx="3"/><rect x="752.4" y="368.0" width="6.1" height="0.0" fill="#D97706" rx="3"/><rect x="755.7" y="64.0" width="6.1" height="304.0" fill="#0B5FFF" rx="3"/><rect x="764.8" y="368.0" width="6.1" height="0.0" fill="#C2410C" rx="3"/><rect x="773.9" y="368.0" width="6.1" height="0.0" fill="#15803D" rx="3"/><rect x="783.0" y="368.0" width="6.1" height="0.0" fill="#D97706" rx="3"/><rect x="786.3" y="264.8" width="6.1" height="103.2" fill="#0B5FFF" rx="3"/><rect x="795.4" y="310.6" width="6.1" height="57.4" fill="#C2410C" rx="3"/><rect x="804.5" y="316.4" width="6.1" height="51.6" fill="#15803D" rx="3"/><rect x="813.6" y="316.4" width="6.1" height="51.6" fill="#D97706" rx="3"/><rect x="816.9" y="282.0" width="6.1" height="86.0" fill="#0B5FFF" rx="3"/><rect x="826.0" y="293.4" width="6.1" height="74.6" fill="#C2410C" rx="3"/><rect x="835.1" y="299.2" width="6.1" height="68.8" fill="#15803D" rx="3"/><rect x="844.3" y="264.8" width="6.1" height="103.2" fill="#D97706" rx="3"/><text x="822.2" y="422" text-anchor="middle" font-size="10.5" fill="#334155">24-12-&gt;25-03</text><rect x="847.5" y="264.8" width="6.1" height="103.2" fill="#0B5FFF" rx="3"/><rect x="856.6" y="224.6" width="6.1" height="143.4" fill="#C2410C" rx="3"/><rect x="865.8" y="316.4" width="6.1" height="51.6" fill="#15803D" rx="3"/><rect x="874.9" y="253.3" width="6.1" height="114.7" fill="#D97706" rx="3"/><rect x="878.1" y="362.3" width="6.1" height="5.7" fill="#0B5FFF" rx="3"/><rect x="887.3" y="69.7" width="6.1" height="298.3" fill="#C2410C" rx="3"/><rect x="896.4" y="368.0" width="6.1" height="0.0" fill="#15803D" rx="3"/><rect x="905.5" y="368.0" width="6.1" height="0.0" fill="#D97706" rx="3"/><rect x="908.8" y="368.0" width="6.1" height="0.0" fill="#0B5FFF" rx="3"/><rect x="917.9" y="362.3" width="6.1" height="5.7" fill="#C2410C" rx="3"/><rect x="927.0" y="368.0" width="6.1" height="0.0" fill="#15803D" rx="3"/><rect x="936.1" y="368.0" width="6.1" height="0.0" fill="#D97706" rx="3"/><rect x="939.4" y="368.0" width="6.1" height="0.0" fill="#0B5FFF" rx="3"/><rect x="948.5" y="362.3" width="6.1" height="5.7" fill="#C2410C" rx="3"/><rect x="957.6" y="368.0" width="6.1" height="0.0" fill="#15803D" rx="3"/><rect x="966.8" y="368.0" width="6.1" height="0.0" fill="#D97706" rx="3"/><text x="944.7" y="422" text-anchor="middle" font-size="10.5" fill="#334155">25-12-&gt;26-03</text>
    <rect x="72" y="438" width="12" height="12" fill="#0B5FFF" rx="2"/><text x="90" y="448" font-size="11" fill="#334155">Entries</text><rect x="212" y="438" width="12" height="12" fill="#C2410C" rx="2"/><text x="230" y="448" font-size="11" fill="#334155">Exits</text><rect x="352" y="438" width="12" height="12" fill="#15803D" rx="2"/><text x="370" y="448" font-size="11" fill="#334155">Likely Accum.</text><rect x="492" y="438" width="12" height="12" fill="#D97706" rx="2"/><text x="510" y="448" font-size="11" fill="#334155">Likely Reduct.</text>
    </svg>