<svg xmlns="http://www.w3.org/2000/svg" width="900" height="420" viewBox="0 0 900 420">
    <rect width="900" height="420" fill="white"/>
    <text x="72" y="28" font-size="22" font-weight="700" fill="#0F172A">Top-10 Concentration</text>
    <text x="72" y="46" font-size="12" fill="#334155">Share of total portfolio market value represented by the 10 largest holdings</text>
    <line x1="72" y1="348.0" x2="880" y2="348.0" stroke="#E2E8F0" stroke-width="1"/><text x="62" y="352.0" text-anchor="end" font-size="11" fill="#334155">7.7%</text><line x1="72" y1="275.0" x2="880" y2="275.0" stroke="#E2E8F0" stroke-width="1"/><text x="62" y="279.0" text-anchor="end" font-size="11" fill="#334155">11.0%</text><line x1="72" y1="202.0" x2="880" y2="202.0" stroke="#E2E8F0" stroke-width="1"/><text x="62" y="206.0" text-anchor="end" font-size="11" fill="#334155">14.4%</text><line x1="72" y1="129.0" x2="880" y2="129.0" stroke="#E2E8F0" stroke-width="1"/><text x="62" y="133.0" text-anchor="end" font-size="11" fill="#334155">17.7%</text><line x1="72" y1="56.0" x2="880" y2="56.0" stroke="#E2E8F0" stroke-width="1"/><text x="62" y="60.0" text-anchor="end" font-size="11" fill="#334155">21.1%</text>
    <polyline fill="none" stroke="#D97706" stroke-width="3" points="72.0,348.0 152.8,321.7 233.6,305.0 314.4,259.2 395.2,237.2 476.0,266.3 556.8,188.2 637.6,115.2 718.4,66.5 799.2,85.0 880.0,56.0" />
    <circle cx="72.0" cy="348.0" r="4" fill="#D97706" /><text x="72.0" y="336.0" text-anchor="middle" font-size="11" fill="#0F172A">7.7%</text><circle cx="152.8" cy="321.7" r="4" fill="#D97706" /><text x="152.8" y="309.7" text-anchor="middle" font-size="11" fill="#0F172A">8.9%</text><circle cx="233.6" cy="305.0" r="4" fill="#D97706" /><text x="233.6" y="293.0" text-anchor="middle" font-size="11" fill="#0F172A">9.6%</text><circle cx="314.4" cy="259.2" r="4" fill="#D97706" /><text x="314.4" y="247.2" text-anchor="middle" font-size="11" fill="#0F172A">11.7%</text><circle cx="395.2" cy="237.2" r="4" fill="#D97706" /><text x="395.2" y="225.2" text-anchor="middle" font-size="11" fill="#0F172A">12.8%</text><circle cx="476.0" cy="266.3" r="4" fill="#D97706" /><text x="476.0" y="254.3" text-anchor="middle" font-size="11" fill="#0F172A">11.4%</text><circle cx="556.8" cy="188.2" r="4" fill="#D97706" /><text x="556.8" y="176.2" text-anchor="middle" font-size="11" fill="#0F172A">15.0%</text><circle cx="637.6" cy="115.2" r="4" fill="#D97706" /><text x="637.6" y="103.2" text-anchor="middle" font-size="11" fill="#0F172A">18.4%</text><circle cx="718.4" cy="66.5" r="4" fill="#D97706" /><text x="718.4" y="54.5" text-anchor="middle" font-size="11" fill="#0F172A">20.6%</text><circle cx="799.2" cy="85.0" r="4" fill="#D97706" /><text x="799.2" y="73.0" text-anchor="middle" font-size="11" fill="#0F172A">19.7%</text><circle cx="880.0" cy="56.0" r="4" fill="#D97706" /><text x="880.0" y="44.0" text-anchor="middle" font-size="11" fill="#0F172A">21.1%</text>
    <text x="72.0" y="392" text-anchor="middle" font-size="11" fill="#334155">17-12</text><text x="233.6" y="392" text-anchor="middle" font-size="11" fill="#334155">19-12</text><text x="395.2" y="392" text-anchor="middle" font-size="11" fill="#334155">21-12</text><text x="556.8" y="392" text-anchor="middle" font-size="11" fill="#334155">23-12</text><text x="718.4" y="392" text-anchor="middle" font-size="11" fill="#334155">24-12</text><text x="880.0" y="392" text-anchor="middle" font-size="11" fill="#334155">25-12</text>
    </svg>