<svg xmlns="http://www.w3.org/2000/svg" width="900" height="420" viewBox="0 0 900 420">
    <rect width="900" height="420" fill="white"/>
    <text x="72" y="28" font-size="22" font-weight="700" fill="#0F172A">NBIM Holdings Count</text>
    <text x="72" y="46" font-size="12" fill="#334155">Observable public-equity positions per snapshot</text>
    <line x1="72" y1="348.0" x2="880" y2="348.0" stroke="#E2E8F0" stroke-width="1"/><text x="62" y="352.0" text-anchor="end" font-size="11" fill="#334155">7,201</text><line x1="72" y1="275.0" x2="880" y2="275.0" stroke="#E2E8F0" stroke-width="1"/><text x="62" y="279.0" text-anchor="end" font-size="11" fill="#334155">7,735</text><line x1="72" y1="202.0" x2="880" y2="202.0" stroke="#E2E8F0" stroke-width="1"/><text x="62" y="206.0" text-anchor="end" font-size="11" fill="#334155">8,269</text><line x1="72" y1="129.0" x2="880" y2="129.0" stroke="#E2E8F0" stroke-width="1"/><text x="62" y="133.0" text-anchor="end" font-size="11" fill="#334155">8,803</text><line x1="72" y1="56.0" x2="880" y2="56.0" stroke="#E2E8F0" stroke-width="1"/><text x="62" y="60.0" text-anchor="end" font-size="11" fill="#334155">9,338</text>
    <polyline fill="none" stroke="#0B5FFF" stroke-width="3" points="72.0,87.7 152.8,80.7 233.6,74.6 314.4,85.4 395.2,56.0 476.0,71.0 556.8,121.5 637.6,134.6 718.4,148.8 799.2,187.7 880.0,348.0" />
    <circle cx="72.0" cy="87.7" r="4" fill="#0B5FFF" /><text x="72.0" y="75.7" text-anchor="middle" font-size="11" fill="#0F172A">9,106</text><circle cx="152.8" cy="80.7" r="4" fill="#0B5FFF" /><text x="152.8" y="68.7" text-anchor="middle" font-size="11" fill="#0F172A">9,157</text><circle cx="233.6" cy="74.6" r="4" fill="#0B5FFF" /><text x="233.6" y="62.6" text-anchor="middle" font-size="11" fill="#0F172A">9,202</text><circle cx="314.4" cy="85.4" r="4" fill="#0B5FFF" /><text x="314.4" y="73.4" text-anchor="middle" font-size="11" fill="#0F172A">9,123</text><circle cx="395.2" cy="56.0" r="4" fill="#0B5FFF" /><text x="395.2" y="44.0" text-anchor="middle" font-size="11" fill="#0F172A">9,338</text><circle cx="476.0" cy="71.0" r="4" fill="#0B5FFF" /><text x="476.0" y="59.0" text-anchor="middle" font-size="11" fill="#0F172A">9,228</text><circle cx="556.8" cy="121.5" r="4" fill="#0B5FFF" /><text x="556.8" y="109.5" text-anchor="middle" font-size="11" fill="#0F172A">8,859</text><circle cx="637.6" cy="134.6" r="4" fill="#0B5FFF" /><text x="637.6" y="122.6" text-anchor="middle" font-size="11" fill="#0F172A">8,763</text><circle cx="718.4" cy="148.8" r="4" fill="#0B5FFF" /><text x="718.4" y="136.8" text-anchor="middle" font-size="11" fill="#0F172A">8,659</text><circle cx="799.2" cy="187.7" r="4" fill="#0B5FFF" /><text x="799.2" y="175.7" text-anchor="middle" font-size="11" fill="#0F172A">8,374</text><circle cx="880.0" cy="348.0" r="4" fill="#0B5FFF" /><text x="880.0" y="336.0" text-anchor="middle" font-size="11" fill="#0F172A">7,201</text>
    <text x="72.0" y="392" text-anchor="middle" font-size="11" fill="#334155">17-12</text><text x="233.6" y="392" text-anchor="middle" font-size="11" fill="#334155">19-12</text><text x="395.2" y="392" text-anchor="middle" font-size="11" fill="#334155">21-12</text><text x="556.8" y="392" text-anchor="middle" font-size="11" fill="#334155">23-12</text><text x="718.4" y="392" text-anchor="middle" font-size="11" fill="#334155">24-12</text><text x="880.0" y="392" text-anchor="middle" font-size="11" fill="#334155">25-12</text>
    </svg>