<svg xmlns="http://www.w3.org/2000/svg" width="980" height="520" viewBox="0 0 980 520">
    <rect width="980" height="520" fill="white"/>
    <text x="180" y="30" font-size="22" font-weight="700" fill="#0F172A">Net Industry Rotation Signal</text>
    <text x="180" y="50" font-size="12" fill="#334155">Likely accumulations minus likely reductions by industry and period</text>
    <text x="218.8" y="68" text-anchor="middle" font-size="11" fill="#334155">17-12-&gt;18-12</text><text x="374.0" y="68" text-anchor="middle" font-size="11" fill="#334155">19-12-&gt;20-12</text><text x="529.2" y="68" text-anchor="middle" font-size="11" fill="#334155">21-12-&gt;22-12</text><text x="684.4" y="68" text-anchor="middle" font-size="11" fill="#334155">23-12-&gt;24-06</text><text x="839.6" y="68" text-anchor="middle" font-size="11" fill="#334155">24-12-&gt;25-06</text><text x="917.2" y="68" text-anchor="middle" font-size="11" fill="#334155">25-06-&gt;25-12</text>
    <text x="170" y="103.0" text-anchor="end" font-size="11" fill="#334155">Industrials</text><rect x="180.0" y="80.0" width="77.6" height="38.0" fill="#ffffff" stroke="white" stroke-width="1"/><text x="218.8" y="103.0" text-anchor="middle" font-size="10" fill="#0F172A">0</text><rect x="257.6" y="80.0" width="77.6" height="38.0" fill="#ffffff" stroke="white" stroke-width="1"/><text x="296.4" y="103.0" text-anchor="middle" font-size="10" fill="#0F172A">0</text><rect x="335.2" y="80.0" width="77.6" height="38.0" fill="#ffffff" stroke="white" stroke-width="1"/><text x="374.0" y="103.0" text-anchor="middle" font-size="10" fill="#0F172A">0</text><rect x="412.8" y="80.0" width="77.6" height="38.0" fill="#ffffff" stroke="white" stroke-width="1"/><text x="451.6" y="103.0" text-anchor="middle" font-size="10" fill="#0F172A">0</text><rect x="490.4" y="80.0" width="77.6" height="38.0" fill="#ffffff" stroke="white" stroke-width="1"/><text x="529.2" y="103.0" text-anchor="middle" font-size="10" fill="#0F172A">0</text><rect x="568.0" y="80.0" width="77.6" height="38.0" fill="#ffffff" stroke="white" stroke-width="1"/><text x="606.8" y="103.0" text-anchor="middle" font-size="10" fill="#0F172A">0</text><rect x="645.6" y="80.0" width="77.6" height="38.0" fill="#ffffff" stroke="white" stroke-width="1"/><text x="684.4" y="103.0" text-anchor="middle" font-size="10" fill="#0F172A">0</text><rect x="723.2" y="80.0" width="77.6" height="38.0" fill="#ffffff" stroke="white" stroke-width="1"/><text x="762.0" y="103.0" text-anchor="middle" font-size="10" fill="#0F172A">0</text><rect x="800.8" y="80.0" width="77.6" height="38.0" fill="#ffffff" stroke="white" stroke-width="1"/><text x="839.6" y="103.0" text-anchor="middle" font-size="10" fill="#0F172A">0</text><rect x="878.4" y="80.0" width="77.6" height="38.0" fill="#ffffff" stroke="white" stroke-width="1"/><text x="917.2" y="103.0" text-anchor="middle" font-size="10" fill="#0F172A">0</text><text x="170" y="141.0" text-anchor="end" font-size="11" fill="#334155">Consumer Discretionary</text><rect x="180.0" y="118.0" width="77.6" height="38.0" fill="#ffffff" stroke="white" stroke-width="1"/><text x="218.8" y="141.0" text-anchor="middle" font-size="10" fill="#0F172A">0</text><rect x="257.6" y="118.0" width="77.6" height="38.0" fill="#ffffff" stroke="white" stroke-width="1"/><text x="296.4" y="141.0" text-anchor="middle" font-size="10" fill="#0F172A">0</text><rect x="335.2" y="118.0" width="77.6" height="38.0" fill="#ffffff" stroke="white" stroke-width="1"/><text x="374.0" y="141.0" text-anchor="middle" font-size="10" fill="#0F172A">0</text><rect x="412.8" y="118.0" width="77.6" height="38.0" fill="#ffffff" stroke="white" stroke-width="1"/><text x="451.6" y="141.0" text-anchor="middle" font-size="10" fill="#0F172A">0</text><rect x="490.4" y="118.0" width="77.6" height="38.0" fill="#ffffff" stroke="white" stroke-width="1"/><text x="529.2" y="141.0" text-anchor="middle" font-size="10" fill="#0F172A">0</text><rect x="568.0" y="118.0" width="77.6" height="38.0" fill="#ffffff" stroke="white" stroke-width="1"/><text x="606.8" y="141.0" text-anchor="middle" font-size="10" fill="#0F172A">0</text><rect x="645.6" y="118.0" width="77.6" height="38.0" fill="#ffffff" stroke="white" stroke-width="1"/><text x="684.4" y="141.0" text-anchor="middle" font-size="10" fill="#0F172A">0</text><rect x="723.2" y="118.0" width="77.6" height="38.0" fill="#ffffff" stroke="white" stroke-width="1"/><text x="762.0" y="141.0" text-anchor="middle" font-size="10" fill="#0F172A">0</text><rect x="800.8" y="118.0" width="77.6" height="38.0" fill="#ffffff" stroke="white" stroke-width="1"/><text x="839.6" y="141.0" text-anchor="middle" font-size="10" fill="#0F172A">0</text><rect x="878.4" y="118.0" width="77.6" height="38.0" fill="#ffffff" stroke="white" stroke-width="1"/><text x="917.2" y="141.0" text-anchor="middle" font-size="10" fill="#0F172A">0</text><text x="170" y="179.0" text-anchor="end" font-size="11" fill="#334155">Financials</text><rect x="180.0" y="156.0" width="77.6" height="38.0" fill="#ffffff" stroke="white" stroke-width="1"/><text x="218.8" y="179.0" text-anchor="middle" font-size="10" fill="#0F172A">0</text><rect x="257.6" y="156.0" width="77.6" height="38.0" fill="#ffffff" stroke="white" stroke-width="1"/><text x="296.4" y="179.0" text-anchor="middle" font-size="10" fill="#0F172A">0</text><rect x="335.2" y="156.0" width="77.6" height="38.0" fill="#ffffff" stroke="white" stroke-width="1"/><text x="374.0" y="179.0" text-anchor="middle" font-size="10" fill="#0F172A">0</text><rect x="412.8" y="156.0" width="77.6" height="38.0" fill="#ffffff" stroke="white" stroke-width="1"/><text x="451.6" y="179.0" text-anchor="middle" font-size="10" fill="#0F172A">0</text><rect x="490.4" y="156.0" width="77.6" height="38.0" fill="#ffffff" stroke="white" stroke-width="1"/><text x="529.2" y="179.0" text-anchor="middle" font-size="10" fill="#0F172A">0</text><rect x="568.0" y="156.0" width="77.6" height="38.0" fill="#ffffff" stroke="white" stroke-width="1"/><text x="606.8" y="179.0" text-anchor="middle" font-size="10" fill="#0F172A">0</text><rect x="645.6" y="156.0" width="77.6" height="38.0" fill="#ffffff" stroke="white" stroke-width="1"/><text x="684.4" y="179.0" text-anchor="middle" font-size="10" fill="#0F172A">0</text><rect x="723.2" y="156.0" width="77.6" height="38.0" fill="#ffffff" stroke="white" stroke-width="1"/><text x="762.0" y="179.0" text-anchor="middle" font-size="10" fill="#0F172A">0</text><rect x="800.8" y="156.0" width="77.6" height="38.0" fill="#ffffff" stroke="white" stroke-width="1"/><text x="839.6" y="179.0" text-anchor="middle" font-size="10" fill="#0F172A">0</text><rect x="878.4" y="156.0" width="77.6" height="38.0" fill="#ffffff" stroke="white" stroke-width="1"/><text x="917.2" y="179.0" text-anchor="middle" font-size="10" fill="#0F172A">0</text><text x="170" y="217.0" text-anchor="end" font-size="11" fill="#334155">Technology</text><rect x="180.0" y="194.0" width="77.6" height="38.0" fill="#ffffff" stroke="white" stroke-width="1"/><text x="218.8" y="217.0" text-anchor="middle" font-size="10" fill="#0F172A">0</text><rect x="257.6" y="194.0" width="77.6" height="38.0" fill="#ffffff" stroke="white" stroke-width="1"/><text x="296.4" y="217.0" text-anchor="middle" font-size="10" fill="#0F172A">0</text><rect x="335.2" y="194.0" width="77.6" height="38.0" fill="#ffffff" stroke="white" stroke-width="1"/><text x="374.0" y="217.0" text-anchor="middle" font-size="10" fill="#0F172A">0</text><rect x="412.8" y="194.0" width="77.6" height="38.0" fill="#ffffff" stroke="white" stroke-width="1"/><text x="451.6" y="217.0" text-anchor="middle" font-size="10" fill="#0F172A">0</text><rect x="490.4" y="194.0" width="77.6" height="38.0" fill="#ffffff" stroke="white" stroke-width="1"/><text x="529.2" y="217.0" text-anchor="middle" font-size="10" fill="#0F172A">0</text><rect x="568.0" y="194.0" width="77.6" height="38.0" fill="#ffffff" stroke="white" stroke-width="1"/><text x="606.8" y="217.0" text-anchor="middle" font-size="10" fill="#0F172A">0</text><rect x="645.6" y="194.0" width="77.6" height="38.0" fill="#ffffff" stroke="white" stroke-width="1"/><text x="684.4" y="217.0" text-anchor="middle" font-size="10" fill="#0F172A">0</text><rect x="723.2" y="194.0" width="77.6" height="38.0" fill="#ffffff" stroke="white" stroke-width="1"/><text x="762.0" y="217.0" text-anchor="middle" font-size="10" fill="#0F172A">0</text><rect x="800.8" y="194.0" width="77.6" height="38.0" fill="#ffffff" stroke="white" stroke-width="1"/><text x="839.6" y="217.0" text-anchor="middle" font-size="10" fill="#0F172A">0</text><rect x="878.4" y="194.0" width="77.6" height="38.0" fill="#ffffff" stroke="white" stroke-width="1"/><text x="917.2" y="217.0" text-anchor="middle" font-size="10" fill="#0F172A">0</text><text x="170" y="255.0" text-anchor="end" font-size="11" fill="#334155">Health Care</text><rect x="180.0" y="232.0" width="77.6" height="38.0" fill="#ffffff" stroke="white" stroke-width="1"/><text x="218.8" y="255.0" text-anchor="middle" font-size="10" fill="#0F172A">0</text><rect x="257.6" y="232.0" width="77.6" height="38.0" fill="#ffffff" stroke="white" stroke-width="1"/><text x="296.4" y="255.0" text-anchor="middle" font-size="10" fill="#0F172A">0</text><rect x="335.2" y="232.0" width="77.6" height="38.0" fill="#ffffff" stroke="white" stroke-width="1"/><text x="374.0" y="255.0" text-anchor="middle" font-size="10" fill="#0F172A">0</text><rect x="412.8" y="232.0" width="77.6" height="38.0" fill="#ffffff" stroke="white" stroke-width="1"/><text x="451.6" y="255.0" text-anchor="middle" font-size="10" fill="#0F172A">0</text><rect x="490.4" y="232.0" width="77.6" height="38.0" fill="#ffffff" stroke="white" stroke-width="1"/><text x="529.2" y="255.0" text-anchor="middle" font-size="10" fill="#0F172A">0</text><rect x="568.0" y="232.0" width="77.6" height="38.0" fill="#ffffff" stroke="white" stroke-width="1"/><text x="606.8" y="255.0" text-anchor="middle" font-size="10" fill="#0F172A">0</text><rect x="645.6" y="232.0" width="77.6" height="38.0" fill="#ffffff" stroke="white" stroke-width="1"/><text x="684.4" y="255.0" text-anchor="middle" font-size="10" fill="#0F172A">0</text><rect x="723.2" y="232.0" width="77.6" height="38.0" fill="#ffffff" stroke="white" stroke-width="1"/><text x="762.0" y="255.0" text-anchor="middle" font-size="10" fill="#0F172A">0</text><rect x="800.8" y="232.0" width="77.6" height="38.0" fill="#ffffff" stroke="white" stroke-width="1"/><text x="839.6" y="255.0" text-anchor="middle" font-size="10" fill="#0F172A">0</text><rect x="878.4" y="232.0" width="77.6" height="38.0" fill="#ffffff" stroke="white" stroke-width="1"/><text x="917.2" y="255.0" text-anchor="middle" font-size="10" fill="#0F172A">0</text><text x="170" y="293.0" text-anchor="end" font-size="11" fill="#334155">Real Estate</text><rect x="180.0" y="270.0" width="77.6" height="38.0" fill="#ffffff" stroke="white" stroke-width="1"/><text x="218.8" y="293.0" text-anchor="middle" font-size="10" fill="#0F172A">0</text><rect x="257.6" y="270.0" width="77.6" height="38.0" fill="#ffffff" stroke="white" stroke-width="1"/><text x="296.4" y="293.0" text-anchor="middle" font-size="10" fill="#0F172A">0</text><rect x="335.2" y="270.0" width="77.6" height="38.0" fill="#ffffff" stroke="white" stroke-width="1"/><text x="374.0" y="293.0" text-anchor="middle" font-size="10" fill="#0F172A">0</text><rect x="412.8" y="270.0" width="77.6" height="38.0" fill="#ffffff" stroke="white" stroke-width="1"/><text x="451.6" y="293.0" text-anchor="middle" font-size="10" fill="#0F172A">0</text><rect x="490.4" y="270.0" width="77.6" height="38.0" fill="#ffffff" stroke="white" stroke-width="1"/><text x="529.2" y="293.0" text-anchor="middle" font-size="10" fill="#0F172A">0</text><rect x="568.0" y="270.0" width="77.6" height="38.0" fill="#ffffff" stroke="white" stroke-width="1"/><text x="606.8" y="293.0" text-anchor="middle" font-size="10" fill="#0F172A">0</text><rect x="645.6" y="270.0" width="77.6" height="38.0" fill="#ffffff" stroke="white" stroke-width="1"/><text x="684.4" y="293.0" text-anchor="middle" font-size="10" fill="#0F172A">0</text><rect x="723.2" y="270.0" width="77.6" height="38.0" fill="#ffffff" stroke="white" stroke-width="1"/><text x="762.0" y="293.0" text-anchor="middle" font-size="10" fill="#0F172A">0</text><rect x="800.8" y="270.0" width="77.6" height="38.0" fill="#ffffff" stroke="white" stroke-width="1"/><text x="839.6" y="293.0" text-anchor="middle" font-size="10" fill="#0F172A">0</text><rect x="878.4" y="270.0" width="77.6" height="38.0" fill="#ffffff" stroke="white" stroke-width="1"/><text x="917.2" y="293.0" text-anchor="middle" font-size="10" fill="#0F172A">0</text><text x="170" y="331.0" text-anchor="end" font-size="11" fill="#334155">Consumer Staples</text><rect x="180.0" y="308.0" width="77.6" height="38.0" fill="#ffffff" stroke="white" stroke-width="1"/><text x="218.8" y="331.0" text-anchor="middle" font-size="10" fill="#0F172A">0</text><rect x="257.6" y="308.0" width="77.6" height="38.0" fill="#ffffff" stroke="white" stroke-width="1"/><text x="296.4" y="331.0" text-anchor="middle" font-size="10" fill="#0F172A">0</text><rect x="335.2" y="308.0" width="77.6" height="38.0" fill="#ffffff" stroke="white" stroke-width="1"/><text x="374.0" y="331.0" text-anchor="middle" font-size="10" fill="#0F172A">0</text><rect x="412.8" y="308.0" width="77.6" height="38.0" fill="#ffffff" stroke="white" stroke-width="1"/><text x="451.6" y="331.0" text-anchor="middle" font-size="10" fill="#0F172A">0</text><rect x="490.4" y="308.0" width="77.6" height="38.0" fill="#ffffff" stroke="white" stroke-width="1"/><text x="529.2" y="331.0" text-anchor="middle" font-size="10" fill="#0F172A">0</text><rect x="568.0" y="308.0" width="77.6" height="38.0" fill="#ffffff" stroke="white" stroke-width="1"/><text x="606.8" y="331.0" text-anchor="middle" font-size="10" fill="#0F172A">0</text><rect x="645.6" y="308.0" width="77.6" height="38.0" fill="#ffffff" stroke="white" stroke-width="1"/><text x="684.4" y="331.0" text-anchor="middle" font-size="10" fill="#0F172A">0</text><rect x="723.2" y="308.0" width="77.6" height="38.0" fill="#ffffff" stroke="white" stroke-width="1"/><text x="762.0" y="331.0" text-anchor="middle" font-size="10" fill="#0F172A">0</text><rect x="800.8" y="308.0" width="77.6" height="38.0" fill="#ffffff" stroke="white" stroke-width="1"/><text x="839.6" y="331.0" text-anchor="middle" font-size="10" fill="#0F172A">0</text><rect x="878.4" y="308.0" width="77.6" height="38.0" fill="#ffffff" stroke="white" stroke-width="1"/><text x="917.2" y="331.0" text-anchor="middle" font-size="10" fill="#0F172A">0</text><text x="170" y="369.0" text-anchor="end" font-size="11" fill="#334155">Basic Materials</text><rect x="180.0" y="346.0" width="77.6" height="38.0" fill="#ffffff" stroke="white" stroke-width="1"/><text x="218.8" y="369.0" text-anchor="middle" font-size="10" fill="#0F172A">0</text><rect x="257.6" y="346.0" width="77.6" height="38.0" fill="#ffffff" stroke="white" stroke-width="1"/><text x="296.4" y="369.0" text-anchor="middle" font-size="10" fill="#0F172A">0</text><rect x="335.2" y="346.0" width="77.6" height="38.0" fill="#ffffff" stroke="white" stroke-width="1"/><text x="374.0" y="369.0" text-anchor="middle" font-size="10" fill="#0F172A">0</text><rect x="412.8" y="346.0" width="77.6" height="38.0" fill="#ffffff" stroke="white" stroke-width="1"/><text x="451.6" y="369.0" text-anchor="middle" font-size="10" fill="#0F172A">0</text><rect x="490.4" y="346.0" width="77.6" height="38.0" fill="#ffffff" stroke="white" stroke-width="1"/><text x="529.2" y="369.0" text-anchor="middle" font-size="10" fill="#0F172A">0</text><rect x="568.0" y="346.0" width="77.6" height="38.0" fill="#ffffff" stroke="white" stroke-width="1"/><text x="606.8" y="369.0" text-anchor="middle" font-size="10" fill="#0F172A">0</text><rect x="645.6" y="346.0" width="77.6" height="38.0" fill="#ffffff" stroke="white" stroke-width="1"/><text x="684.4" y="369.0" text-anchor="middle" font-size="10" fill="#0F172A">0</text><rect x="723.2" y="346.0" width="77.6" height="38.0" fill="#ffffff" stroke="white" stroke-width="1"/><text x="762.0" y="369.0" text-anchor="middle" font-size="10" fill="#0F172A">0</text><rect x="800.8" y="346.0" width="77.6" height="38.0" fill="#ffffff" stroke="white" stroke-width="1"/><text x="839.6" y="369.0" text-anchor="middle" font-size="10" fill="#0F172A">0</text><rect x="878.4" y="346.0" width="77.6" height="38.0" fill="#ffffff" stroke="white" stroke-width="1"/><text x="917.2" y="369.0" text-anchor="middle" font-size="10" fill="#0F172A">0</text><text x="170" y="407.0" text-anchor="end" font-size="11" fill="#334155">Consumer Services</text><rect x="180.0" y="384.0" width="77.6" height="38.0" fill="#ffffff" stroke="white" stroke-width="1"/><text x="218.8" y="407.0" text-anchor="middle" font-size="10" fill="#0F172A">0</text><rect x="257.6" y="384.0" width="77.6" height="38.0" fill="#ffffff" stroke="white" stroke-width="1"/><text x="296.4" y="407.0" text-anchor="middle" font-size="10" fill="#0F172A">0</text><rect x="335.2" y="384.0" width="77.6" height="38.0" fill="#ffffff" stroke="white" stroke-width="1"/><text x="374.0" y="407.0" text-anchor="middle" font-size="10" fill="#0F172A">0</text><rect x="412.8" y="384.0" width="77.6" height="38.0" fill="#ffffff" stroke="white" stroke-width="1"/><text x="451.6" y="407.0" text-anchor="middle" font-size="10" fill="#0F172A">0</text><rect x="490.4" y="384.0" width="77.6" height="38.0" fill="#ffffff" stroke="white" stroke-width="1"/><text x="529.2" y="407.0" text-anchor="middle" font-size="10" fill="#0F172A">0</text><rect x="568.0" y="384.0" width="77.6" height="38.0" fill="#ffffff" stroke="white" stroke-width="1"/><text x="606.8" y="407.0" text-anchor="middle" font-size="10" fill="#0F172A">0</text><rect x="645.6" y="384.0" width="77.6" height="38.0" fill="#ffffff" stroke="white" stroke-width="1"/><text x="684.4" y="407.0" text-anchor="middle" font-size="10" fill="#0F172A">0</text><rect x="723.2" y="384.0" width="77.6" height="38.0" fill="#ffffff" stroke="white" stroke-width="1"/><text x="762.0" y="407.0" text-anchor="middle" font-size="10" fill="#0F172A">0</text><rect x="800.8" y="384.0" width="77.6" height="38.0" fill="#ffffff" stroke="white" stroke-width="1"/><text x="839.6" y="407.0" text-anchor="middle" font-size="10" fill="#0F172A">0</text><rect x="878.4" y="384.0" width="77.6" height="38.0" fill="#ffffff" stroke="white" stroke-width="1"/><text x="917.2" y="407.0" text-anchor="middle" font-size="10" fill="#0F172A">0</text><text x="170" y="445.0" text-anchor="end" font-size="11" fill="#334155">Consumer Goods</text><rect x="180.0" y="422.0" width="77.6" height="38.0" fill="#ffffff" stroke="white" stroke-width="1"/><text x="218.8" y="445.0" text-anchor="middle" font-size="10" fill="#0F172A">0</text><rect x="257.6" y="422.0" width="77.6" height="38.0" fill="#ffffff" stroke="white" stroke-width="1"/><text x="296.4" y="445.0" text-anchor="middle" font-size="10" fill="#0F172A">0</text><rect x="335.2" y="422.0" width="77.6" height="38.0" fill="#ffffff" stroke="white" stroke-width="1"/><text x="374.0" y="445.0" text-anchor="middle" font-size="10" fill="#0F172A">0</text><rect x="412.8" y="422.0" width="77.6" height="38.0" fill="#ffffff" stroke="white" stroke-width="1"/><text x="451.6" y="445.0" text-anchor="middle" font-size="10" fill="#0F172A">0</text><rect x="490.4" y="422.0" width="77.6" height="38.0" fill="#ffffff" stroke="white" stroke-width="1"/><text x="529.2" y="445.0" text-anchor="middle" font-size="10" fill="#0F172A">0</text><rect x="568.0" y="422.0" width="77.6" height="38.0" fill="#ffffff" stroke="white" stroke-width="1"/><text x="606.8" y="445.0" text-anchor="middle" font-size="10" fill="#0F172A">0</text><rect x="645.6" y="422.0" width="77.6" height="38.0" fill="#ffffff" stroke="white" stroke-width="1"/><text x="684.4" y="445.0" text-anchor="middle" font-size="10" fill="#0F172A">0</text><rect x="723.2" y="422.0" width="77.6" height="38.0" fill="#ffffff" stroke="white" stroke-width="1"/><text x="762.0" y="445.0" text-anchor="middle" font-size="10" fill="#0F172A">0</text><rect x="800.8" y="422.0" width="77.6" height="38.0" fill="#ffffff" stroke="white" stroke-width="1"/><text x="839.6" y="445.0" text-anchor="middle" font-size="10" fill="#0F172A">0</text><rect x="878.4" y="422.0" width="77.6" height="38.0" fill="#ffffff" stroke="white" stroke-width="1"/><text x="917.2" y="445.0" text-anchor="middle" font-size="10" fill="#0F172A">0</text>
    <text x="180" y="502" font-size="11" fill="#334155">Negative values indicate more likely reductions than likely accumulations. Positive values indicate the opposite.</text>
    </svg>