<svg xmlns="http://www.w3.org/2000/svg" width="980" height="460" viewBox="0 0 980 460">
    <rect width="980" height="460" fill="white"/>
    <text x="72" y="30" font-size="22" font-weight="700" fill="#0F172A">Industry Weights Over Time</text>
    <text x="72" y="50" font-size="12" fill="#334155">Top industries by latest snapshot, plus residual &#x27;Other&#x27;</text>
    <line x1="72" y1="368.0" x2="960" y2="368.0" stroke="#E2E8F0" stroke-width="1"/><text x="62" y="372.0" text-anchor="end" font-size="11" fill="#334155">0%</text><line x1="72" y1="292.0" x2="960" y2="292.0" stroke="#E2E8F0" stroke-width="1"/><text x="62" y="296.0" text-anchor="end" font-size="11" fill="#334155">25%</text><line x1="72" y1="216.0" x2="960" y2="216.0" stroke="#E2E8F0" stroke-width="1"/><text x="62" y="220.0" text-anchor="end" font-size="11" fill="#334155">50%</text><line x1="72" y1="140.0" x2="960" y2="140.0" stroke="#E2E8F0" stroke-width="1"/><text x="62" y="144.0" text-anchor="end" font-size="11" fill="#334155">75%</text><line x1="72" y1="64.0" x2="960" y2="64.0" stroke="#E2E8F0" stroke-width="1"/><text x="62" y="68.0" text-anchor="end" font-size="11" fill="#334155">100%</text>
    <rect x="86.1" y="334.1" width="52.5" height="33.9" fill="#0B5FFF"/><rect x="86.1" y="260.1" width="52.5" height="74.0" fill="#0A7C86"/><rect x="86.1" y="260.1" width="52.5" height="0.0" fill="#15803D"/><rect x="86.1" y="216.8" width="52.5" height="43.3" fill="#D97706"/><rect x="86.1" y="187.1" width="52.5" height="29.7" fill="#BE185D"/><rect x="86.1" y="187.1" width="52.5" height="0.0" fill="#7C3AED"/><rect x="86.1" y="64.0" width="52.5" height="123.1" fill="#475569"/><text x="112.4" y="422" text-anchor="middle" font-size="11" fill="#334155">17-12</text><rect x="166.9" y="329.7" width="52.5" height="38.3" fill="#0B5FFF"/><rect x="166.9" y="257.6" width="52.5" height="72.1" fill="#0A7C86"/><rect x="166.9" y="257.6" width="52.5" height="0.0" fill="#15803D"/><rect x="166.9" y="218.3" width="52.5" height="39.3" fill="#D97706"/><rect x="166.9" y="183.5" width="52.5" height="34.8" fill="#BE185D"/><rect x="166.9" y="183.5" width="52.5" height="0.0" fill="#7C3AED"/><rect x="166.9" y="64.0" width="52.5" height="119.5" fill="#475569"/><rect x="247.6" y="323.8" width="52.5" height="44.2" fill="#0B5FFF"/><rect x="247.6" y="252.1" width="52.5" height="71.7" fill="#0A7C86"/><rect x="247.6" y="252.1" width="52.5" height="0.0" fill="#15803D"/><rect x="247.6" y="211.4" width="52.5" height="40.7" fill="#D97706"/><rect x="247.6" y="177.0" width="52.5" height="34.4" fill="#BE185D"/><rect x="247.6" y="177.0" width="52.5" height="0.0" fill="#7C3AED"/><rect x="247.6" y="64.0" width="52.5" height="113.0" fill="#475569"/><text x="273.8" y="422" text-anchor="middle" font-size="11" fill="#334155">19-12</text><rect x="328.3" y="311.8" width="52.5" height="56.2" fill="#0B5FFF"/><rect x="328.3" y="250.2" width="52.5" height="61.7" fill="#0A7C86"/><rect x="328.3" y="250.2" width="52.5" height="0.0" fill="#15803D"/><rect x="328.3" y="208.3" width="52.5" height="41.8" fill="#D97706"/><rect x="328.3" y="173.0" width="52.5" height="35.4" fill="#BE185D"/><rect x="328.3" y="173.0" width="52.5" height="0.0" fill="#7C3AED"/><rect x="328.3" y="64.0" width="52.5" height="109.0" fill="#475569"/><rect x="409.0" y="305.7" width="52.5" height="62.3" fill="#0B5FFF"/><rect x="409.0" y="262.2" width="52.5" height="43.6" fill="#0A7C86"/><rect x="409.0" y="218.0" width="52.5" height="44.2" fill="#15803D"/><rect x="409.0" y="177.3" width="52.5" height="40.7" fill="#D97706"/><rect x="409.0" y="142.7" width="52.5" height="34.6" fill="#BE185D"/><rect x="409.0" y="123.6" width="52.5" height="19.1" fill="#7C3AED"/><rect x="409.0" y="64.0" width="52.5" height="59.6" fill="#475569"/><text x="435.3" y="422" text-anchor="middle" font-size="11" fill="#334155">21-12</text><rect x="489.8" y="314.3" width="52.5" height="53.7" fill="#0B5FFF"/><rect x="489.8" y="265.8" width="52.5" height="48.5" fill="#0A7C86"/><rect x="489.8" y="225.1" width="52.5" height="40.7" fill="#15803D"/><rect x="489.8" y="184.7" width="52.5" height="40.4" fill="#D97706"/><rect x="489.8" y="145.6" width="52.5" height="39.1" fill="#BE185D"/><rect x="489.8" y="128.6" width="52.5" height="16.9" fill="#7C3AED"/><rect x="489.8" y="64.0" width="52.5" height="64.6" fill="#475569"/><rect x="570.5" y="300.3" width="52.5" height="67.7" fill="#0B5FFF"/><rect x="570.5" y="254.8" width="52.5" height="45.5" fill="#0A7C86"/><rect x="570.5" y="212.0" width="52.5" height="42.9" fill="#15803D"/><rect x="570.5" y="172.2" width="52.5" height="39.8" fill="#D97706"/><rect x="570.5" y="138.4" width="52.5" height="33.8" fill="#BE185D"/><rect x="570.5" y="121.7" width="52.5" height="16.7" fill="#7C3AED"/><rect x="570.5" y="64.0" width="52.5" height="57.7" fill="#475569"/><text x="596.7" y="422" text-anchor="middle" font-size="11" fill="#334155">23-12</text><rect x="651.2" y="290.3" width="52.5" height="77.7" fill="#0B5FFF"/><rect x="651.2" y="245.1" width="52.5" height="45.2" fill="#0A7C86"/><rect x="651.2" y="204.0" width="52.5" height="41.1" fill="#15803D"/><rect x="651.2" y="165.8" width="52.5" height="38.2" fill="#D97706"/><rect x="651.2" y="132.3" width="52.5" height="33.4" fill="#BE185D"/><rect x="651.2" y="117.3" width="52.5" height="15.1" fill="#7C3AED"/><rect x="651.2" y="64.0" width="52.5" height="53.3" fill="#475569"/><rect x="731.9" y="285.9" width="52.5" height="82.1" fill="#0B5FFF"/><rect x="731.9" y="239.2" width="52.5" height="46.7" fill="#0A7C86"/><rect x="731.9" y="195.8" width="52.5" height="43.4" fill="#15803D"/><rect x="731.9" y="157.4" width="52.5" height="38.5" fill="#D97706"/><rect x="731.9" y="127.5" width="52.5" height="29.9" fill="#BE185D"/><rect x="731.9" y="112.6" width="52.5" height="14.9" fill="#7C3AED"/><rect x="731.9" y="64.0" width="52.5" height="48.6" fill="#475569"/><text x="758.2" y="422" text-anchor="middle" font-size="11" fill="#334155">24-12</text><rect x="812.7" y="285.6" width="52.5" height="82.4" fill="#0B5FFF"/><rect x="812.7" y="234.8" width="52.5" height="50.8" fill="#0A7C86"/><rect x="812.7" y="193.4" width="52.5" height="41.4" fill="#15803D"/><rect x="812.7" y="153.5" width="52.5" height="39.9" fill="#D97706"/><rect x="812.7" y="125.9" width="52.5" height="27.6" fill="#BE185D"/><rect x="812.7" y="111.7" width="52.5" height="14.2" fill="#7C3AED"/><rect x="812.7" y="64.0" width="52.5" height="47.7" fill="#475569"/><rect x="893.4" y="281.6" width="52.5" height="86.4" fill="#0B5FFF"/><rect x="893.4" y="230.3" width="52.5" height="51.2" fill="#0A7C86"/><rect x="893.4" y="190.2" width="52.5" height="40.2" fill="#15803D"/><rect x="893.4" y="151.7" width="52.5" height="38.5" fill="#D97706"/><rect x="893.4" y="123.5" width="52.5" height="28.2" fill="#BE185D"/><rect x="893.4" y="110.7" width="52.5" height="12.8" fill="#7C3AED"/><rect x="893.4" y="64.0" width="52.5" height="46.7" fill="#475569"/><text x="919.6" y="422" text-anchor="middle" font-size="11" fill="#334155">25-12</text>
    <rect x="72" y="436" width="12" height="12" fill="#0B5FFF" rx="2"/><text x="90" y="446" font-size="11" fill="#334155">Technology</text><rect x="190" y="436" width="12" height="12" fill="#0A7C86" rx="2"/><text x="208" y="446" font-size="11" fill="#334155">Financials</text><rect x="308" y="436" width="12" height="12" fill="#15803D" rx="2"/><text x="326" y="446" font-size="11" fill="#334155">Consumer Discretionary</text><rect x="426" y="436" width="12" height="12" fill="#D97706" rx="2"/><text x="444" y="446" font-size="11" fill="#334155">Industrials</text><rect x="544" y="436" width="12" height="12" fill="#BE185D" rx="2"/><text x="562" y="446" font-size="11" fill="#334155">Health Care</text><rect x="662" y="436" width="12" height="12" fill="#7C3AED" rx="2"/><text x="680" y="446" font-size="11" fill="#334155">Real Estate</text><rect x="780" y="436" width="12" height="12" fill="#475569" rx="2"/><text x="798" y="446" font-size="11" fill="#334155">Other</text>
    </svg>