<svg xmlns="http://www.w3.org/2000/svg" width="900" height="420" viewBox="0 0 900 420">
    <rect width="900" height="420" fill="white"/>
    <text x="72" y="28" font-size="22" font-weight="700" fill="#0F172A">NBIM Total Market Value</text>
    <text x="72" y="46" font-size="12" fill="#334155">Aggregate USD market value of observable public-equity holdings</text>
    <line x1="72" y1="348.0" x2="880" y2="348.0" stroke="#E2E8F0" stroke-width="1"/><text x="62" y="352.0" text-anchor="end" font-size="11" fill="#334155">$632.7B</text><line x1="72" y1="275.0" x2="880" y2="275.0" stroke="#E2E8F0" stroke-width="1"/><text x="62" y="279.0" text-anchor="end" font-size="11" fill="#334155">$850.8B</text><line x1="72" y1="202.0" x2="880" y2="202.0" stroke="#E2E8F0" stroke-width="1"/><text x="62" y="206.0" text-anchor="end" font-size="11" fill="#334155">$1069.0B</text><line x1="72" y1="129.0" x2="880" y2="129.0" stroke="#E2E8F0" stroke-width="1"/><text x="62" y="133.0" text-anchor="end" font-size="11" fill="#334155">$1287.1B</text><line x1="72" y1="56.0" x2="880" y2="56.0" stroke="#E2E8F0" stroke-width="1"/><text x="62" y="60.0" text-anchor="end" font-size="11" fill="#334155">$1505.2B</text>
    <polyline fill="none" stroke="#0A7C86" stroke-width="3" points="72.0,327.3 152.8,348.0 233.6,287.3 314.4,248.1 395.2,222.1 476.0,268.3 556.8,191.5 637.6,154.4 718.4,129.4 799.2,95.3 880.0,56.0" />
    <circle cx="72.0" cy="327.3" r="4" fill="#0A7C86" /><text x="72.0" y="315.3" text-anchor="middle" font-size="11" fill="#0F172A">$694.5B</text><circle cx="152.8" cy="348.0" r="4" fill="#0A7C86" /><text x="152.8" y="336.0" text-anchor="middle" font-size="11" fill="#0F172A">$632.7B</text><circle cx="233.6" cy="287.3" r="4" fill="#0A7C86" /><text x="233.6" y="275.3" text-anchor="middle" font-size="11" fill="#0F172A">$814.0B</text><circle cx="314.4" cy="248.1" r="4" fill="#0A7C86" /><text x="314.4" y="236.1" text-anchor="middle" font-size="11" fill="#0F172A">$931.1B</text><circle cx="395.2" cy="222.1" r="4" fill="#0A7C86" /><text x="395.2" y="210.1" text-anchor="middle" font-size="11" fill="#0F172A">$1009.0B</text><circle cx="476.0" cy="268.3" r="4" fill="#0A7C86" /><text x="476.0" y="256.3" text-anchor="middle" font-size="11" fill="#0F172A">$871.0B</text><circle cx="556.8" cy="191.5" r="4" fill="#0A7C86" /><text x="556.8" y="179.5" text-anchor="middle" font-size="11" fill="#0F172A">$1100.5B</text><circle cx="637.6" cy="154.4" r="4" fill="#0A7C86" /><text x="637.6" y="142.4" text-anchor="middle" font-size="11" fill="#0F172A">$1211.1B</text><circle cx="718.4" cy="129.4" r="4" fill="#0A7C86" /><text x="718.4" y="117.4" text-anchor="middle" font-size="11" fill="#0F172A">$1285.8B</text><circle cx="799.2" cy="95.3" r="4" fill="#0A7C86" /><text x="799.2" y="83.3" text-anchor="middle" font-size="11" fill="#0F172A">$1387.9B</text><circle cx="880.0" cy="56.0" r="4" fill="#0A7C86" /><text x="880.0" y="44.0" text-anchor="middle" font-size="11" fill="#0F172A">$1505.2B</text>
    <text x="72.0" y="392" text-anchor="middle" font-size="11" fill="#334155">17-12</text><text x="233.6" y="392" text-anchor="middle" font-size="11" fill="#334155">19-12</text><text x="395.2" y="392" text-anchor="middle" font-size="11" fill="#334155">21-12</text><text x="556.8" y="392" text-anchor="middle" font-size="11" fill="#334155">23-12</text><text x="718.4" y="392" text-anchor="middle" font-size="11" fill="#334155">24-12</text><text x="880.0" y="392" text-anchor="middle" font-size="11" fill="#334155">25-12</text>
    </svg>