<svg xmlns="http://www.w3.org/2000/svg" width="980" height="460" viewBox="0 0 980 460">
    <rect width="980" height="460" fill="white"/>
    <text x="72" y="30" font-size="22" font-weight="700" fill="#0F172A">Region Weights Over Time</text>
    <text x="72" y="50" font-size="12" fill="#334155">Portfolio weight by region using USD market value</text>
    <line x1="72" y1="368.0" x2="960" y2="368.0" stroke="#E2E8F0" stroke-width="1"/><text x="62" y="372.0" text-anchor="end" font-size="11" fill="#334155">0%</text><line x1="72" y1="292.0" x2="960" y2="292.0" stroke="#E2E8F0" stroke-width="1"/><text x="62" y="296.0" text-anchor="end" font-size="11" fill="#334155">25%</text><line x1="72" y1="216.0" x2="960" y2="216.0" stroke="#E2E8F0" stroke-width="1"/><text x="62" y="220.0" text-anchor="end" font-size="11" fill="#334155">50%</text><line x1="72" y1="140.0" x2="960" y2="140.0" stroke="#E2E8F0" stroke-width="1"/><text x="62" y="144.0" text-anchor="end" font-size="11" fill="#334155">75%</text><line x1="72" y1="64.0" x2="960" y2="64.0" stroke="#E2E8F0" stroke-width="1"/><text x="62" y="68.0" text-anchor="end" font-size="11" fill="#334155">100%</text>
    <rect x="86.1" y="365.5" width="52.5" height="2.5" fill="#0B5FFF"/><rect x="86.1" y="303.2" width="52.5" height="62.3" fill="#0A7C86"/><rect x="86.1" y="192.5" width="52.5" height="110.6" fill="#15803D"/><rect x="86.1" y="188.2" width="52.5" height="4.3" fill="#D97706"/><rect x="86.1" y="187.1" width="52.5" height="1.1" fill="#BE185D"/><rect x="86.1" y="70.9" width="52.5" height="116.1" fill="#7C3AED"/><rect x="86.1" y="64.0" width="52.5" height="6.9" fill="#475569"/><text x="112.4" y="422" text-anchor="middle" font-size="11" fill="#334155">17-12</text><rect x="166.9" y="365.6" width="52.5" height="2.4" fill="#0B5FFF"/><rect x="166.9" y="304.9" width="52.5" height="60.7" fill="#0A7C86"/><rect x="166.9" y="201.4" width="52.5" height="103.5" fill="#15803D"/><rect x="166.9" y="196.7" width="52.5" height="4.7" fill="#D97706"/><rect x="166.9" y="195.3" width="52.5" height="1.4" fill="#BE185D"/><rect x="166.9" y="70.9" width="52.5" height="124.5" fill="#7C3AED"/><rect x="166.9" y="64.0" width="52.5" height="6.9" fill="#475569"/><rect x="247.6" y="365.9" width="52.5" height="2.1" fill="#0B5FFF"/><rect x="247.6" y="305.1" width="52.5" height="60.8" fill="#0A7C86"/><rect x="247.6" y="203.5" width="52.5" height="101.6" fill="#15803D"/><rect x="247.6" y="199.3" width="52.5" height="4.2" fill="#D97706"/><rect x="247.6" y="198.0" width="52.5" height="1.2" fill="#BE185D"/><rect x="247.6" y="70.6" width="52.5" height="127.4" fill="#7C3AED"/><rect x="247.6" y="64.0" width="52.5" height="6.6" fill="#475569"/><text x="273.8" y="422" text-anchor="middle" font-size="11" fill="#334155">19-12</text><rect x="328.3" y="366.1" width="52.5" height="1.9" fill="#0B5FFF"/><rect x="328.3" y="301.3" width="52.5" height="64.8" fill="#0A7C86"/><rect x="328.3" y="207.6" width="52.5" height="93.7" fill="#15803D"/><rect x="328.3" y="204.7" width="52.5" height="3.0" fill="#D97706"/><rect x="328.3" y="203.6" width="52.5" height="1.1" fill="#BE185D"/><rect x="328.3" y="70.5" width="52.5" height="133.1" fill="#7C3AED"/><rect x="328.3" y="64.0" width="52.5" height="6.5" fill="#475569"/><rect x="409.0" y="366.6" width="52.5" height="1.4" fill="#0B5FFF"/><rect x="409.0" y="310.2" width="52.5" height="56.4" fill="#0A7C86"/><rect x="409.0" y="215.7" width="52.5" height="94.5" fill="#15803D"/><rect x="409.0" y="213.3" width="52.5" height="2.4" fill="#D97706"/><rect x="409.0" y="212.0" width="52.5" height="1.3" fill="#BE185D"/><rect x="409.0" y="70.1" width="52.5" height="141.9" fill="#7C3AED"/><rect x="409.0" y="64.0" width="52.5" height="6.1" fill="#475569"/><text x="435.3" y="422" text-anchor="middle" font-size="11" fill="#334155">21-12</text><rect x="489.8" y="366.6" width="52.5" height="1.4" fill="#0B5FFF"/><rect x="489.8" y="308.2" width="52.5" height="58.4" fill="#0A7C86"/><rect x="489.8" y="217.0" width="52.5" height="91.2" fill="#15803D"/><rect x="489.8" y="214.0" width="52.5" height="3.0" fill="#D97706"/><rect x="489.8" y="212.2" width="52.5" height="1.8" fill="#BE185D"/><rect x="489.8" y="71.4" width="52.5" height="140.8" fill="#7C3AED"/><rect x="489.8" y="64.0" width="52.5" height="7.4" fill="#475569"/><rect x="570.5" y="366.9" width="52.5" height="1.1" fill="#0B5FFF"/><rect x="570.5" y="312.0" width="52.5" height="54.9" fill="#0A7C86"/><rect x="570.5" y="228.9" width="52.5" height="83.2" fill="#15803D"/><rect x="570.5" y="225.7" width="52.5" height="3.2" fill="#D97706"/><rect x="570.5" y="224.1" width="52.5" height="1.6" fill="#BE185D"/><rect x="570.5" y="70.4" width="52.5" height="153.7" fill="#7C3AED"/><rect x="570.5" y="64.0" width="52.5" height="6.4" fill="#475569"/><text x="596.7" y="422" text-anchor="middle" font-size="11" fill="#334155">23-12</text><rect x="651.2" y="366.9" width="52.5" height="1.1" fill="#0B5FFF"/><rect x="651.2" y="312.3" width="52.5" height="54.6" fill="#0A7C86"/><rect x="651.2" y="237.0" width="52.5" height="75.3" fill="#15803D"/><rect x="651.2" y="234.6" width="52.5" height="2.4" fill="#D97706"/><rect x="651.2" y="233.1" width="52.5" height="1.4" fill="#BE185D"/><rect x="651.2" y="69.8" width="52.5" height="163.3" fill="#7C3AED"/><rect x="651.2" y="64.0" width="52.5" height="5.8" fill="#475569"/><rect x="731.9" y="366.8" width="52.5" height="1.2" fill="#0B5FFF"/><rect x="731.9" y="313.9" width="52.5" height="52.9" fill="#0A7C86"/><rect x="731.9" y="248.7" width="52.5" height="65.2" fill="#15803D"/><rect x="731.9" y="246.7" width="52.5" height="2.0" fill="#D97706"/><rect x="731.9" y="245.1" width="52.5" height="1.6" fill="#BE185D"/><rect x="731.9" y="69.2" width="52.5" height="175.9" fill="#7C3AED"/><rect x="731.9" y="64.0" width="52.5" height="5.2" fill="#475569"/><text x="758.2" y="422" text-anchor="middle" font-size="11" fill="#334155">24-12</text><rect x="812.7" y="366.6" width="52.5" height="1.4" fill="#0B5FFF"/><rect x="812.7" y="313.3" width="52.5" height="53.3" fill="#0A7C86"/><rect x="812.7" y="245.9" width="52.5" height="67.4" fill="#15803D"/><rect x="812.7" y="243.7" width="52.5" height="2.2" fill="#D97706"/><rect x="812.7" y="242.1" width="52.5" height="1.6" fill="#BE185D"/><rect x="812.7" y="69.1" width="52.5" height="173.0" fill="#7C3AED"/><rect x="812.7" y="64.0" width="52.5" height="5.1" fill="#475569"/><rect x="893.4" y="366.2" width="52.5" height="1.8" fill="#0B5FFF"/><rect x="893.4" y="311.0" width="52.5" height="55.2" fill="#0A7C86"/><rect x="893.4" y="246.3" width="52.5" height="64.7" fill="#15803D"/><rect x="893.4" y="244.1" width="52.5" height="2.2" fill="#D97706"/><rect x="893.4" y="242.6" width="52.5" height="1.5" fill="#BE185D"/><rect x="893.4" y="69.0" width="52.5" height="173.6" fill="#7C3AED"/><rect x="893.4" y="64.0" width="52.5" height="5.0" fill="#475569"/><text x="919.6" y="422" text-anchor="middle" font-size="11" fill="#334155">25-12</text>
    <rect x="72" y="436" width="12" height="12" fill="#0B5FFF" rx="2"/><text x="90" y="446" font-size="11" fill="#334155">Africa</text><rect x="190" y="436" width="12" height="12" fill="#0A7C86" rx="2"/><text x="208" y="446" font-size="11" fill="#334155">Asia</text><rect x="308" y="436" width="12" height="12" fill="#15803D" rx="2"/><text x="326" y="446" font-size="11" fill="#334155">Europe</text><rect x="426" y="436" width="12" height="12" fill="#D97706" rx="2"/><text x="444" y="446" font-size="11" fill="#334155">Latin America</text><rect x="544" y="436" width="12" height="12" fill="#BE185D" rx="2"/><text x="562" y="446" font-size="11" fill="#334155">Middle East</text><rect x="662" y="436" width="12" height="12" fill="#7C3AED" rx="2"/><text x="680" y="446" font-size="11" fill="#334155">North America</text><rect x="780" y="436" width="12" height="12" fill="#475569" rx="2"/><text x="798" y="446" font-size="11" fill="#334155">Oceania</text>
    </svg>