<svg xmlns="http://www.w3.org/2000/svg" width="980" height="460" viewBox="0 0 980 460">
    <rect width="980" height="460" fill="white"/>
    <text x="72" y="30" font-size="22" font-weight="700" fill="#0F172A">Transition Event Counts</text>
    <text x="72" y="50" font-size="12" fill="#334155">Entries, exits, likely accumulations, and likely reductions by consecutive snapshot pair</text>
    <line x1="72" y1="368.0" x2="960" y2="368.0" stroke="#E2E8F0" stroke-width="1"/><text x="62" y="372.0" text-anchor="end" font-size="11" fill="#334155">0</text><line x1="72" y1="292.0" x2="960" y2="292.0" stroke="#E2E8F0" stroke-width="1"/><text x="62" y="296.0" text-anchor="end" font-size="11" fill="#334155">1,325</text><line x1="72" y1="216.0" x2="960" y2="216.0" stroke="#E2E8F0" stroke-width="1"/><text x="62" y="220.0" text-anchor="end" font-size="11" fill="#334155">2,651</text><line x1="72" y1="140.0" x2="960" y2="140.0" stroke="#E2E8F0" stroke-width="1"/><text x="62" y="144.0" text-anchor="end" font-size="11" fill="#334155">3,977</text><line x1="72" y1="64.0" x2="960" y2="64.0" stroke="#E2E8F0" stroke-width="1"/><text x="62" y="68.0" text-anchor="end" font-size="11" fill="#334155">5,303</text>
    <rect x="84.0" y="306.1" width="17.8" height="61.9" fill="#0B5FFF" rx="3"/><rect x="105.8" y="309.1" width="17.8" height="58.9" fill="#C2410C" rx="3"/><rect x="127.5" y="155.3" width="17.8" height="212.7" fill="#15803D" rx="3"/><rect x="149.3" y="191.8" width="17.8" height="176.2" fill="#D97706" rx="3"/><text x="116.4" y="422" text-anchor="middle" font-size="11" fill="#334155">17-12-&gt;18-12</text><rect x="172.8" y="302.6" width="17.8" height="65.4" fill="#0B5FFF" rx="3"/><rect x="194.6" y="305.2" width="17.8" height="62.8" fill="#C2410C" rx="3"/><rect x="216.3" y="143.2" width="17.8" height="224.8" fill="#15803D" rx="3"/><rect x="238.1" y="212.3" width="17.8" height="155.7" fill="#D97706" rx="3"/><rect x="261.6" y="304.0" width="17.8" height="64.0" fill="#0B5FFF" rx="3"/><rect x="283.4" y="299.5" width="17.8" height="68.5" fill="#C2410C" rx="3"/><rect x="305.1" y="197.6" width="17.8" height="170.4" fill="#15803D" rx="3"/><rect x="326.9" y="137.0" width="17.8" height="231.0" fill="#D97706" rx="3"/><text x="294.0" y="422" text-anchor="middle" font-size="11" fill="#334155">19-12-&gt;20-12</text><rect x="350.4" y="290.6" width="17.8" height="77.4" fill="#0B5FFF" rx="3"/><rect x="372.2" y="302.9" width="17.8" height="65.1" fill="#C2410C" rx="3"/><rect x="393.9" y="254.9" width="17.8" height="113.1" fill="#15803D" rx="3"/><rect x="415.7" y="64.0" width="17.8" height="304.0" fill="#D97706" rx="3"/><rect x="439.2" y="311.0" width="17.8" height="57.0" fill="#0B5FFF" rx="3"/><rect x="461.0" y="304.7" width="17.8" height="63.3" fill="#C2410C" rx="3"/><rect x="482.7" y="135.1" width="17.8" height="232.9" fill="#15803D" rx="3"/><rect x="504.5" y="190.3" width="17.8" height="177.7" fill="#D97706" rx="3"/><text x="471.6" y="422" text-anchor="middle" font-size="11" fill="#334155">21-12-&gt;22-12</text><rect x="528.0" y="316.9" width="17.8" height="51.1" fill="#0B5FFF" rx="3"/><rect x="549.8" y="295.7" width="17.8" height="72.3" fill="#C2410C" rx="3"/><rect x="571.5" y="179.6" width="17.8" height="188.4" fill="#15803D" rx="3"/><rect x="593.3" y="156.1" width="17.8" height="211.9" fill="#D97706" rx="3"/><rect x="616.8" y="336.8" width="17.8" height="31.2" fill="#0B5FFF" rx="3"/><rect x="638.6" y="331.3" width="17.8" height="36.7" fill="#C2410C" rx="3"/><rect x="660.3" y="202.8" width="17.8" height="165.2" fill="#15803D" rx="3"/><rect x="682.1" y="149.2" width="17.8" height="218.8" fill="#D97706" rx="3"/><text x="649.2" y="422" text-anchor="middle" font-size="11" fill="#334155">23-12-&gt;24-06</text><rect x="705.6" y="335.7" width="17.8" height="32.3" fill="#0B5FFF" rx="3"/><rect x="727.4" y="329.7" width="17.8" height="38.3" fill="#C2410C" rx="3"/><rect x="749.1" y="194.5" width="17.8" height="173.5" fill="#15803D" rx="3"/><rect x="770.9" y="155.7" width="17.8" height="212.3" fill="#D97706" rx="3"/><rect x="794.4" y="341.1" width="17.8" height="26.9" fill="#0B5FFF" rx="3"/><rect x="816.2" y="324.8" width="17.8" height="43.2" fill="#C2410C" rx="3"/><rect x="837.9" y="219.4" width="17.8" height="148.6" fill="#15803D" rx="3"/><rect x="859.7" y="144.6" width="17.8" height="223.4" fill="#D97706" rx="3"/><text x="826.8" y="422" text-anchor="middle" font-size="11" fill="#334155">24-12-&gt;25-06</text><rect x="883.2" y="339.9" width="17.8" height="28.1" fill="#0B5FFF" rx="3"/><rect x="905.0" y="272.6" width="17.8" height="95.4" fill="#C2410C" rx="3"/><rect x="926.7" y="228.2" width="17.8" height="139.8" fill="#15803D" rx="3"/><rect x="948.5" y="184.1" width="17.8" height="183.9" fill="#D97706" rx="3"/><text x="915.6" y="422" text-anchor="middle" font-size="11" fill="#334155">25-06-&gt;25-12</text>
    <rect x="72" y="438" width="12" height="12" fill="#0B5FFF" rx="2"/><text x="90" y="448" font-size="11" fill="#334155">Entries</text><rect x="212" y="438" width="12" height="12" fill="#C2410C" rx="2"/><text x="230" y="448" font-size="11" fill="#334155">Exits</text><rect x="352" y="438" width="12" height="12" fill="#15803D" rx="2"/><text x="370" y="448" font-size="11" fill="#334155">Likely Accum.</text><rect x="492" y="438" width="12" height="12" fill="#D97706" rx="2"/><text x="510" y="448" font-size="11" fill="#334155">Likely Reduct.</text>
    </svg>