<svg xmlns="http://www.w3.org/2000/svg" width="900" height="420" viewBox="0 0 900 420"><rect width="900" height="420" fill="white"/><text x="72" y="30" font-size="22" font-weight="700" fill="#0F172A">Excess Return vs VT</text><text x="72" y="50" font-size="12" fill="#475569">Benchmark-relative total return over the common comparison window.</text><line x1="72" y1="328.0" x2="880" y2="328.0" stroke="#E2E8F0" stroke-width="1"/><text x="62" y="332.0" text-anchor="end" font-size="11" fill="#475569">-32.8%</text><line x1="72" y1="262.0" x2="880" y2="262.0" stroke="#E2E8F0" stroke-width="1"/><text x="62" y="266.0" text-anchor="end" font-size="11" fill="#475569">31.5%</text><line x1="72" y1="196.0" x2="880" y2="196.0" stroke="#E2E8F0" stroke-width="1"/><text x="62" y="200.0" text-anchor="end" font-size="11" fill="#475569">95.8%</text><line x1="72" y1="130.0" x2="880" y2="130.0" stroke="#E2E8F0" stroke-width="1"/><text x="62" y="134.0" text-anchor="end" font-size="11" fill="#475569">160.1%</text><line x1="72" y1="64.0" x2="880" y2="64.0" stroke="#E2E8F0" stroke-width="1"/><text x="62" y="68.0" text-anchor="end" font-size="11" fill="#475569">224.4%</text><rect x="89.7" y="64.0" width="65.7" height="230.3" fill="#7C3AED" rx="3"/><text x="122.5" y="386" text-anchor="middle" font-size="10.5" fill="#475569">N1</text><rect x="190.7" y="166.0" width="65.7" height="128.3" fill="#7C3AED" rx="3"/><text x="223.5" y="386" text-anchor="middle" font-size="10.5" fill="#475569">N2</text><rect x="291.7" y="290.6" width="65.7" height="3.7" fill="#7C3AED" rx="3"/><text x="324.5" y="386" text-anchor="middle" font-size="10.5" fill="#475569">N3</text><rect x="392.7" y="275.1" width="65.7" height="19.2" fill="#7C3AED" rx="3"/><text x="425.5" y="386" text-anchor="middle" font-size="10.5" fill="#475569">N4</text><rect x="493.7" y="294.3" width="65.7" height="33.7" fill="#DC2626" rx="3"/><text x="526.5" y="386" text-anchor="middle" font-size="10.5" fill="#475569">N5</text><rect x="594.7" y="275.6" width="65.7" height="18.7" fill="#7C3AED" rx="3"/><text x="627.5" y="386" text-anchor="middle" font-size="10.5" fill="#475569">N6</text><rect x="695.7" y="294.3" width="65.7" height="8.9" fill="#DC2626" rx="3"/><text x="728.5" y="386" text-anchor="middle" font-size="10.5" fill="#475569">N7</text><rect x="796.7" y="294.3" width="65.7" height="28.0" fill="#DC2626" rx="3"/><text x="829.5" y="386" text-anchor="middle" font-size="10.5" fill="#475569">N8</text></svg>