<svg xmlns="http://www.w3.org/2000/svg" width="900" height="420" viewBox="0 0 900 420"><rect width="900" height="420" fill="white"/><text x="72" y="30" font-size="22" font-weight="700" fill="#0F172A">Average Cash Weight</text><text x="72" y="50" font-size="12" fill="#475569">Cash usage distinguishes fully invested sleeves from conditional industry-tilt strategies.</text><line x1="72" y1="328.0" x2="880" y2="328.0" stroke="#E2E8F0" stroke-width="1"/><text x="62" y="332.0" text-anchor="end" font-size="11" fill="#475569">0.0%</text><line x1="72" y1="262.0" x2="880" y2="262.0" stroke="#E2E8F0" stroke-width="1"/><text x="62" y="266.0" text-anchor="end" font-size="11" fill="#475569">15.2%</text><line x1="72" y1="196.0" x2="880" y2="196.0" stroke="#E2E8F0" stroke-width="1"/><text x="62" y="200.0" text-anchor="end" font-size="11" fill="#475569">30.3%</text><line x1="72" y1="130.0" x2="880" y2="130.0" stroke="#E2E8F0" stroke-width="1"/><text x="62" y="134.0" text-anchor="end" font-size="11" fill="#475569">45.5%</text><line x1="72" y1="64.0" x2="880" y2="64.0" stroke="#E2E8F0" stroke-width="1"/><text x="62" y="68.0" text-anchor="end" font-size="11" fill="#475569">60.7%</text><rect x="89.7" y="328.0" width="65.7" height="0.0" fill="#059669" rx="3"/><text x="122.5" y="386" text-anchor="middle" font-size="10.5" fill="#475569">N1</text><rect x="190.7" y="328.0" width="65.7" height="0.0" fill="#059669" rx="3"/><text x="223.5" y="386" text-anchor="middle" font-size="10.5" fill="#475569">N2</text><rect x="291.7" y="304.9" width="65.7" height="23.1" fill="#059669" rx="3"/><text x="324.5" y="386" text-anchor="middle" font-size="10.5" fill="#475569">N3</text><rect x="392.7" y="263.1" width="65.7" height="64.9" fill="#059669" rx="3"/><text x="425.5" y="386" text-anchor="middle" font-size="10.5" fill="#475569">N4</text><rect x="493.7" y="72.5" width="65.7" height="255.5" fill="#059669" rx="3"/><text x="526.5" y="386" text-anchor="middle" font-size="10.5" fill="#475569">N5</text><rect x="594.7" y="328.0" width="65.7" height="0.0" fill="#059669" rx="3"/><text x="627.5" y="386" text-anchor="middle" font-size="10.5" fill="#475569">N6</text><rect x="695.7" y="241.0" width="65.7" height="87.0" fill="#059669" rx="3"/><text x="728.5" y="386" text-anchor="middle" font-size="10.5" fill="#475569">N7</text><rect x="796.7" y="64.0" width="65.7" height="264.0" fill="#059669" rx="3"/><text x="829.5" y="386" text-anchor="middle" font-size="10.5" fill="#475569">N8</text></svg>