<svg xmlns="http://www.w3.org/2000/svg" width="900" height="420" viewBox="0 0 900 420"><rect width="900" height="420" fill="white"/><text x="72" y="30" font-size="22" font-weight="700" fill="#0F172A">Total Return by Strategy</text><text x="72" y="50" font-size="12" fill="#475569">Full-sample standalone total return for each NBIM strategy.</text><line x1="72" y1="328.0" x2="880" y2="328.0" stroke="#E2E8F0" stroke-width="1"/><text x="62" y="332.0" text-anchor="end" font-size="11" fill="#475569">0.0%</text><line x1="72" y1="262.0" x2="880" y2="262.0" stroke="#E2E8F0" stroke-width="1"/><text x="62" y="266.0" text-anchor="end" font-size="11" fill="#475569">179.3%</text><line x1="72" y1="196.0" x2="880" y2="196.0" stroke="#E2E8F0" stroke-width="1"/><text x="62" y="200.0" text-anchor="end" font-size="11" fill="#475569">358.5%</text><line x1="72" y1="130.0" x2="880" y2="130.0" stroke="#E2E8F0" stroke-width="1"/><text x="62" y="134.0" text-anchor="end" font-size="11" fill="#475569">537.8%</text><line x1="72" y1="64.0" x2="880" y2="64.0" stroke="#E2E8F0" stroke-width="1"/><text x="62" y="68.0" text-anchor="end" font-size="11" fill="#475569">717.0%</text><rect x="89.7" y="64.0" width="65.7" height="264.0" fill="#2563EB" rx="3"/><text x="122.5" y="386" text-anchor="middle" font-size="10.5" fill="#475569">N1</text><rect x="190.7" y="156.2" width="65.7" height="171.8" fill="#2563EB" rx="3"/><text x="223.5" y="386" text-anchor="middle" font-size="10.5" fill="#475569">N2</text><rect x="291.7" y="268.7" width="65.7" height="59.3" fill="#2563EB" rx="3"/><text x="324.5" y="386" text-anchor="middle" font-size="10.5" fill="#475569">N3</text><rect x="392.7" y="254.7" width="65.7" height="73.3" fill="#2563EB" rx="3"/><text x="425.5" y="386" text-anchor="middle" font-size="10.5" fill="#475569">N4</text><rect x="493.7" y="302.5" width="65.7" height="25.5" fill="#2563EB" rx="3"/><text x="526.5" y="386" text-anchor="middle" font-size="10.5" fill="#475569">N5</text><rect x="594.7" y="255.2" width="65.7" height="72.8" fill="#2563EB" rx="3"/><text x="627.5" y="386" text-anchor="middle" font-size="10.5" fill="#475569">N6</text><rect x="695.7" y="280.2" width="65.7" height="47.8" fill="#2563EB" rx="3"/><text x="728.5" y="386" text-anchor="middle" font-size="10.5" fill="#475569">N7</text><rect x="796.7" y="297.3" width="65.7" height="30.7" fill="#2563EB" rx="3"/><text x="829.5" y="386" text-anchor="middle" font-size="10.5" fill="#475569">N8</text></svg>