<svg xmlns="http://www.w3.org/2000/svg" width="920" height="420" viewBox="0 0 920 420"><rect width="920" height="420" fill="white"/><text x="72" y="30" font-size="22" font-weight="700" fill="#0F172A">Cross-Fund Consensus Count</text><text x="72" y="50" font-size="12" fill="#475569">Number of sectors with simultaneous PIF and NBIM confirmation.</text><line x1="72" y1="328.0" x2="900" y2="328.0" stroke="#E2E8F0" stroke-width="1"/><text x="62" y="332.0" text-anchor="end" font-size="11" fill="#475569">0</text><line x1="72" y1="262.0" x2="900" y2="262.0" stroke="#E2E8F0" stroke-width="1"/><text x="62" y="266.0" text-anchor="end" font-size="11" fill="#475569">1</text><line x1="72" y1="196.0" x2="900" y2="196.0" stroke="#E2E8F0" stroke-width="1"/><text x="62" y="200.0" text-anchor="end" font-size="11" fill="#475569">2</text><line x1="72" y1="130.0" x2="900" y2="130.0" stroke="#E2E8F0" stroke-width="1"/><text x="62" y="134.0" text-anchor="end" font-size="11" fill="#475569">4</text><line x1="72" y1="64.0" x2="900" y2="64.0" stroke="#E2E8F0" stroke-width="1"/><text x="62" y="68.0" text-anchor="end" font-size="11" fill="#475569">5</text><rect x="77.0" y="328.0" width="12.3" height="0.0" fill="#15803D" rx="3"/><text x="83.2" y="386" text-anchor="middle" font-size="10.5" fill="#475569">19-02</text><rect x="99.4" y="328.0" width="12.3" height="0.0" fill="#15803D" rx="3"/><text x="105.6" y="386" text-anchor="middle" font-size="10.5" fill="#475569"></text><rect x="121.8" y="328.0" width="12.3" height="0.0" fill="#15803D" rx="3"/><text x="127.9" y="386" text-anchor="middle" font-size="10.5" fill="#475569"></text><rect x="144.2" y="275.2" width="12.3" height="52.8" fill="#15803D" rx="3"/><text x="150.3" y="386" text-anchor="middle" font-size="10.5" fill="#475569">19-08</text><rect x="166.5" y="275.2" width="12.3" height="52.8" fill="#15803D" rx="3"/><text x="172.7" y="386" text-anchor="middle" font-size="10.5" fill="#475569"></text><rect x="188.9" y="275.2" width="12.3" height="52.8" fill="#15803D" rx="3"/><text x="195.1" y="386" text-anchor="middle" font-size="10.5" fill="#475569"></text><rect x="211.3" y="275.2" width="12.3" height="52.8" fill="#15803D" rx="3"/><text x="217.5" y="386" text-anchor="middle" font-size="10.5" fill="#475569">20-02</text><rect x="233.7" y="169.6" width="12.3" height="158.4" fill="#15803D" rx="3"/><text x="239.8" y="386" text-anchor="middle" font-size="10.5" fill="#475569"></text><rect x="256.1" y="328.0" width="12.3" height="0.0" fill="#15803D" rx="3"/><text x="262.2" y="386" text-anchor="middle" font-size="10.5" fill="#475569"></text><rect x="278.4" y="328.0" width="12.3" height="0.0" fill="#15803D" rx="3"/><text x="284.6" y="386" text-anchor="middle" font-size="10.5" fill="#475569">20-11</text><rect x="300.8" y="328.0" width="12.3" height="0.0" fill="#15803D" rx="3"/><text x="307.0" y="386" text-anchor="middle" font-size="10.5" fill="#475569"></text><rect x="323.2" y="169.6" width="12.3" height="158.4" fill="#15803D" rx="3"/><text x="329.4" y="386" text-anchor="middle" font-size="10.5" fill="#475569"></text><rect x="345.6" y="328.0" width="12.3" height="0.0" fill="#15803D" rx="3"/><text x="351.7" y="386" text-anchor="middle" font-size="10.5" fill="#475569">21-08</text><rect x="368.0" y="275.2" width="12.3" height="52.8" fill="#15803D" rx="3"/><text x="374.1" y="386" text-anchor="middle" font-size="10.5" fill="#475569"></text><rect x="390.3" y="328.0" width="12.3" height="0.0" fill="#15803D" rx="3"/><text x="396.5" y="386" text-anchor="middle" font-size="10.5" fill="#475569"></text><rect x="412.7" y="275.2" width="12.3" height="52.8" fill="#15803D" rx="3"/><text x="418.9" y="386" text-anchor="middle" font-size="10.5" fill="#475569">22-11</text><rect x="435.1" y="64.0" width="12.3" height="264.0" fill="#15803D" rx="3"/><text x="441.2" y="386" text-anchor="middle" font-size="10.5" fill="#475569"></text><rect x="457.5" y="275.2" width="12.3" height="52.8" fill="#15803D" rx="3"/><text x="463.6" y="386" text-anchor="middle" font-size="10.5" fill="#475569"></text><rect x="479.8" y="328.0" width="12.3" height="0.0" fill="#15803D" rx="3"/><text x="486.0" y="386" text-anchor="middle" font-size="10.5" fill="#475569">23-03</text><rect x="502.2" y="328.0" width="12.3" height="0.0" fill="#15803D" rx="3"/><text x="508.4" y="386" text-anchor="middle" font-size="10.5" fill="#475569"></text><rect x="524.6" y="275.2" width="12.3" height="52.8" fill="#15803D" rx="3"/><text x="530.8" y="386" text-anchor="middle" font-size="10.5" fill="#475569"></text><rect x="547.0" y="222.4" width="12.3" height="105.6" fill="#15803D" rx="3"/><text x="553.1" y="386" text-anchor="middle" font-size="10.5" fill="#475569">23-11</text><rect x="569.4" y="222.4" width="12.3" height="105.6" fill="#15803D" rx="3"/><text x="575.5" y="386" text-anchor="middle" font-size="10.5" fill="#475569"></text><rect x="591.7" y="222.4" width="12.3" height="105.6" fill="#15803D" rx="3"/><text x="597.9" y="386" text-anchor="middle" font-size="10.5" fill="#475569"></text><rect x="614.1" y="328.0" width="12.3" height="0.0" fill="#15803D" rx="3"/><text x="620.3" y="386" text-anchor="middle" font-size="10.5" fill="#475569">24-05</text><rect x="636.5" y="328.0" width="12.3" height="0.0" fill="#15803D" rx="3"/><text x="642.6" y="386" text-anchor="middle" font-size="10.5" fill="#475569"></text><rect x="658.9" y="328.0" width="12.3" height="0.0" fill="#15803D" rx="3"/><text x="665.0" y="386" text-anchor="middle" font-size="10.5" fill="#475569"></text><rect x="681.3" y="169.6" width="12.3" height="158.4" fill="#15803D" rx="3"/><text x="687.4" y="386" text-anchor="middle" font-size="10.5" fill="#475569">24-11</text><rect x="703.6" y="275.2" width="12.3" height="52.8" fill="#15803D" rx="3"/><text x="709.8" y="386" text-anchor="middle" font-size="10.5" fill="#475569"></text><rect x="726.0" y="275.2" width="12.3" height="52.8" fill="#15803D" rx="3"/><text x="732.2" y="386" text-anchor="middle" font-size="10.5" fill="#475569"></text><rect x="748.4" y="222.4" width="12.3" height="105.6" fill="#15803D" rx="3"/><text x="754.5" y="386" text-anchor="middle" font-size="10.5" fill="#475569">25-05</text><rect x="770.8" y="222.4" width="12.3" height="105.6" fill="#15803D" rx="3"/><text x="776.9" y="386" text-anchor="middle" font-size="10.5" fill="#475569"></text><rect x="793.1" y="328.0" width="12.3" height="0.0" fill="#15803D" rx="3"/><text x="799.3" y="386" text-anchor="middle" font-size="10.5" fill="#475569"></text><rect x="815.5" y="328.0" width="12.3" height="0.0" fill="#15803D" rx="3"/><text x="821.7" y="386" text-anchor="middle" font-size="10.5" fill="#475569">25-11</text><rect x="837.9" y="328.0" width="12.3" height="0.0" fill="#15803D" rx="3"/><text x="844.1" y="386" text-anchor="middle" font-size="10.5" fill="#475569"></text><rect x="860.3" y="328.0" width="12.3" height="0.0" fill="#15803D" rx="3"/><text x="866.4" y="386" text-anchor="middle" font-size="10.5" fill="#475569"></text><rect x="882.7" y="328.0" width="12.3" height="0.0" fill="#15803D" rx="3"/><text x="888.8" y="386" text-anchor="middle" font-size="10.5" fill="#475569">26-05</text></svg>