<svg xmlns="http://www.w3.org/2000/svg" width="920" height="420" viewBox="0 0 920 420"><rect width="920" height="420" fill="white"/><text x="72" y="30" font-size="22" font-weight="700" fill="#0F172A">Excess Return vs VT</text><text x="72" y="50" font-size="12" fill="#475569">Total excess return over the shared backtest window.</text><line x1="72" y1="328.0" x2="900" y2="328.0" stroke="#E2E8F0" stroke-width="1"/><text x="62" y="332.0" text-anchor="end" font-size="11" fill="#475569">-36.8%</text><line x1="72" y1="262.0" x2="900" y2="262.0" stroke="#E2E8F0" stroke-width="1"/><text x="62" y="266.0" text-anchor="end" font-size="11" fill="#475569">-27.1%</text><line x1="72" y1="196.0" x2="900" y2="196.0" stroke="#E2E8F0" stroke-width="1"/><text x="62" y="200.0" text-anchor="end" font-size="11" fill="#475569">-17.4%</text><line x1="72" y1="130.0" x2="900" y2="130.0" stroke="#E2E8F0" stroke-width="1"/><text x="62" y="134.0" text-anchor="end" font-size="11" fill="#475569">-7.8%</text><line x1="72" y1="64.0" x2="900" y2="64.0" stroke="#E2E8F0" stroke-width="1"/><text x="62" y="68.0" text-anchor="end" font-size="11" fill="#475569">1.9%</text><rect x="109.3" y="64.0" width="91.1" height="12.9" fill="#0B5FFF" rx="3"/><text x="154.8" y="386" text-anchor="middle" font-size="10.5" fill="#475569">S1</text><rect x="274.9" y="76.9" width="91.1" height="184.8" fill="#DC2626" rx="3"/><text x="320.4" y="386" text-anchor="middle" font-size="10.5" fill="#475569">S2</text><rect x="440.5" y="76.9" width="91.1" height="251.1" fill="#DC2626" rx="3"/><text x="486.0" y="386" text-anchor="middle" font-size="10.5" fill="#475569">S3</text><rect x="606.1" y="76.9" width="91.1" height="42.5" fill="#DC2626" rx="3"/><text x="651.6" y="386" text-anchor="middle" font-size="10.5" fill="#475569">S4</text><rect x="771.7" y="76.9" width="91.1" height="43.7" fill="#DC2626" rx="3"/><text x="817.2" y="386" text-anchor="middle" font-size="10.5" fill="#475569">S5</text></svg>